<svg xmlns="http://www.w3.org/2000/svg" enable-background="new 0 0 3692.625 3939.746" viewBox="0 0 3692.625 3939.746"><path fill="#79a1e8" d="M3469.464 1159.219c697.172 871.675-381.359 2232.555-1282.287 1543.211-853.01-652.679-1861.561-878.164-1894.015-1583.25-45.112-980.12 647.249-608.188 1566.486-990.844 1036.505-431.471 1028.673 304.278 1609.816 1030.883z"/><path fill="#473cba" d="M1844.448 167.5c133.014 0 240.843 107.829 240.843 240.842v261.38l-642.248.001V167.5h401.405"/><path fill="#fff" d="M30.776 421.31c0-140.175 113.634-253.81 253.809-253.81h1559.863c-133.013 0-240.843 107.828-240.843 240.842l.001 1319.273c0 125.14-101.446 226.586-226.586 226.586h-194.24c-91.309 0-176.3 46.613-225.381 123.61l-141.064 221.298-141.064-221.298c-49.081-76.997-134.072-123.61-225.382-123.61l-192.525.001c-125.14 0-226.586-101.445-226.586-226.586L30.776 421.31z"/><path fill="#cfddf7" d="M1844.449 167.499h-312.281L30.778 1668.89v58.726c0 125.14 101.446 226.586 226.586 226.586h192.525c91.31 0 176.301 46.612 225.382 123.609l141.064 221.297 141.064-221.297c49.08-76.997 134.072-123.609 225.381-123.609h194.241c125.14 0 226.586-101.447 226.586-226.588l-.001-1319.272c-.001-133.014 107.829-240.843 240.843-240.843z"/><path fill="#4b31aa" d="M1844.449 136.718H284.588C127.663 136.718 0 264.382 0 421.306v1306.308c0 141.918 115.452 257.371 257.363 257.371l192.528-.008c81.209 0 155.767 40.886 199.426 109.381l141.062 221.301a30.778 30.778 0 0 0 25.955 14.232 30.778 30.778 0 0 0 25.955-14.232l141.062-221.301c43.659-68.495 118.218-109.381 199.427-109.381h194.241c141.918 0 257.371-115.452 257.371-257.363l-.006-1027.115h450.911c16.998 0 30.779-13.782 30.779-30.779V408.344c0-149.779-121.847-271.626-271.625-271.626zm-467.43 1786.7h-194.241c-102.355 0-196.308 51.534-251.336 137.845l-115.107 180.588-115.107-180.588c-55.029-86.311-148.989-137.845-251.336-137.845l-192.528.008c-107.968 0-195.805-87.844-195.805-195.812V421.306c0-122.982 100.048-223.029 223.029-223.029h1387.847c-60.777 49.859-99.612 125.507-99.612 210.067l.007 1319.27c.001 107.968-87.843 195.804-195.811 195.804zM2054.516 638.94h-420.132l-.001-230.597c0-115.828 94.239-210.067 210.067-210.067s210.067 94.239 210.067 210.067V638.94z"/><circle cx="837.848" cy="861.819" r="434.757" fill="#f9d015"/><path fill="#fbb03b" d="M530.429 1169.24c78.676 78.675 187.365 127.336 307.42 127.336 240.11 0 434.757-194.647 434.757-434.757 0-120.055-48.662-228.744-127.337-307.42l-614.84 614.841z"/><path fill="#473cba" d="M841.643 1421.354c-42.494 0-76.948-34.454-76.948-76.948v-58.816c0-125.815 63.798-241.921 170.661-310.588 46.026-29.577 71.26-77.542 67.502-128.317-5.305-71.688-69.464-129.617-149.237-134.742-48.296-3.126-95.208 13.09-128.61 44.418-28.991 27.187-44.959 62.844-44.959 100.401 0 42.494-34.454 76.948-76.948 76.948s-76.948-34.454-76.948-76.948c0-80.54 33.236-156.06 93.585-212.659 64.301-60.304 153.198-91.556 243.747-85.74 156.008 10.024 281.905 129.091 292.846 276.961 7.875 106.345-44.922 209.473-137.778 269.153-62.596 40.218-99.965 107.923-99.965 181.114v58.816c0 42.493-34.454 76.947-76.948 76.947zM841.621 1651.154c-20.244 0-40.09-8.236-54.405-22.551-14.315-14.307-22.543-34.161-22.543-54.397s8.228-40.09 22.543-54.405 34.161-22.543 54.405-22.543c20.312 0 40.09 8.228 54.397 22.543 14.315 14.315 22.551 34.168 22.551 54.405s-8.236 40.09-22.551 54.397c-14.308 14.315-34.086 22.551-54.397 22.551z"/><ellipse cx="2069.019" cy="3890.059" fill="#473cba" rx="577.111" ry="49.687"/><ellipse cx="683.952" cy="2740.566" fill="#473cba" rx="577.111" ry="49.687"/><path fill="#473cba" d="M3078.409 1287.039c133.014 0 240.843 107.828 240.843 240.842v261.38l-642.248.001v-502.223h401.405"/><path fill="#d7ecf9" d="M1264.737 1540.85c0-140.175 113.634-253.81 253.809-253.81H3078.41c-133.013 0-240.843 107.828-240.843 240.842l.001 1319.273c0 125.14-101.446 226.586-226.586 226.586h-194.241c-91.309 0-176.3 46.613-225.381 123.61l-141.064 221.298-141.064-221.298c-49.081-76.997-134.072-123.61-225.382-123.61h-192.525c-125.14 0-226.586-101.445-226.587-226.585l-.001-1306.306z"/><path fill="#b3d4e5" d="M3078.409 1287.041h-241.914L1265.026 2858.51c5.916 119.865 104.967 215.231 226.3 215.231h192.525c91.309 0 176.301 46.612 225.381 123.609l141.064 221.297 141.064-221.297c49.081-76.997 134.072-123.609 225.381-123.609h194.241c125.14 0 226.586-101.447 226.585-226.588l-.001-1319.272c0-133.013 107.83-240.84 240.843-240.84z"/><path fill="#4b31aa" d="M3078.407 1256.261H1518.546c-156.925 0-284.588 127.663-284.588 284.588v1306.308c0 141.911 115.452 257.363 257.363 257.363h192.528c81.224 0 155.775 40.886 199.427 109.38l141.062 221.294c5.651 8.867 15.442 14.232 25.955 14.232s20.304-5.365 25.955-14.232l141.069-221.301c43.652-68.487 118.203-109.373 199.427-109.373h194.241c141.911 0 257.363-115.452 257.363-257.363V1820.042h450.906c16.998 0 30.779-13.781 30.779-30.779V1527.88c0-149.771-121.847-271.619-271.626-271.619zm-271.618 1590.896c0 107.968-87.836 195.805-195.804 195.805h-194.241c-102.362 0-196.323 51.534-251.336 137.845l-115.114 180.58-115.107-180.573c-55.013-86.319-148.974-137.853-251.336-137.853h-192.528c-107.968 0-195.805-87.837-195.805-195.805V1540.849c0-122.982 100.048-223.029 223.029-223.029h1387.847c-60.777 49.851-99.604 125.499-99.604 210.059v1319.278zm481.685-1088.674h-420.126v-230.604c0-115.828 94.231-210.059 210.06-210.059 115.828 0 210.067 94.231 210.067 210.059v230.604z"/><path fill="#f7931e" d="M1550.901 1686.901h990.066v312.923h-990.066z"/><path fill="#e07e1e" d="M2123.711 1999.824h417.257v-312.923h-104.334z"/><path fill="#4b31aa" d="M2540.965 2030.605h-990.061c-16.998 0-30.779-13.781-30.779-30.779v-312.925c0-16.998 13.781-30.779 30.779-30.779h990.061c16.998 0 30.779 13.781 30.779 30.779v312.925c0 16.997-13.781 30.779-30.779 30.779zm-959.282-61.559h928.503V1717.68h-928.503v251.366z"/><path fill="#79a1e8" d="M2540.965 2249.449h-990.061c-16.998 0-30.779-13.781-30.779-30.779s13.781-30.779 30.779-30.779h990.061c16.998 0 30.779 13.781 30.779 30.779s-13.781 30.779-30.779 30.779zM2540.965 2415.188h-990.061c-16.998 0-30.779-13.781-30.779-30.779 0-16.998 13.781-30.779 30.779-30.779h990.061c16.998 0 30.779 13.781 30.779 30.779 0 16.997-13.781 30.779-30.779 30.779zM2540.965 2580.919h-990.061c-16.998 0-30.779-13.781-30.779-30.779 0-16.998 13.781-30.779 30.779-30.779h990.061c16.998 0 30.779 13.782 30.779 30.779 0 16.998-13.781 30.779-30.779 30.779zM2540.965 2746.659h-990.061c-16.998 0-30.779-13.782-30.779-30.779 0-16.998 13.781-30.779 30.779-30.779h990.061c16.998 0 30.779 13.781 30.779 30.779 0 16.997-13.781 30.779-30.779 30.779z"/><path fill="#4b31aa" d="M2546.097 792.566c-16.998 0-30.779-13.782-30.779-30.779V564.006c0-16.998 13.781-30.779 30.779-30.779s30.779 13.782 30.779 30.779v197.781c.001 16.997-13.781 30.779-30.779 30.779zM2829.708 872.28a30.64 30.64 0 0 1-16.659-4.914c-14.285-9.22-18.388-28.269-9.175-42.554l101.1-156.662c9.228-14.285 28.27-18.388 42.554-9.175 14.285 9.22 18.388 28.269 9.175 42.554l-101.1 156.662c-5.891 9.121-15.788 14.089-25.895 14.089zM3029.849 1100.366c-11.287 0-22.16-6.237-27.555-17.02-7.597-15.209-1.435-33.695 13.766-41.3l131.856-65.924c15.179-7.605 33.687-1.443 41.3 13.767 7.597 15.209 1.435 33.695-13.767 41.299l-131.856 65.924a30.644 30.644 0 0 1-13.744 3.254z"/></svg>