<svg xmlns="http://www.w3.org/2000/svg" data-name="Layer 1" viewBox="0 0 2688 1860.92"><path fill="#ffe7d7" d="M588.68 640.25c3.72-23.33 14.07-45 24.8-66a1457.67 1457.67 0 0 1 78.75-135.69c42.13 44.85 86.29 93.75 95.16 154.64 8.36 57.42-24.92 197.51-84.89 222.62-79.9 33.4-122.57-120.82-113.82-175.57ZM316 687.39c-49.5-38.87-86.13-92.49-111.12-150.27A297 297 0 0 1 337 574.61c28.37 15.89 180.8 133.26 160.74 168.11C475.31 781.68 337 703.81 316 687.39ZM416.33 438.42c1.74-40 17.12-78 32.47-115q22-53.07 44.52-105.93c42.78 37.52 57 97.22 68.27 153 10.37 51.29 20.17 104.65 7.59 155.45-10.22 41.3-38.75 116.85-88.09 80.6-42.51-31.23-66.91-118.72-64.76-168.12Z"/><path fill="#fff" d="M505 640.58a33.28 33.28 0 0 0-2.36-6.57l-2.93-6.84c-2-4.58-3.79-9.23-5.7-13.89-1.74-4.69-3.36-9.44-5-14.19s-2.87-9.62-4.27-14.47c-2.87-9.68-4.54-19.63-6.41-29.59-1.51-10-2.5-20.12-3.19-30.3-.21-10.19-.28-20.42.44-30.64 1.08-10.21 2.16-20.44 4.64-30.45a180.49 180.49 0 0 1 9.45-29.37c4.28-9.39 9.12-18.48 15.48-26.57l1.42.58a242.27 242.27 0 0 0-14.23 57A333.49 333.49 0 0 0 490.5 524a499.41 499.41 0 0 0 6.33 58.58c1.59 9.7 3.44 19.37 5.36 29l2.81 14.55c.45 2.43.89 4.86 1.25 7.32.18 1.23.35 2.46.44 3.73a10 10 0 0 1-.26 4.07Z"/><path fill="#ffe7d7" d="M534.88 966.6c-15.1-7.15-29.76-15.42-42.71-26-17.37-14.17-31.23-32.07-45.39-49.45A1283.54 1283.54 0 0 0 346.4 781.6c30.2 9.71 62.87 4.21 94.59 4.92 59.51 1.33 116.84 25.07 166.23 58.3 31.66 21.3 135.06 85.52 102.57 135.39-29.08 44.64-138.62 3.55-174.91-13.61Z"/><path fill="#fff" d="M736.31 979.88c-9.06-4.27-17.65-8.5-26.52-12.38l-26-12-6.54-2.88c-2.15-1-4.23-2.1-6.41-3.05-4.33-1.95-8.59-4-12.94-5.85s-8.55-4-12.85-6l-13-5.74c-8.55-4-17.18-7.88-25.87-11.67-8.5-4.26-17.38-7.55-26-11.85-17.39-8-35-15.69-52.52-25.5l.35-1.5a551.46 551.46 0 0 1 56.09 15.43c18.38 6.2 36.51 13.19 54.25 21.08a550.62 550.62 0 0 1 51.59 27c16.63 10 33 20.66 47.34 33.85Z"/><path fill="#ffe7d7" d="M2064.6 1487c20.1 58 57.91 108.93 103.25 150.38a289.71 289.71 0 0 0 7.49-133.82c-5.63-31.21-65.37-209.23-103.91-201.82-43.09 8.26-15.32 160.74-6.83 185.26ZM2177.34 1277.87c37.47 11.13 77.42 9 116.43 6.66q56-3.4 111.91-7.34c-21-51.42-71.54-83.54-119.41-111.71-44-25.9-90.12-51.94-141-56.51-41.37-3.72-120.15-1.46-102.42 55.61 15.28 49.16 88.23 99.54 134.49 113.29Z"/><path fill="#fff" d="M2018.9 1130.17c5.95-.2 10.34 1.84 15.18 3.23s9.24 3.37 13.83 5c9 3.62 17.9 7.19 26.61 11 8.86 3.49 17.32 7.59 26.08 11 8.6 3.7 17.16 7.42 25.87 10.66 8.54 3.66 17.25 6.81 25.94 10 8.64 3.35 17.49 5.91 26.29 9 8.88 2.66 17.82 5.33 27 7.64 9.15 2.46 18.48 4.27 28.21 6.6l.08 1.5a225.69 225.69 0 0 1-29 0 264.48 264.48 0 0 1-28.7-4 328.39 328.39 0 0 1-55.42-16.69 486.43 486.43 0 0 1-52.11-25.09c-8.44-4.65-16.76-9.51-25-14.45l-12.32-7.5c-2.06-1.24-4.12-2.46-6.21-3.61s-4.37-2.4-6.17-2.65Z"/><path fill="#ffe7d7" d="M1846.2 1240.11c1.78 16.2 4.74 32.37 10.36 47.67 7.53 20.54 19.64 39 31.16 57.63a1251.83 1251.83 0 0 1 69.13 127.51c.66-31 16.14-59.35 25.59-88.84 17.72-55.33 14.08-115.78-.85-171.93-9.57-36-35.88-151.85-92.25-137.75-50.44 12.6-47.42 126.76-43.14 165.71Z"/><path fill="#fff" d="M1899.47 1049.43c6.37 7.67 10.91 16.47 15.14 25.27 2.08 4.44 3.74 9 5.64 13.5 1.73 4.55 3.15 9.19 4.65 13.81a284.16 284.16 0 0 1 11.14 57 304.77 304.77 0 0 1-.36 57.94 217.66 217.66 0 0 1-13.06 56.6l-1.5-.16c.63-9.42 1.63-18.81 1.84-28.24.57-9.42.7-18.85.79-28.28 0-18.85-.87-37.71-2.66-56.47a535.66 535.66 0 0 0-7.92-56c-1.86-9.23-3.92-18.43-6.41-27.52a206.16 206.16 0 0 0-8.66-26.83ZM1656.94 1066.44h39.78l-122.55 664.41a9.16 9.16 0 0 1-10.52 7.34 9.07 9.07 0 0 1-7.38-10.32Z"/><path fill="#545ed7" d="M1565.16 1740.36a10.79 10.79 0 0 1-1.86-.16 11.07 11.07 0 0 1-9-12.64l100.94-663.16h44l-123 666.82a11.27 11.27 0 0 1-11.08 9.14Zm93.54-671.89-100.42 659.71a7 7 0 0 0 5.73 8 7.17 7.17 0 0 0 8.16-5.7l122.09-662Z"/><path fill="#fff" d="m2015 1066.44 100.67 661.43a9.07 9.07 0 0 1-17.9 3l-122.55-664.41Z"/><path fill="#545ed7" d="M2106.77 1740.36a11.16 11.16 0 0 1-11-9.15l-123-666.81h44l.26 1.73 100.68 661.44a11.15 11.15 0 0 1-9.07 12.63 11 11 0 0 1-1.87.16Zm-129.06-671.89 122.1 662a7 7 0 0 0 13.87-2.31l-100.41-659.7Z"/><path fill="#ff7867" d="M1477.44 1072.24h740.73a35.47 35.47 0 0 0 35.47-35.47H1442a35.47 35.47 0 0 0 35.44 35.47Z"/><path fill="#545ed7" d="M1675 1019.85h259l37-140.11a9 9 0 0 0-8.92-11.12h-240a9.15 9.15 0 0 0-8.92 6.71Z"/><path fill="#ffe7d7" d="m1701.51 999.44 29.12-110.41h216.78l-29.12 110.41h-216.78z"/><rect width="354.9" height="21.03" x="1581.59" y="1017.26" fill="#4954d7" rx="9.4" transform="rotate(180 1759.045 1027.78)"/><path fill="#fff" d="M1925.63 1019.24h-179.25a2 2 0 0 1 0-4h179.25a2 2 0 0 1 0 4Z"/><path fill="#545ed7" d="M1516.25 1004.88h-2.84a60.63 60.63 0 0 1-60.56-60.57v-1.58h19.73v3.17H1456a57.47 57.47 0 0 0 57.37 55.8h2.84a57.45 57.45 0 0 0 57.37-55.8h-16.54v-3.17h19.74v1.58a60.64 60.64 0 0 1-60.53 60.57Z"/><path fill="#545ed7" d="M1472.58 904.61h84.5v39.7a40.83 40.83 0 0 1-40.83 40.83h-2.84a40.83 40.83 0 0 1-40.83-40.83v-39.7Z"/><path fill="#ff7867" d="M1514.83 810.47a34.6 34.6 0 0 1 34.6 34.59v59.55h-69.19v-59.55a34.59 34.59 0 0 1 34.59-34.59Z"/><path fill="#fff" d="M1490.38 904.61q-.32-27-.35-54v-13.52a26.63 26.63 0 0 1 2.63-13.29 24.78 24.78 0 0 1 44.45 0 26.62 26.62 0 0 1 2.62 13.29v13.52q0 27-.36 54-.3-27-.35-54v-13.52a25.86 25.86 0 0 0-2.62-12.9 24.05 24.05 0 0 0-42.88 0 25.86 25.86 0 0 0-2.62 12.9v13.52q-.2 26.98-.52 54Z"/><path fill="#fff" d="M1501 904.61q-.32-25.1-.35-50.18v-12.55c.06-4.17-.25-8.37.34-12.58a33.13 33.13 0 0 1 3.8-12.07c2-3.59 5.5-7.2 10.14-7.29 4.65.08 8.09 3.7 10.14 7.29a33 33 0 0 1 3.81 12.07c.58 4.21.27 8.41.33 12.58v12.55q0 25.1-.35 50.18-.32-25.1-.36-50.18v-12.55c-.09-4.18.19-8.38-.42-12.47a31.92 31.92 0 0 0-3.77-11.69c-2-3.47-5.26-6.7-9.3-6.72s-7.3 3.25-9.3 6.72a32.11 32.11 0 0 0-3.77 11.69c-.6 4.09-.33 8.29-.42 12.47v12.55q-.25 25.1-.52 50.18Z"/><path fill="#fff" d="M1501 904.61q-.32-25.1-.35-50.18v-12.55c.06-4.17-.25-8.37.34-12.58a33.13 33.13 0 0 1 3.8-12.07c2-3.59 5.5-7.2 10.14-7.29 4.65.08 8.09 3.7 10.14 7.29a33 33 0 0 1 3.81 12.07c.58 4.21.27 8.41.33 12.58v12.55q0 25.1-.35 50.18-.32-25.1-.36-50.18v-12.55c-.09-4.18.19-8.38-.42-12.47a31.92 31.92 0 0 0-3.77-11.69c-2-3.47-5.26-6.7-9.3-6.72s-7.3 3.25-9.3 6.72a32.11 32.11 0 0 0-3.77 11.69c-.6 4.09-.33 8.29-.42 12.47v12.55q-.25 25.1-.52 50.18Z"/><path fill="#545ed7" d="M1536.27 1036.64h-42.87v-1.59a20.44 20.44 0 0 1 20.42-20.42h2a20.44 20.44 0 0 1 20.42 20.42Zm-39.63-3.17H1533a17.27 17.27 0 0 0-17.17-15.67h-2a17.27 17.27 0 0 0-17.19 15.67Z"/><path fill="#545ed7" d="M1514.26 1003.29h3.17v12.93h-3.17z"/><path fill="#fff" d="M1523.24 961.89a7.4 7.4 0 1 1-7.39-7.39 7.39 7.39 0 0 1 7.39 7.39ZM1514.83 810.47c.34 15.69.26 31.38.4 47.07-.14 15.69-.06 31.38-.4 47.07-.34-15.69-.25-31.38-.39-47.07.14-15.69.05-31.38.39-47.07Z"/><path fill="#fff" d="M1480.24 896.67c11.53-.46 23.06-.34 34.59-.53 11.53.18 23.06.07 34.6.53-11.54.45-23.07.34-34.6.52-11.53-.19-23.06-.07-34.59-.52ZM1480.24 882.5c11.53-.45 23.06-.34 34.59-.53 11.53.19 23.06.08 34.6.53-11.54.46-23.07.34-34.6.53-11.53-.19-23.06-.03-34.59-.53ZM1480.24 868.34c11.53-.45 23.06-.34 34.59-.53 11.53.19 23.06.07 34.6.53-11.54.46-23.07.34-34.6.53-11.53-.19-23.06-.08-34.59-.53ZM1480.24 854.18c11.53-.46 23.06-.34 34.59-.53 11.53.19 23.06.07 34.6.53-11.54.45-23.07.34-34.6.53-11.53-.19-23.06-.08-34.59-.53ZM1480.24 840c11.53-.45 23.06-.33 34.59-.52 11.53.18 23.06.07 34.6.52-11.54.46-23.07.35-34.6.53-11.53-.18-23.06-.06-34.59-.53ZM1480.24 825.85c11.53-.45 23.06-.34 34.59-.53 11.53.19 23.06.08 34.6.53-11.54.46-23.07.34-34.6.53-11.53-.19-23.06-.07-34.59-.53ZM2182 140.82h-694.81a29.91 29.91 0 0 0-29.91 29.91l2.25 521.27a30 30 0 0 0 30 29.85l280.35.28 42.29 53.67a28.58 28.58 0 0 0 44.91 0l42.19-53.54 282.76.29a29.91 29.91 0 0 0 29.91-29.91V170.73a29.91 29.91 0 0 0-29.94-29.91Z"/><path fill="#545ed7" d="M1834.6 788.64a30.36 30.36 0 0 1-24-11.64l-41.7-52.92-279.4-.29a32 32 0 0 1-31.94-31.8l-2.25-521.25a31.92 31.92 0 0 1 31.88-31.89H2182a31.91 31.91 0 0 1 31.88 31.88v521.89A31.91 31.91 0 0 1 2182 724.5l-281.81-.29L1858.6 777a30.38 30.38 0 0 1-24 11.64Zm-347.41-645.86a28 28 0 0 0-27.94 27.95l2.24 521.27a28.07 28.07 0 0 0 28 27.89l281.31.29 42.88 54.41a26.61 26.61 0 0 0 41.82 0l42.78-54.28h1l282.76.29a28 28 0 0 0 27.95-28V170.73a28 28 0 0 0-27.99-27.95Z"/><path fill="#545ed7" d="M2010.36 584.41h-324.49a2.48 2.48 0 1 1 0-5h324.49a2.48 2.48 0 1 1 0 5ZM1969.93 629.63H1687a2.49 2.49 0 0 1 0-5h283a2.49 2.49 0 0 1 0 5Z"/><path fill="#ffe7d7" d="M2130.35 249.5v249.82a32.51 32.51 0 0 1-32.55 32.5h-502.16a32.51 32.51 0 0 1-32.55-32.5V249.5a32.51 32.51 0 0 1 32.55-32.5h502.16a32.51 32.51 0 0 1 32.55 32.5Z"/><circle cx="1611.94" cy="598.5" r="46.88" fill="#545ed7" transform="rotate(-45 1611.938 598.503)"/><path fill="#fff" d="M1594.14 607.41a7.31 7.31 0 0 0 7.13-7.49l-.06-2.38a7.09 7.09 0 0 0-.68-2.9l-.19-.41.42-.17a30.82 30.82 0 0 1 22.11-.39l.47.18-.25.43a7.25 7.25 0 0 0-.95 3.81l.06 2.37a7.31 7.31 0 0 0 7.49 7.13l3.62-.09a7.33 7.33 0 0 0 7.14-7.5l-.06-2.37a7.84 7.84 0 0 0-.09-.94v-.11c.2-2-1-5.11-4.2-7.37a41 41 0 0 0-49.18 1.23 10.25 10.25 0 0 0-3.66 5.28 7.37 7.37 0 0 0-.3 2.28l.06 2.37a7.32 7.32 0 0 0 7.5 7.13Z"/><path fill="#ff7867" d="M1890.35 333.74s-39.68 39.41-67.16 45.07c0 0 .13.62.41 1.73 6.73 26.4 29.8 45.41 57 47.62l38.77 3.16 4-60.86Z"/><path fill="#ffcec8" d="M1896.48 294s-25.11 76.7 26 88.42l-2.1 31.85 61 4 8.84-115s-45.51-72.09-93.74-9.27Z"/><path fill="#ff7867" d="m1989 317.58-8.35 100.69 25.49 14.61 146.15-37.24s-4.23-8.12-19-11.68a18.06 18.06 0 0 1-10.47-6.82c-3.15-4.4-2.61-10.33-9.32-11a31.5 31.5 0 0 0-6.28.32.46.46 0 0 1-.4-.07.48.48 0 0 1-.13-.35 6.78 6.78 0 0 1 1.6-4.32c.6-.82 1.83-1.64 1.62-2.8-.38-2.07-5.24-2.68-6.86-2.78-3.13-.18-6.45.85-9.43-.52-5.44-2.49-4.26-10.06-1.63-14.09 1.62-2.48 3.69-4.68 4.95-7.35 2.32-4.91 1.56-10.9-1.07-15.65a22.44 22.44 0 0 0-11.54-10c-5.72-2.19-12-1.93-18.13-2.33-26.81-1.79-45.5-22.11-62.4-41.26-9.71-11-23.83-18.81-37.72-23.54-25.34-8.62-53.3 6.27-63.63 31a123.68 123.68 0 0 0-7.23 24.64s17.72 12.24 44.73-5 49.85 13.91 49 25.73Z"/><path fill="#ff7867" d="M1983 249.07a34 34 0 0 1 8.48-30c12.77-13.57 30.4-19.74 45.66-15.41 0 0 4.4 45.74-38.43 55.51Z"/><path fill="#ffb1a8" d="M1922.52 382.46a46.77 46.77 0 0 0 36.84-6.39s-8.1 19.54-37.67 19Z"/><path fill="#ffcec8" d="M1984.86 356.48s19.25-6 20.51-24.19c.44-6.32-3-12.51-9-14.79a8.83 8.83 0 0 0-7.43.15Z"/><path fill="#4d3232" d="M1999.69 260.76a1.81 1.81 0 0 1-1.06-.34l-17.08-11.88a1.87 1.87 0 0 1 2.14-3.07l17.07 11.88a1.87 1.87 0 0 1-1.07 3.41Z"/><path fill="#464646" d="M1931 330.17c-.38 2.66.69 5 2.39 5.25s3.37-1.72 3.75-4.37-.69-5-2.38-5.24-3.43 1.71-3.76 4.36ZM1905.65 325.26c-.38 2.66.69 5 2.38 5.25s3.38-1.72 3.76-4.37-.69-5-2.39-5.25-3.4 1.72-3.75 4.37Z"/><path fill="#ff7867" d="M1909.12 314c4.4-.56 8 1.22 9.1.29 1.21-.75-2.29-5.79-9.23-5.32s-10.29 6.63-9 7.39c1.01.9 4.69-2.05 9.13-2.36ZM1938.23 319.35c4.09 1.7 6.37 5 7.75 4.77 1.42-.06.89-6.17-5.37-9.21s-12.23.65-11.51 1.94c.47 1.27 5.13.54 9.13 2.5Z"/><path fill="#fff" d="M1933.15 357.17a12.75 12.75 0 0 1-25.47.49Z"/><path fill="#ff8475" d="M1918.19 350.06a1.29 1.29 0 0 1-.43-.07c-.78-.25-4.7-1.67-5.21-4.33-.16-.89 0-2.24 1.65-3.62 2.9-2.4 5-10.76 5.55-13.78a1.39 1.39 0 1 1 2.73.51c-.22 1.21-2.32 11.94-6.51 15.41-.47.38-.73.75-.69 1 .13.68 1.87 1.73 3.34 2.21a1.39 1.39 0 0 1 .89 1.75 1.4 1.4 0 0 1-1.32.92Z"/><path fill="#464646" d="M1757.15 498.76s1.68 16.61 12 21.11l13.11-15.06s-8.9-10.81-25.11-6.05Z"/><path fill="#ffcec8" d="m1743.36 530.75-61.64-47.73-24.62 9.63 27.15 38.1h59.11zM1819.55 530.75l-40.91-30.11-33.73 30.11h74.64z"/><path fill="#545ed7" d="M1789 511.57c4 5.2 6.36 11.64 7.6 18.36 0 .26.13.55.2.82h63.15l-3.44-118.93-.28.12-4.27 2.29c-.73.37-1.46.77-2.15 1.18a93.26 93.26 0 0 0-18 13.3l-15 14.05-7.1 6.67-52.48 49.33c.94-.25 18.26-4.54 31.77 12.81Z"/><path fill="#545ed7" d="M2037 530.75v-.06l.07.06 9.2-109.38v-.11l-.58-.22-.07-.05c-3.67-1.49-7.45-2.77-11.28-3.95-7.65-2.38-15.59-3.25-23.55-4-1.87-.14-3.78-.33-5.68-.49l-83-7.41-23.46-1.54a82 82 0 0 0-14 .26 85.92 85.92 0 0 0-28.26 7.93l-.28.12-6.41 3.05v.42l-1.29 115.34Z"/><path fill="#3944c7" d="M1850.92 530.75c-6.34-30.55 10.45-62 10.64-62.33a.92.92 0 0 0-.37-1.24.91.91 0 0 0-1.24.37c-.19.35-17.15 32.08-10.89 63.2Z"/><path fill="#ffcec8" d="M2010.86 413.07c-8.06 42.34-38.57 68.31-71.54 64.39-31.48-3.74-54.47-32.79-54.6-73.57a82 82 0 0 1 14-.26l23.46 1.54 83 7.41c1.9.16 3.82.34 5.68.49Z"/><path fill="#fff" d="M1770 486.53c.91-.27 22.39-6.26 33.88 13.13a35.61 35.61 0 0 1 4 10.89 52 52 0 0 0 9.09 20.2h4.72a47.85 47.85 0 0 1-10.24-20.94 38.84 38.84 0 0 0-4.39-12c-13-21.87-37.8-14.85-38-14.78a1.83 1.83 0 0 0 1 3.51Z"/><path fill="#ac9af0" d="M2078.76 445.33a22.76 22.76 0 0 1-22.82 13.07l1-9.63a13 13 0 0 0 14-10.5c2 1.68 4 3.43 5.89 5.16Z"/><path fill="#fff" d="M1945.75 479.72c32.22.3 59.11-25.47 66.63-64.94a1.83 1.83 0 1 0-3.59-.68c-7.65 40.18-36.12 65.51-69.26 61.56a55.87 55.87 0 0 1-39.76-24.13 60.33 60.33 0 0 1-4.81-8.07c-5.54-11-8.37-23.8-8.41-38a1.83 1.83 0 0 0-1.81-1.82 1.83 1.83 0 0 0-1.83 1.83c0 14.8 3 28.14 8.8 39.66a65.59 65.59 0 0 0 5.09 8.53 59.48 59.48 0 0 0 42.32 25.66 62.69 62.69 0 0 0 6.63.4Z"/><path fill="#545ed7" d="M2096.63 530.75q-.24-7.89-.49-15.78c-.71-23.19.32-46.54-13.37-66.63-9.41-13.81-23.12-23.24-38.83-28.49-6.06-2-13.25-4.78-19.8-4-.19 0-5.91 1.19-5.59 1.62l-18.86 96.73.41 16.54Z"/><path fill="#fff" d="M2003.94 530.75c1.94-2.16 12.41-13 25.92-14 7.93-.55 15.57 2.43 22.7 8.86a74.78 74.78 0 0 0 6.39 5.13h6.56a67.61 67.61 0 0 1-10.5-7.84c-7.91-7.13-16.47-10.44-25.43-9.79-16.48 1.16-28.31 15.09-28.8 15.68a1.81 1.81 0 0 0-.24 2Z"/><path fill="#3944c7" d="m2001.91 530.75 1.46-44.93a.9.9 0 0 0-.88-.94 1 1 0 0 0-.94.88l-1.47 45Z"/><path fill="#ffcec8" d="m1835.58 390.32 4.61-5.18 16.46-.34a1.83 1.83 0 0 0 1.79-1.87 1.83 1.83 0 0 0-1-1.57l-4.64-2.55 15-4a2 2 0 0 0 1.5-2 2 2 0 0 0-2.06-2l-12.9.26 13-7.84a1.61 1.61 0 0 0 .78-1.42 1.62 1.62 0 0 0-1.86-1.57L1852 362.5l4.47-8.11a1.16 1.16 0 0 0 0-1.18 1.18 1.18 0 0 0-1.62-.4l-9.81 5.93-3.5 1.94.24-10.61a1.52 1.52 0 0 0-2.31-1.33l-8 20.2-11.14 7ZM1633.57 339.18s.4 52.61 56.34 56.14c0 0 44.77 6.28 46.23-51.65l-1.37-14.81a36.9 36.9 0 0 0-38.07-33.48l-30.11 1.09a31.91 31.91 0 0 0-30.34 26.66Z"/><path fill="#ffcec8" d="M1676.15 391.82v20.7s2.72 10 12.06 10.9c17.8 1.77 16.7-10.22 16.7-10.22l1.21-21.88s-13.12 8.17-29.97.5Z"/><path fill="#ff9e70" d="m1840.52 394.71-79.14 80.68L1623 480l-99.87-72.09 16.17-28 76.41 30.65 51.64-4.82 8.21-.76h.34a4.21 4.21 0 0 0 .63 1c1.29 1.6 4.88 4.56 14 4.9h.64c11.93.28 13.93-5.88 14.2-7.07v-.19h.1l8.14.44 38 2.09 72.87-40.35Z"/><path fill="#ff7867" d="m1761.38 475.39-3.32 14-5 21.05-1.55 6.53-34.85.61-19.32.35-53.85 1-10.62.18-4.7-16-6.78-23.11a77.38 77.38 0 0 0 13.81-18 64.16 64.16 0 0 0 7.2-20.86 62.33 62.33 0 0 0-3.48-32.93l15.73-1.64 4.09 17.5a22.89 22.89 0 0 0 21.45 17.65l23.67.87a22.89 22.89 0 0 0 23.4-19.06l3.17-18.78 11.56.8a48.68 48.68 0 0 0-2.36 22.72 78.59 78.59 0 0 0 6.73 22.88 113.94 113.94 0 0 0 15.02 24.24Z"/><path fill="#454545" d="M1675.2 349.66c-.27 2.25-1.81 3.91-3.45 3.72s-2.75-2.17-2.48-4.42 1.8-3.92 3.44-3.72 2.75 2.17 2.49 4.42ZM1698.24 350.81c-.26 2.25-1.8 3.92-3.44 3.73s-2.75-2.17-2.49-4.42 1.81-3.92 3.44-3.73 2.75 2.17 2.49 4.42Z"/><path fill="#ff7867" d="M1677.53 340.74c-.67.42-3.1-1.76-6.32-1.66-3.22-.14-5.68 2-6.34 1.57-.84-.32 1.39-4.57 6.36-4.54s7.15 4.32 6.3 4.63ZM1691 339.51c.47.64 3.53-.47 6.49.81 3 1.07 4.52 4 5.3 3.82.9 0 .41-4.75-4.22-6.58s-8.29 1.35-7.57 1.95Z"/><path fill="#ffcec8" d="m1537.35 383.28-8.56-6.34-1.57-13.46a2.66 2.66 0 0 0-2.74-2.87h-.19l-2.64 11.88-1.86.62-13.46-7.76a1.73 1.73 0 0 0-2.09.82 1.74 1.74 0 0 0 .23 2l7.38 8.3-12.13-2.67a2.26 2.26 0 0 0-2.48 1.14 2.26 2.26 0 0 0 .66 2.89l8.95 6.57-8.88.29a2.34 2.34 0 0 0-2.26 2.41 2.32 2.32 0 0 0 1.78 2.19l7.61 1.87-3.6 2.23a2.49 2.49 0 0 0-.8 3.42 2.48 2.48 0 0 0 2.76 1.09l7.17-2 15.88 6.85Z"/><path fill="#ff7867" d="M1680.73 365.29a.75.75 0 0 1-.38-.1c-1-.57-4.43-2.61-4.13-4.64.22-1.52 2.19-1.94 2.83-2.08 4.21-.9 4.38-10.11 4.08-13.58a.79.79 0 0 1 .71-.84.77.77 0 0 1 .84.71c0 .56 1.09 13.85-5.3 15.22-1.23.27-1.6.62-1.63.79-.09.65 1.69 2.15 3.35 3.07a.77.77 0 0 1-.37 1.45Z"/><path fill="#fff" d="M1713.69 404.08a11.44 11.44 0 0 1-.45 2.53 12.75 12.75 0 0 1-9.59 8.74 13.08 13.08 0 0 1-13-4.67h.23c11.93.28 14.32-5.86 14.6-7.05ZM1673.31 374.48a10.86 10.86 0 0 0 21.29-4.31Z"/><path fill="#ff7867" d="M1641.38 335.33s-10.75 44.1 34.77 58v4.19s-23.34 3.7-33.94-3.24c0 0 3.39 8.91-9.46 9.57-19.06 1-21.51-15.26-21.51-15.26s-6.54.2-9.56-.49a16.37 16.37 0 0 1-9.18-5.75c-4-5.07-4.54-12-3.83-18.43 1.81-16.25 12.74-30.93 30.27-30.65.09 0 1.39-9.22 1.52-9.78a77.11 77.11 0 0 1 8.23-21.75c12.19-21.29 35.28-30.26 59.22-28.48 18.31 1.37 35.13 5.75 47.81 18.75 27.68 28.38 19.11 44.89 19.11 44.89s30.44 2.17 28.13 34.5c-1.86 25.93-23.45 22.06-23.45 22.06s-4.32 29-28.71 24.82c-8.83-1.5-14.79-10-14.35-12.16-.21 1.08-8.13-.13-10.68-7.78l.26-4.56s28.51-6 27.33-45.22c-1.25-41.66-12.13-34.2-12.13-34.2s-12.17 24.12-47.2 20.22a8.63 8.63 0 0 1-5-2.26c-1.65-1.57-2.68-3.86 1.25-6.12.03-.04-14.84 8.85-28.9 9.13Z"/><path fill="#ffcec8" d="M1729.35 351.64c-3.79 6.44-5.5 12.48-.53 15.41s14.75 1.65 18.55-4.79 2.84-14-2.13-17-12.09-.06-15.89 6.38Z"/><path fill="#fff" d="M1690.73 410.61s0 .1-.16.27a12.39 12.39 0 0 1-12.16 5.48 12.77 12.77 0 0 1-10.34-7.85 11.15 11.15 0 0 1-.71-2.77l8.79-.79a1.16 1.16 0 0 0 .39 1c2.1 1.92 6.35 4.47 14.19 4.66Z"/><path fill="#fff" d="m1695 436.38-4.58-.11a.74.74 0 0 1-.72-.74l.16-24.17a.73.73 0 0 1 .73-.72.73.73 0 0 1 .73.73l-.15 23.45 3.86.09a.74.74 0 0 1 0 1.47Z"/><path fill="#ff7867" d="m1758.46 530.75-6.94-13.82-34.86.62-19.32.34-53.85.96-10.6.19-4.1 11.71h129.67z"/><path fill="#fff" d="M1695.89 419.83a1.55 1.55 0 1 1-1.51-1.58 1.54 1.54 0 0 1 1.51 1.58ZM1695.69 428.52a1.55 1.55 0 1 1-1.51-1.59 1.55 1.55 0 0 1 1.51 1.59Z"/><path fill="#ffada3" d="M1655 453.27a11.93 11.93 0 0 1-19.81 8.67 64.16 64.16 0 0 0 7.2-20.86h1a11.94 11.94 0 0 1 11.61 12.19ZM1703.44 477.92a11.93 11.93 0 1 1-11.65-12.2 11.94 11.94 0 0 1 11.65 12.2ZM1644.45 514.45a11.76 11.76 0 0 1-1 4.4l-10.62.18-4.69-16a11.76 11.76 0 0 1 4.61-.81 11.92 11.92 0 0 1 11.7 12.23ZM1758.06 489.36l-5 21.05a11.93 11.93 0 1 1 5-21.05ZM1717.37 530.75a11.92 11.92 0 1 0-20.49 0ZM1746.36 451.09a11.71 11.71 0 0 1-3.89.55 11.92 11.92 0 0 1-2.84-23.43 78.68 78.68 0 0 0 6.73 22.88Z"/><path fill="#ffa499" d="M1676.15 393.29a46.87 46.87 0 0 0 29.89.45l-.36 6.44s-14.23 1.94-29.53-6.89Z"/><path fill="#ff7867" d="M1620.47 334.36c-1.31-.13-1.66-1.73-2-2.68s-.57-2.2-.8-3.31a35.5 35.5 0 0 1-.54-6.83 30.52 30.52 0 0 1 3.33-13.15 84.46 84.46 0 0 0-1.5 13.2 53.85 53.85 0 0 0 .1 6.6c0 1.11.15 2.21.29 3.32s.06 2.31 1.12 2.85Z"/><path fill="#ff7867" d="M1620.34 334.88a13.68 13.68 0 0 0-9.58-2 27.94 27.94 0 0 0-9.42 3 32.16 32.16 0 0 0-8.1 5.77 36.63 36.63 0 0 0-6.19 8 25.41 25.41 0 0 1 5.17-9 29.86 29.86 0 0 1 8.29-6.43 26.42 26.42 0 0 1 10.15-2.79c3.5-.1 7.34.86 9.68 3.45ZM1690.91 275.28c-.65-1.14.44-2.35 1-3.17s1.47-1.74 2.25-2.58a36.09 36.09 0 0 1 5.25-4.38 30.54 30.54 0 0 1 12.66-4.89 84.24 84.24 0 0 0-11.64 6.41 53.08 53.08 0 0 0-5.33 3.9c-.87.68-1.72 1.4-2.53 2.15s-1.84 1.39-1.66 2.56Z"/><path fill="#ff7867" d="M1690.4 275.48a13.64 13.64 0 0 0-3.92-9 27.82 27.82 0 0 0-7.91-5.94 32.24 32.24 0 0 0-9.39-3.27 37.07 37.07 0 0 0-10.11-.43 25.27 25.27 0 0 1 10.32-1 29.72 29.72 0 0 1 10 3 26.32 26.32 0 0 1 8.13 6.67c2.2 2.87 3.63 6.49 2.88 9.97Z"/><path fill="#fff" d="m1524.24 405.98-4.85-3.91 13.94-24.14 5.34 3.09-14.43 24.96zM1825.96 369l2.86-1.75 11.56 19.02-3.92 3.74-10.5-21.01z"/><path fill="#464646" d="M1068.41 1614.56s-20 4.72-36.06-9.19l20.5-23.81s15.56 7.07 15.56 33Z"/><path fill="#545ed7" d="M1239.3 1734.84h-139a178.84 178.84 0 0 1-170.85-124.66l-74.61-325.91a2.83 2.83 0 0 1 5.52-1.26l74.54 325.68a173.15 173.15 0 0 0 165.4 120.49h139a2.83 2.83 0 1 1 0 5.66Z"/><path fill="#464646" d="M1370.15 1632.36s-17.91 22.52-66.7 14.74l-3.54-39.61s49.96-15.33 70.24 24.87Z"/><path fill="#ffcec8" d="m1341.64 1618.1-5.66 64.83 13.6 3.83-8.24 21.26-72.04.87-7.37-75.94 79.71-14.85z"/><path fill="#e5edfb" d="m1337.68 1665.25-1.7 17.68 13.6 3.83-8.24 21.26-72.04.87-4.23-43.64h72.61z"/><path fill="#ff9d5a" d="m1349.58 1686.76 79 20.8a13.38 13.38 0 0 1 9.12 12.68 13.38 13.38 0 0 1-13.38 13.38h-168v-5.86a21.48 21.48 0 0 1 21.48-21.48h50.14a20.25 20.25 0 0 0 18.65-12.36Z"/><path fill="#ffcec8" d="m1067.26 1589.32-41.69 49.97 8.98 10.92-18.92 12.73-59.61-40.44 37.34-66.54 73.9 33.36z"/><path fill="#e5edfb" d="m1037.07 1625.75-11.5 13.54 8.98 10.92-18.92 12.73-59.61-40.44 21.45-38.24 59.6 41.49z"/><path fill="#ff9d5a" d="m1034.55 1650.21 53 62.22a13.36 13.36 0 0 1 .24 15.62 13.38 13.38 0 0 1-18.62 3.34l-137.92-96 3.35-4.81a21.48 21.48 0 0 1 29.9-5.35l41.16 28.65a20.23 20.23 0 0 0 22.36.51Z"/><path fill="#545ed7" d="m1045.05 1290.71-190.95-9.91-48.77-130.69-5.15-13.8c-1.75-4.76-3.39-9.57-4.69-14.38a205.48 205.48 0 0 1 69.25-218.38l50.18-40 78.93 259 9.73 32Z"/><path fill="#464646" d="M872.54 1107.13S883.83 1132 922 1138.6l3.3-46.67s-29.63-13.44-52.76 15.2Z"/><path fill="#ff7867" d="M977.9 1549.92c5.71 8.72 14.48 16.07 23.76 21 17.31 9.34 30.59 10 48.13 18.84 4.92 2.49 17.21 6.84 18.62 24.75l177.44-253.66V1282l-131.88-.9Z"/><path fill="#ff7867" d="M911.7 1246.78s14.09 33.72 64.56 35.19h264.39l3.33 345.18c10.87 8 26.2 10.86 40.06 9.79 19.58-1.58 38.3-9 57.82-11 8.15-.84 21.5-.11 28.29 6.4l25.63-329.11 5.55-85a100.32 100.32 0 0 0-97.09-106.88l-74.63-2.2-71.4-.74-251.6-21.72-7.07 113.6a76.75 76.75 0 0 0 12.16 46.49Z"/><path fill="#464646" d="M881 1307.68h360.68v-26.88H854.1a26.87 26.87 0 0 0 26.9 26.88Z"/><path fill="#eb5744" d="M1244 1370.05a2.31 2.31 0 0 1-2.31-2.31V1282a2.31 2.31 0 0 1 4.62 0v85.77a2.31 2.31 0 0 1-2.31 2.28Z"/><path fill="#fff" d="M1276.24 1605.51c-11.38 0-26.53-2.12-39-11.25l3-4.06c12.33 9 27.79 10.55 38.6 10.24 12.13-.36 24.33-3 36.14-5.56l5.15-1.11c12.94-2.75 28-5.57 42.72-4.22 5.1.47 12.51 1.65 18 6.46l-3.32 3.78c-3.33-2.92-8.13-4.59-15.13-5.23-14-1.29-28.06 1.33-41.21 4.12l-5.13 1.11c-12 2.61-24.47 5.31-37.06 5.67-.91.03-1.82.05-2.76.05ZM1093.46 1588.89c-1.15-4.28-4.23-8.32-9.7-12.73-11-8.86-24.65-14.65-36.6-19.38l-4.93-1.93c-11.44-4.49-23.28-9.13-34-15.78-9.84-6.13-22.78-16.73-28.54-32.43l4.72-1.73c5.27 14.35 17.31 24.18 26.48 29.89 10.28 6.41 21.9 11 33.14 15.36l4.94 1.94c12.29 4.87 26.37 10.84 37.91 20.14 4 3.22 9.51 8.31 11.4 15.34Z"/><path fill="#fff" d="M1266.67 1605.06a2.51 2.51 0 0 1-2.51-2.52v-271.18c-.52-1.71-1.87-6.75-.63-9.87a22.1 22.1 0 0 1 1.43-2.78 14 14 0 0 0 1.14-2.21c.38-1 .28-2-.07-2.3a3.49 3.49 0 0 0-.57-.32 5.79 5.79 0 0 1-2.38-1.88c-1.77-2.6 0-5.57.57-6.54a92.44 92.44 0 0 0 6.32-12.87l-1.45-.48a29.09 29.09 0 0 1-5.19-2.07 2.51 2.51 0 0 1-1.2-2.88 7.15 7.15 0 0 1 3-3.69c.23-.17.55-.4.77-.59-.11-.13-.25-.27-.36-.39l-.44-.47a12.47 12.47 0 0 1-2.9-8.33 35.31 35.31 0 0 1 .47-5.62l.25-1.88c.09-.76.16-1.51.21-2.26a8.36 8.36 0 0 1-3.34 4.15 2.51 2.51 0 0 1-3.36-.7 87.397 87.397 0 0 1-4.44-7c-.76.94-1.58 2-2.11 2.67a22.92 22.92 0 0 1-2.29 2.77 6.15 6.15 0 0 1-4.44 1.72c-2.66-.22-4.13-2.49-4.84-3.58l-6.22-9.58a8 8 0 0 0-2-2.4c-.84-.53-2 .24-2.45 1a7.58 7.58 0 0 0-.87 4.16c0 1.86 0 4.61-2.27 6.23a6.71 6.71 0 0 1-3.8 1c-3.18.1-6.38 0-9.47-.12-1.58 0-3.16-.11-4.74-.13h-176.74a83.94 83.94 0 0 1-83.84-83.85v-92.64a2.52 2.52 0 1 1 5 0v92.64a78.9 78.9 0 0 0 78.81 78.82h176.81c1.65 0 3.26.08 4.87.13 3 .1 6.13.21 9.16.12a3.88 3.88 0 0 0 1.06-.11 9.54 9.54 0 0 0 .12-2 12.61 12.61 0 0 1 1.66-6.94c1.88-2.94 5.89-4.69 9.35-2.55a12.13 12.13 0 0 1 3.56 3.93l6.23 9.58c.65 1 1 1.25 1.08 1.31a6.61 6.61 0 0 0 .68-.5c.2-.22.84-1.06 1.62-2.06 4.11-5.29 5-6.42 6.82-6.26a2.72 2.72 0 0 1 2.07 1.36 87.97 87.97 0 0 0 3.82 6.51 18.88 18.88 0 0 0 .64-3c.37-2.6 1-6.52 4.1-8.72a2.53 2.53 0 0 1 2.37-.27 2.5 2.5 0 0 1 1.53 1.83 47.66 47.66 0 0 1 .66 15.26c-.08.66-.17 1.32-.26 2a32 32 0 0 0-.44 4.85 7.87 7.87 0 0 0 1.62 5.05l.33.35a5.85 5.85 0 0 1 1.92 3.47 5 5 0 0 1-2.22 4.46l1.17.39c.62.2 1.25.4 1.85.62a4.24 4.24 0 0 1 2.84 6.2 98.35 98.35 0 0 1-6.74 13.9 6.6 6.6 0 0 0-.59 1.2l.34.17a9.59 9.59 0 0 1 1.35.8c2.57 2 2.72 5.47 1.73 8.1a20.57 20.57 0 0 1-1.5 3 15.55 15.55 0 0 0-1.1 2.1c-.45 1.13.08 4.45.85 6.85a2.27 2.27 0 0 1 .13.77v271.57a2.52 2.52 0 0 1-2.54 2.5Z"/><path fill="#fff" d="M948.42 1182.85a2.52 2.52 0 0 1 0-5 46.57 46.57 0 0 0 46.52-46.52v-42.2a2.52 2.52 0 1 1 5 0v42.2a51.61 51.61 0 0 1-51.52 51.52Z"/><path fill="#464646" d="M1115.77 1272.88v7.92h-28.29v-7.92a125.12 125.12 0 0 0-127.58-125.32l-154.57 2.55-5.15-13.8c-1.75-4.76-3.39-9.57-4.69-14.38l164-2.65a154.06 154.06 0 0 1 34.4 3.28 153.57 153.57 0 0 1 121.92 150.32Z"/><path fill="#ffcec8" d="M1441.44 767.18c.22-.27 14.75-30.11 14.75-30.11a7.76 7.76 0 0 0-2.59-5 6 6 0 0 0-7.07-.2c.76-1.64.29-.65 1-2.3a5.52 5.52 0 0 0-2.85-5.5 5.41 5.41 0 0 0-5.55.35c.8-1.57-1.72 3.06-.92 1.49a5.92 5.92 0 0 0-.1-5.66 5.7 5.7 0 0 0-1.51-1.7 6.55 6.55 0 0 0-7.9.24c2.59-5.8 8.5-17.79 11.09-23.58a4.47 4.47 0 0 0-1.12-4.91 3.83 3.83 0 0 0-5.93 1l-29.33 43.67-12.31-23.61a8.14 8.14 0 0 0-11.73-3.06l16.68 62.42-9.05 13.53 34.45 20.75Z"/><path fill="#ff9c91" d="M1429.3 737.09a6.68 6.68 0 0 1-2.54-.5 6.88 6.88 0 0 1-3.46-9.65l4.71-8.58a.83.83 0 0 1 1.46.81l-4.7 8.57a5.22 5.22 0 0 0 2.62 7.31 5.11 5.11 0 0 0 6.42-2.36l4.62-8.68a.83.83 0 0 1 1.13-.35.84.84 0 0 1 .35 1.13l-4.63 8.69a6.77 6.77 0 0 1-5.98 3.61Z"/><path fill="#ff9c91" d="M1438.76 742a5.87 5.87 0 0 1-2.84-.74 6 6 0 0 1-2.39-8l1.68-3.17a.83.83 0 1 1 1.47.78L1435 734a4.31 4.31 0 0 0 1.72 5.77 4.15 4.15 0 0 0 3.25.35 4.19 4.19 0 0 0 2.53-2.1l2.06-3.95a.84.84 0 0 1 1.48.78l-2.06 3.94a5.86 5.86 0 0 1-3.52 2.93 6 6 0 0 1-1.7.28Z"/><path fill="#ff9c91" d="M1448 746.4a5.87 5.87 0 0 1-2.84-.74 6 6 0 0 1-2.39-8l1.68-3.17a.84.84 0 0 1 1.48.78l-1.68 3.17a4.33 4.33 0 0 0 1.72 5.77 4.2 4.2 0 0 0 5.78-1.75l2.06-4a.84.84 0 0 1 1.48.78l-2.06 3.94a5.86 5.86 0 0 1-5.23 3.18Z"/><path fill="#e5edfb" d="m1201.91 765.9 101.87 123.81 76.9-124.19 66.91 32.31-89.94 201.92a57.76 57.76 0 0 1-39.38 32.69 57.76 57.76 0 0 1-47.6-9.65L1226 989.94Z"/><path fill="#ffc1bb" d="M1169.24 616.3s2.66-16-14.2-25.3c0 0 12-52.37-25.75-67.46s-65.24-2.67-79.89 12.87l-9.94 16.1s11.27 12.75-.27 31 8.88 36.83 28.41 32.84l-28 30.18-22.6 74.52s54.59 61.69 131.38 30.18l-.45-46.16 5.33-33.29s14.65-6.66 15.98-55.48Z"/><path fill="#ff9d5a" d="M1015.43 689.7s-32.71 12.2-65.43 51.44c-40.54 48.56-61.88 169.74-77.41 366 0 0 76.28-45.32 174 25s187-27.16 187-27.16 2.26-209.56-17.65-313.7a107.35 107.35 0 0 0-22.72-48.31l-19.66-23.75s-61.86 67.48-158.13-29.52Z"/><path fill="#ffbe91" d="M1012.37 691c-2.38 1.08-6.07 2.91-10.68 5.59L989.92 708l-2.19-2.27c-.93.66-1.83 1.3-2.78 2l2.52 2.61-46.39 44.81-.63-.65c-.61 1-1.23 2-1.83 3l-.07.06q-2.73 4.66-5.34 9.88l7.76-7.5 44.81 46.39-46.4 44.81-26.78-27.74c-.35 1.27-.71 2.51-1 3.8l25.4 26.29-39.41 38.06c-.34 1.86-.66 3.77-1 5.67l42.75-41.29 44.8 46.4-46.39 44.8-42.22-43.72c-.23 1.38-.46 2.78-.69 4.17l40.47 41.91-46.4 44.8-5.17-5.35c-.16 1.44-.32 2.93-.48 4.38l3.21 3.33-4 3.88c-.19 1.76-.38 3.5-.58 5.27l7-6.71 44.8 46.4-46.4 44.8-12.29-12.67c-.13 1.49-.26 3-.38 4.49l10.17 10.54-12 11.59c-.07 1-.15 1.91-.23 2.89 0 0 1.58-.93 4.5-2.29l10.09-9.75 4.14 4.29c1.17-.37 2.39-.74 3.66-1.1l-5.36-5.55 46.4-44.8 44.8 46.4-4 3.88c1.25.33 2.52.69 3.79 1.06l2.59-2.5 4.51 4.67c2.35.77 4.72 1.59 7.13 2.49l-9.2-9.52 46.4-44.8 44.8 46.39-34.41 33.24c1 .65 1.9 1.28 2.85 2l33.92-32.76 44.81 46.4-12.72 12.28c1.52.13 3 .26 4.55.32l10.52-10.16 9.07 9.39c1.4-.16 2.8-.34 4.18-.56l-10.8-11.19 46.39-44.8 28.57 29.59c1-.66 1.91-1.3 2.84-2l-29-30L1224 1053l9.57 9.9v-4.92l-7.09-7.34 6.94-6.7c0-1.52 0-3.11-.06-4.66l-9.24 8.92-44.8-46.4 46.4-44.8 5.71 5.92c-.06-1.69-.13-3.4-.2-5.1l-3.07-3.18 2.83-2.74c-.06-1.51-.13-3-.19-4.53l-5 4.83-44.8-46.4 44.34-42.82c-.13-1.45-.25-2.91-.39-4.35l-46.31 44.73-44.81-46.4 46.4-44.8 44.7 46.29c-.17-1.83-.36-3.63-.54-5.45l-41.72-43.2 30.54-29.49c-.37-1.21-.75-2.41-1.16-3.61l-31.74 30.66-44.8-46.4 40.36-39-2.17-2.62-40.55 39.15-15.98-16.49c-1.57 0-3.16 0-4.78-.06l18.25 18.9-46.4 44.8-44.8-46.39 30-29c-1.08-.53-2.14-1-3.24-1.59l-29.14 28.14-44.81-46.39Zm69.43 117-46.4 44.8-44.8-46.39 46.4-44.81Zm-.91 189.64-44.8-46.39 46.39-44.81 44.81 46.4Zm48.75-42.36 44.81 46.4-46.4 44.8-44.8-46.39Zm-51.19 44.72-46.4 44.81-44.8-46.4 46.39-44.8Zm-44.72-51.19-44.81-46.4 46.4-44.81 44.8 46.4Zm4-93.56 46.4-44.81 44.8 46.4-46.39 44.8Zm93.64-.77-44.8-46.4 46.4-44.8 44.8 46.4Zm44.73 51.2-46.4 44.8-44.81-46.4 46.4-44.8Zm.76 93.64-44.8-46.4 46.39-44.8 44.81 46.4Zm-1.67 96-44.81-46.4 46.4-44.8 44.8 46.4Zm-93.65.77 46.4-44.81 44.8 46.4-46.39 44.8Zm-47.16-48.84 46.4-44.81 44.8 46.4-46.39 44.8Zm-96-1.68 46.4-44.8 44.8 46.39-46.37 44.84Zm-.77-93.64 44.81 46.4-46.4 44.8-44.8-46.4Zm48.84-47.16 44.81 46.39L984.89 996l-44.8-46.4Zm1.68-96 44.8 46.39L986.57 900l-44.81-46.4Zm1.67-96 44.81 46.39L988.24 804l-44.8-46.4Z"/><path fill="#e5edfb" d="m1118.84 569.06-9.29-14.2s-16.46 2.22-24 27.52l3.55 2.66s12.43-14.64 29.74-15.98ZM1132.21 572.3v-15.09a28.47 28.47 0 0 1 28.33 9.41l.7 5.68s-16.16-10.21-29.03 0Z"/><path fill="#404041" d="M1115.68 588.54a4.23 4.23 0 1 0 4.23-4.45 4.34 4.34 0 0 0-4.23 4.45ZM1141.72 586.57a4.23 4.23 0 1 0 4.23-4.47 4.35 4.35 0 0 0-4.23 4.47Z"/><path fill="#ff7867" d="M1139.68 626.33a1.16 1.16 0 0 1-.34-2.26c11.27-3.46 13.75-9.12 14.27-11l-18.32-14.63a1.22 1.22 0 0 1-.38-.57l-2.77-9.16a1.16 1.16 0 0 1 2.22-.67l2.66 8.81 18.59 14.86a1.15 1.15 0 0 1 .42 1c0 .37-1.11 8.94-16 13.51a1 1 0 0 1-.35.11Z"/><path fill="#e5edfb" d="M1171.5 640.49s-6.92-21.71-28.55-16.36-30.39 35.87-30.39 35.87 33.52-.64 33.9-25.33c0-.01 13.47 14.25 25.04 5.82ZM1028 685.59l-12.57 4.11s39.09 115 132.75 141c0 0 40.56-47.36 25.33-111.55l-17.87-15.49s-11 31.82-48.91 30.27-78.73-48.34-78.73-48.34Z"/><path fill="#ff7867" d="m1134.77 743.53-7.2 19.59-19.77 1.21-14.22-19.5 7-11.55s13.19 2.91 24.63-.53Z"/><path fill="#b8beff" d="m1114.17 734.07-30.31 27.31s-21-14-38.88-28.42a92.17 92.17 0 0 1-28.06-39.39c-.46-1.24-1-2.53-1.49-3.87l12.57-4.11s44.14 45.02 86.17 48.48ZM1114.17 734.07l32.83 23.38a58.45 58.45 0 0 0 29.58-23.45l-3.07-14.82-20-17.88s-14.97 24.79-39.34 32.77Z"/><path fill="#ff7867" d="m1127.57 763.12 32.84 49.46a171.23 171.23 0 0 1-12.23 18.16c-1 1.28-38-12.21-48.06-23.47l7.68-42.94Z"/><path fill="#e5edfb" d="M1165 599.77s8.33 21.81 1 33.18a10.16 10.16 0 0 1-9.41 4.38c-3.19-.27-7.42-1-10.66-3.05 0 0-15.18 20.83-41.06 10.61-28.89-11.4-33.64-30-33.64-30s-26.34 5.17-25.59-17.31 23.61-19.49 23.61-19.49l8.63-10.81s-12.36-14.62-3-25.86 56.5-30.24 75.61 1.24c0 0 23.33-20.35-10.4-38.72 0 0-3.38-40.47-66.34-22.48-51.9 14.82-50.3 79.45-48.14 101.71a28 28 0 0 0 4.28 12.29c6.55 10.33 18.45 35.42-6 53.45 0 0 6.37 10.87 25.11-10.49 0 0-1.88 28.55 40.85 45 0 0 13.86 10.12-2.63 24 0 0 4.5 4.49 16.49-2.25 0 0-5.62 15.54-24 13.39 0 0 47.59 19.21 68.58-26.14 0 0-6.37 20.24-12.74 24 0 0 72.33-6.75 50.59-69.71 0 0 14.24-6.37 15.74-13.86.03.05-14.02 12.27-36.88-33.08Z"/><path fill="#ff7867" d="M1147.18 647.34a14.72 14.72 0 0 1-8.15-3 1.16 1.16 0 0 1 1.3-1.91c3.32 2.27 6.27 3 8.73 2.32a8.31 8.31 0 0 0 4.76-4.36 1.13 1.13 0 0 1 1.51-.61 1.15 1.15 0 0 1 .62 1.51 10.62 10.62 0 0 1-6.24 5.68 8.89 8.89 0 0 1-2.53.37Z"/><path fill="#ffc1bb" d="m1211.51 1085.8 38-3.92 14.22 7.45 30.83-1.63 13.68 8.55 9.46 10.6a3.93 3.93 0 0 0 5.33.5 3.93 3.93 0 0 0 .52-5.74l-10.15-11.32-14-9.58a6.29 6.29 0 0 1 5.8-.82l15.48 5.55 18.61 15.52a3.91 3.91 0 0 0 5.14-.12 3.91 3.91 0 0 0-.13-5.89l-17.92-15 7 2.75 18.88 12.69a3.59 3.59 0 0 0 4.28-.21 3.58 3.58 0 0 0-.45-5.84l-2.06-1.23 3.39 2.64 1.17-1.72-5.21-4.17L1342 1072l-5.35-3 4.35-2.92a7.84 7.84 0 0 0-5.09-3.46l-15.2-3-59.79-10.15-47.5-21.19Z"/><path fill="#ff9d93" d="M1326.4 1080.57a.59.59 0 0 1-.23 0l-20.12-8.84a.58.58 0 1 1 .47-1.06l20.12 8.83a.59.59 0 0 1 .29.77.56.56 0 0 1-.53.3ZM1354.89 1089.1a.53.53 0 0 1-.34-.11l-17-12.83-19.45-7.13a.58.58 0 0 1-.35-.75.59.59 0 0 1 .75-.34l19.53 7.15.15.08 17.11 12.89a.58.58 0 0 1 .12.81.58.58 0 0 1-.52.23ZM1336.62 1069.58a.67.67 0 0 1-.3-.08l-14.75-8.68a.58.58 0 0 1-.2-.8.56.56 0 0 1 .79-.2l14.75 8.67a.59.59 0 0 1 .21.8.57.57 0 0 1-.5.29Z"/><path fill="#e5edfb" d="m1041.59 789 42.62 172.78 163.13 64.59-9.9 76.38-204.92-33.64a63.45 63.45 0 0 1-50.52-46.84l-49.28-193.75a57.93 57.93 0 0 1 22.15-69.45 57.93 57.93 0 0 1 86.72 29.93Z"/><path fill="#ffcec8" d="M822.29 648 867 693.48l-6 79.81c-1.45.22-2.88.49-4.34.65-20 2.12-40.08-4.81-56.82-15.24l-68-52.85Z"/><path fill="#545ed7" d="M806.56 601.92c1.44-.47 53.66 83.37 53.66 83.37s-14.37 75.71-58.45 95.82L772.54 727Z"/><path fill="#ffcec8" d="m864.43 692.86 88.8-59.86 32 15-88.34 108.2c-17 13.82-29.89 18.13-48.8 17.36ZM554.27 1572.8l9.95 146.59 62.15-8.49 17.53-143.36-89.63 5.26z"/><path fill="#ff7867" d="M562.66 1696.36v40.58h118.08a33.1 33.1 0 0 0-23.35-31.63l-29-9s-7.8 13.79-29.31 14.16-36.42-14.11-36.42-14.11Z"/><path fill="#fff" d="M680 1731.58H562.66a1.7 1.7 0 0 1 0-3.39H680a1.7 1.7 0 0 1 0 3.39Z"/><path fill="#ffcec8" d="m831.49 1578.34 40.91 141.12 58.92-21.52-13.37-143.8-86.46 24.2z"/><path fill="#ff7867" d="m866 1697.29 8.63 39.65L990 1711.82a33.1 33.1 0 0 0-29.55-25.94l-30.24-2.58s-4.69 15.14-25.62 20.07-38.59-6.08-38.59-6.08Z"/><path fill="#fff" d="M873.11 1731.74a1.69 1.69 0 0 1-.36-3.35l114.61-25a1.69 1.69 0 1 1 .72 3.31l-114.61 25a1.47 1.47 0 0 1-.36.04Z"/><path fill="#464646" d="m737.21 540.64-12.58-5.27 1.48 10.16 11.1-4.89z"/><path fill="#ffcec8" d="M704.44 508.91s35.5 15.22 51.55-12.17 16.06-75.56 16.06-75.56l-90.43-42.38-25.35 105.51Z"/><path fill="#ffcec8" d="m656.27 484.31-19.51 45.17 61.34 40.75 32.24-25.78s-19.27-23.35 0-31.54c0 0-14.53 1.8-32-7.1Z"/><circle cx="656.27" cy="465.41" r="19.12" fill="#ffcec8"/><path fill="#e5edfb" d="M669 451.11s34.64-5.84 39.29-54c0 0 14 24.09 63.81 24.09v-5.53a30 30 0 0 0-10.5-23c-15.21-12.83-46.6-31.76-92.6-22.2 0 0-43.26 13.3-28.18 83.77-.05 0 8.75-14.32 28.18-3.13Z"/><path fill="#e5edfb" d="M664.78 378.76c-10.18 7.16-25.25 10.21-36 2.66a22.89 22.89 0 0 1-10.08-17c-1.61-15.17 5.63-29.41 18-37.95 14.79-10.17 35.74-8.71 49.9 1.9a25.14 25.14 0 0 1 7.68 8.61c4.28 8.59-.9 19.91-6.29 26.84-5.59 7.2-13.68 11.93-22.29 14.64a3.74 3.74 0 0 0-.92.3Z"/><path fill="#545ed7" d="M830.66 680.25c-5.6 44.35-43.91 87.09-43.91 87.09H530.86c-8.56-86.35 7.47-141.86 29.41-177.26a160.52 160.52 0 0 1 17-22.68c28.71-31.66 59.46-38 59.46-38l66.11 26.28L736.4 542l21.5 22c53.52 19.85 68.37 72.75 71.93 90.82.74 3.87 1 6.17 1 6.17a75.82 75.82 0 0 1-.17 19.26Z"/><path fill="#b8beff" d="M614.33 538.41s9.6 34.15 43.43 41 43.79-14.16 45.1-23.6l-66.08-26.31a98.93 98.93 0 0 0-22.45 8.91ZM702.86 555.78s10.48 26.73 36.71 22.15c0 0 14.16-3 18.35-14l-20.71-23.27ZM768.1 740.62a14.27 14.27 0 1 1-14.27-14.26 14.27 14.27 0 0 1 14.27 14.26Z"/><path fill="#ff9d5a" d="M964 1537.94c-54 46.78-148.25 48.17-148.25 48.17l-15.16-53.64-1-3.31-84.57-299.19-32.89 327.34-.39 3.52-1.86 18.72c-82.71 30.8-158.11 0-158.11 0s.39-7.47 0-30.67c-.05-2.17-.09-4.51-.18-7-.95-46.43-4.77-144.51-17.72-339.89-21-316 39.49-434.58 39.49-434.58h243.39L952 1485.82l.78 3.47Z"/><path fill="#ffcec8" d="M631.53 784.94c38.72 22.94 87 64.94 131.22 73.41 10.14 1.94 20.59 1.32 30.87.27C824.9 855.43 897 828.7 897 828.7s6.49-12.79-2.87-37.69l-101.2 2.56L724.36 716Z"/><path fill="#d4793b" d="M715.09 1232.05h-.3a2.1 2.1 0 0 1-1.79-2.39l42.83-295.08a2.08 2.08 0 0 1 .92-1.46L788 912.31a2.12 2.12 0 1 1 2.34 3.53l-30.5 20.25-42.69 294.14a2.12 2.12 0 0 1-2.06 1.82Z"/><path fill="#b8beff" d="M830.66 680.25a14.28 14.28 0 1 1-.83-25.54c.74 3.87 1 6.17 1 6.17a75.82 75.82 0 0 1-.17 19.37ZM765.52 612.61a14.27 14.27 0 1 1-14.26-14.26 14.26 14.26 0 0 1 14.26 14.26ZM584.29 579.69a14.26 14.26 0 0 1-24 10.43 160.52 160.52 0 0 1 17-22.68 14.17 14.17 0 0 1 7 12.25Z"/><path fill="#ff9d5a" d="m674 607.84-6.61 1.74c1.21-1.31 3.25-2.04 6.61-1.74Z"/><path fill="#545ed7" d="M731.76 708.31a344 344 0 0 1-32.67 36.53c-7.25 7-14.42 13.2-21.41 18.76-57.77 45.57-105.25 44.7-105.25 44.7-29.36-74.15-18.85-168.45-18.85-168.45l113.8-30.27a7 7 0 0 0-1.6 5.08 13.68 13.68 0 0 0 2.91 8Z"/><path fill="#3944c7" d="M727.61 715.66a2.12 2.12 0 0 1-1.65-3.44l3.14-4-62.1-84.3a16 16 0 0 1-3.29-9.22c-.06-3 .79-5.31 2.51-6.9s4.52-2.4 8-2.06a2.12 2.12 0 0 1-.4 4.22c-2.22-.22-3.82.11-4.73.95a4.82 4.82 0 0 0-1.15 3.72 11.89 11.89 0 0 0 2.47 6.78L733.47 707a2.13 2.13 0 0 1 0 2.56q-2.1 2.68-4.18 5.27a2.11 2.11 0 0 1-1.68.83ZM559.74 767.06a2.12 2.12 0 0 1-2.07-1.69c-13-62.62-6.27-125.14-6.21-125.77a2.15 2.15 0 0 1 2.34-1.87 2.12 2.12 0 0 1 1.88 2.34c-.07.62-6.72 62.5 6.14 124.44a2.15 2.15 0 0 1-2.08 2.55Z"/><path fill="#b8beff" d="M596.27 750.67A14.27 14.27 0 1 1 582 736.41a14.27 14.27 0 0 1 14.27 14.26ZM645.43 648.44a14.27 14.27 0 1 1-14.27-14.26 14.27 14.27 0 0 1 14.27 14.26ZM699.09 744.84c-7.25 7-14.42 13.2-21.41 18.76a14.24 14.24 0 0 1 11.25-23 14.34 14.34 0 0 1 10.16 4.24Z"/><path fill="#ffb1a8" d="M730.34 512.91s-15.28 2.39-40.91-11.19c0 0 14.56 18.07 33.34 18 0 0 1.54-4.46 7.57-6.81Z"/><path fill="#545ed7" d="M649.77 386.88a1.7 1.7 0 0 1-.46-3.33c.2-.06 20.43-5.89 31.8-15a1.7 1.7 0 0 1 2.12 2.65c-11.91 9.57-32.14 15.4-33 15.64a1.91 1.91 0 0 1-.46.04Z"/><path fill="#fff" d="m682.19 1557.27-.39 3.52c-6.12-2.09-10.16-7.21-13.85-11.82-4.69-5.86-9.12-11.38-16.94-11.38h-.57c-8.21.18-12.42 6-16.94 12.25-4.91 6.78-10 13.82-20.46 13.82h-.39c-10.73-.35-15.5-7.69-20.15-14.86-4.17-6.43-8.12-12.47-16.29-13s-13 4.78-18.07 10.47c-5.39 6.08-11.51 12.94-22.11 11.73-6.95-.92-11.12-4.57-14.2-9.13-.05-2.17-.09-4.51-.18-7 3.26 6.17 6.91 11.64 14.81 12.68 8.78 1 13.82-4.6 19.12-10.59s11-12.43 20.89-11.65 14.51 7.78 18.94 14.64c4.34 6.69 8.47 13 17.33 13.25 8.9.09 13.29-6 17.94-12.38 4.82-6.64 9.77-13.51 19.67-13.68s15.16 6.3 20.29 12.68c3.48 4.33 6.82 8.5 11.55 10.45ZM952.8 1489.29a15.2 15.2 0 0 0-5.95 1.13c-7.69 3-9.55 10-11.51 17.42-2.08 7.78-4.47 16.64-14.59 20.24-10.25 3.43-17.55-1.69-24.59-6.73-6.38-4.52-12.42-8.82-20.46-6.43s-10.77 9.08-13.51 16.25c-2.86 7.55-6.12 16.11-16.76 18.72-10.82 2.47-17.72-3.39-24.41-9-6.08-5.17-11.86-10-20.33-8.42h-.09l-1-3.31c.13 0 .3 0 .43-.08 10.12-1.91 16.77 3.73 23.19 9.16s12.25 10.34 21.33 8.3c8.86-2.17 11.56-9.17 14.38-16.59 2.91-7.65 5.91-15.55 15.77-18.33 9.64-2.83 16.63 2.12 23.41 7s12.9 9.16 21.46 6.25c8.38-3 10.29-10.21 12.33-17.85 2.13-7.91 4.3-16.07 13.64-19.72a17.88 17.88 0 0 1 6.43-1.39Z"/><path fill="#464646" d="M728.68 450.6c.18 3-1.22 5.49-3.12 5.6s-3.56-2.2-3.77-5.2 1.21-5.49 3.12-5.6 3.59 2.22 3.77 5.2ZM757.2 447.43c.18 3-1.21 5.49-3.12 5.61s-3.59-2.21-3.77-5.19 1.22-5.49 3.12-5.6 3.57 2.2 3.77 5.18Z"/><path fill="#e5edfb" d="M754.36 434.66c-4.83-1-9 .62-10.12-.5-1.27-1 3.07-6.23 10.73-5.08s10.82 8.3 9.35 9c-1.23.92-5.05-2.71-9.96-3.42ZM721.58 437.93c-4.7 1.51-7.52 5-9 4.59-1.57-.19-.43-6.93 6.79-9.73s13.51 1.83 12.6 3.19c-.67 1.37-5.77.13-10.39 1.95Z"/><path fill="#fff" d="M723.79 480.35A14.2 14.2 0 0 0 752 483.2Z"/><path fill="#ff8475" d="M741.17 473.83a1.55 1.55 0 0 1-.36-3.05c1.68-.41 3.71-1.42 3.91-2.15.06-.23-.19-.67-.67-1.13-4.35-4.24-5.7-16.33-5.84-17.7a1.54 1.54 0 1 1 3.07-.31c.35 3.4 1.91 12.87 4.92 15.79 1.72 1.68 1.76 3.19 1.5 4.17-.8 2.91-5.28 4.12-6.17 4.33a1.49 1.49 0 0 1-.36.05Z"/><path fill="#ffcec8" d="M978.3 781.14a4.06 4.06 0 0 1-3.08 4.06l-34.33 9.18 43 2.28a3.85 3.85 0 0 1 3.66 4.11 4 4 0 0 1-4.05 3.68h-.37a3.24 3.24 0 0 1 2.15 2.91 3.44 3.44 0 0 1-2.4 3.35c-13.72 1.52-29.15 3.39-42.84 4.92l29.48 10c1.74.64 2.6 1.52 2.27 3.35a2.83 2.83 0 0 1-.38 1.07 3.87 3.87 0 0 1-3.84 1.64l-74.12-3.53-10.68-33A155.56 155.56 0 0 1 898 784.39c9.86-6.3 30.39-27.44 30.39-27.44a8.27 8.27 0 0 1 1.38 10.58L922.5 784l51.36-6.51a3.92 3.92 0 0 1 4.44 3.65Z"/><path fill="#ff9c91" d="m983.17 805.23-42-.63a.78.78 0 0 1-.76-.78.84.84 0 0 1 .78-.76l42 .63a.78.78 0 0 1 .76.78.77.77 0 0 1-.78.76Z"/><path fill="#3944c7" d="M796.5 756.88a2.12 2.12 0 0 1-1.58-3.53c.49-.56 49.2-56.32 27.85-114.77a2.12 2.12 0 0 1 4-1.45c22.21 60.85-28.17 118.46-28.68 119a2.1 2.1 0 0 1-1.59.75Z"/><path fill="#ffcec8" d="M1005.92 580.24a3.22 3.22 0 0 1 .16 4L989.78 607l27.3-20.09a3 3 0 0 1 4.27.67 3.14 3.14 0 0 1-.62 4.26l-.22.2a2.54 2.54 0 0 1 2.76.69 2.71 2.71 0 0 1 .22 3.24c-7.58 7.77-16 16.61-23.59 24.38l22.94-8.62c1.37-.48 2.33-.38 3.05.9a2.51 2.51 0 0 1 .3.84 3 3 0 0 1-1.51 2.92l-43.1 36-30-17.4a120.89 120.89 0 0 1 3.84-14.19c2.85-8.75 8-30.37 8-30.37a6.51 6.51 0 0 1 6.12 5.74l3.77 13.63 28-29.6a3.09 3.09 0 0 1 4.61.04Z"/><path fill="#ff9c91" d="M994.67 613.18a.6.6 0 0 1-.38-1.07l25.85-20.59a.6.6 0 0 1 .85.1.59.59 0 0 1-.1.84l-25.84 20.59a.62.62 0 0 1-.38.13Z"/><path fill="#ff7867" d="M2030.12 860.61a26.13 26.13 0 0 1 26.13 26.13v75.32H2004v-75.32a26.13 26.13 0 0 1 26.12-26.13Z"/><path fill="#ff7867" d="M2098.16 805.88a41.91 41.91 0 0 1 41.91 41.91v114.27h-83.83V847.8a41.91 41.91 0 0 1 41.92-41.92Z"/><path fill="#464646" d="M2098.17 948.86a1 1 0 0 1-.94-1V828.22a.94.94 0 1 1 1.87 0v119.69a1 1 0 0 1-.93.95ZM2030.12 957.13a1 1 0 0 1-.94-.94v-79.6a.94.94 0 0 1 1.88 0v79.6a1 1 0 0 1-.94.94Z"/><path fill="#464646" d="M2098.17 900.9a.91.91 0 0 1-.67-.28 1 1 0 0 1 0-1.33l25.42-25.41a.92.92 0 0 1 1.32 0 .94.94 0 0 1 0 1.33l-25.41 25.41a.9.9 0 0 1-.66.28ZM2030.12 903.77a.9.9 0 0 1-.66-.28l-13.87-13.87a.94.94 0 0 1 0-1.33 1 1 0 0 1 1.33 0l13.87 13.87a1 1 0 0 1 0 1.33.94.94 0 0 1-.67.28Z"/><path fill="#ff9c5a" d="M2129.18 1037.28h-114.3a27.5 27.5 0 0 1-27.35-24.73l-8.5-84.31h186l-8.5 84.31a27.48 27.48 0 0 1-27.35 24.73Z"/><path fill="#ffc49d" d="m2162.22 956.19 2.81-27.95h-186l2.82 27.95h180.37z"/></svg>