<svg xmlns="http://www.w3.org/2000/svg" xmlns:xlink="http://www.w3.org/1999/xlink" width="1920" zoomAndPan="magnify" viewBox="0 0 1440 809.999993" height="1080" preserveAspectRatio="xMidYMid meet" version="1.0"><defs><clipPath id="2de260bb81"><path d="M 3 437 L 20 437 L 20 460 L 3 460 Z M 3 437 " clip-rule="nonzero"/></clipPath><clipPath id="4deae3d15e"><path d="M 5.324219 436.546875 L 20.449219 457.71875 L 17.398438 459.898438 L 2.273438 438.726562 Z M 5.324219 436.546875 " clip-rule="nonzero"/></clipPath><clipPath id="dab893975c"><path d="M 6.414062 438.074219 L 19.351562 456.179688 C 19.953125 457.023438 19.757812 458.195312 18.914062 458.796875 C 18.070312 459.398438 16.902344 459.203125 16.296875 458.359375 L 3.363281 440.253906 C 2.761719 439.410156 2.957031 438.238281 3.800781 437.636719 C 4.640625 437.035156 5.8125 437.230469 6.414062 438.074219 Z M 6.414062 438.074219 " clip-rule="nonzero"/></clipPath><clipPath id="21d44dcb6c"><path d="M 0 439 L 23 439 L 23 457 L 0 457 Z M 0 439 " clip-rule="nonzero"/></clipPath><clipPath id="391354052c"><path d="M -0.324219 454.214844 L 20.878906 439.140625 L 23.050781 442.195312 L 1.847656 457.273438 Z M -0.324219 454.214844 " clip-rule="nonzero"/></clipPath><clipPath id="7dbe8f74d1"><path d="M 1.203125 453.128906 L 19.339844 440.234375 C 20.183594 439.632812 21.355469 439.832031 21.953125 440.675781 C 22.554688 441.519531 22.355469 442.691406 21.511719 443.289062 L 3.378906 456.183594 C 2.535156 456.785156 1.363281 456.585938 0.761719 455.742188 C 0.164062 454.898438 0.359375 453.730469 1.203125 453.128906 Z M 1.203125 453.128906 " clip-rule="nonzero"/></clipPath><clipPath id="7acb659f28"><path d="M 40 616 L 57 616 L 57 639 L 40 639 Z M 40 616 " clip-rule="nonzero"/></clipPath><clipPath id="6e63d6751b"><path d="M 39.898438 637.550781 L 53.71875 615.507812 L 56.894531 617.5 L 43.074219 639.542969 Z M 39.898438 637.550781 " clip-rule="nonzero"/></clipPath><clipPath id="0c1e32ef47"><path d="M 40.894531 635.960938 L 52.714844 617.109375 C 53.265625 616.230469 54.421875 615.964844 55.300781 616.515625 C 56.175781 617.066406 56.441406 618.222656 55.890625 619.101562 L 44.070312 637.953125 C 43.519531 638.832031 42.363281 639.097656 41.484375 638.546875 C 40.609375 637.996094 40.34375 636.839844 40.894531 635.960938 Z M 40.894531 635.960938 " clip-rule="nonzero"/></clipPath><clipPath id="88e752396f"><path d="M 36 628 L 59 628 L 59 645 L 36 645 Z M 36 628 " clip-rule="nonzero"/></clipPath><clipPath id="d6ee08c60a"><path d="M 37.597656 627.847656 L 59.023438 642.597656 L 56.898438 645.6875 L 35.472656 630.933594 Z M 37.597656 627.847656 " clip-rule="nonzero"/></clipPath><clipPath id="2c9ee55e2a"><path d="M 39.140625 628.910156 L 57.46875 641.527344 C 58.324219 642.117188 58.539062 643.285156 57.949219 644.136719 C 57.363281 644.988281 56.195312 645.203125 55.34375 644.617188 L 37.015625 632 C 36.164062 631.410156 35.945312 630.242188 36.535156 629.390625 C 37.121094 628.539062 38.289062 628.320312 39.140625 628.910156 Z M 39.140625 628.910156 " clip-rule="nonzero"/></clipPath><clipPath id="1619c4ca9a"><path d="M 35 388 L 57 388 L 57 411 L 35 411 Z M 35 388 " clip-rule="nonzero"/></clipPath><clipPath id="8d0c75c9e7"><path d="M 27.695312 395.4375 L 45.910156 382.484375 L 57.808594 399.222656 L 39.59375 412.175781 Z M 27.695312 395.4375 " clip-rule="nonzero"/></clipPath><clipPath id="bd87f07373"><path d="M 40.679688 388.589844 L 53.988281 394.75 C 55.253906 395.335938 56.113281 396.554688 56.242188 397.945312 C 56.371094 399.335938 55.75 400.6875 54.609375 401.496094 L 42.839844 409.867188 C 41.699219 410.679688 40.21875 410.820312 38.945312 410.242188 C 37.675781 409.664062 36.808594 408.453125 36.671875 407.0625 L 35.222656 392.472656 C 35.085938 391.09375 35.695312 389.75 36.824219 388.949219 C 37.953125 388.144531 39.425781 388.007812 40.679688 388.589844 Z M 40.679688 388.589844 " clip-rule="nonzero"/></clipPath><clipPath id="362f20849d"><path d="M 35 388 L 57 388 L 57 411 L 35 411 Z M 35 388 " clip-rule="nonzero"/></clipPath><clipPath id="ddf732c815"><path d="M 23.167969 393.851562 L 45.78125 377.769531 L 60.125 397.941406 L 37.511719 414.023438 Z M 23.167969 393.851562 " clip-rule="nonzero"/></clipPath><clipPath id="bd80664767"><path d="M 27.324219 395.179688 L 45.824219 382.027344 L 57.96875 399.101562 L 39.46875 412.257812 Z M 27.324219 395.179688 " clip-rule="nonzero"/></clipPath><clipPath id="77024404c1"><path d="M 40.675781 388.59375 L 53.976562 394.75 C 55.246094 395.335938 56.101562 396.554688 56.230469 397.941406 C 56.359375 399.332031 55.738281 400.6875 54.601562 401.496094 L 42.832031 409.863281 C 41.695312 410.671875 40.210938 410.816406 38.941406 410.238281 C 37.671875 409.660156 36.804688 408.449219 36.667969 407.058594 L 35.21875 392.472656 C 35.082031 391.09375 35.691406 389.75 36.820312 388.949219 C 37.949219 388.148438 39.417969 388.011719 40.675781 388.59375 Z M 40.675781 388.59375 " clip-rule="nonzero"/></clipPath><clipPath id="55aa8b0bae"><path d="M 131 576 L 143 576 L 143 601 L 131 601 Z M 131 576 " clip-rule="nonzero"/></clipPath><clipPath id="8d84ebca0c"><path d="M 139.402344 601.414062 L 130.480469 576.976562 L 134.003906 575.691406 L 142.925781 600.128906 Z M 139.402344 601.414062 " clip-rule="nonzero"/></clipPath><clipPath id="8a9897a4d4"><path d="M 138.757812 599.652344 L 131.128906 578.75 C 130.773438 577.777344 131.273438 576.699219 132.246094 576.34375 C 133.21875 575.988281 134.292969 576.492188 134.648438 577.464844 L 142.28125 598.367188 C 142.636719 599.339844 142.136719 600.414062 141.164062 600.769531 C 140.191406 601.125 139.113281 600.625 138.757812 599.652344 Z M 138.757812 599.652344 " clip-rule="nonzero"/></clipPath><clipPath id="2e95a45315"><path d="M 124 582 L 150 582 L 150 595 L 124 595 Z M 124 582 " clip-rule="nonzero"/></clipPath><clipPath id="8b01a8fc35"><path d="M 149.5625 585.894531 L 125.105469 594.765625 L 123.828125 591.238281 L 148.285156 582.367188 Z M 149.5625 585.894531 " clip-rule="nonzero"/></clipPath><clipPath id="76fdc2994f"><path d="M 147.800781 586.535156 L 126.882812 594.121094 C 125.90625 594.472656 124.832031 593.96875 124.480469 592.996094 C 124.125 592.023438 124.628906 590.949219 125.601562 590.59375 L 146.523438 583.007812 C 147.496094 582.65625 148.570312 583.15625 148.921875 584.132812 C 149.277344 585.105469 148.773438 586.179688 147.800781 586.535156 Z M 147.800781 586.535156 " clip-rule="nonzero"/></clipPath><clipPath id="14092e393b"><path d="M 86 692 L 108 692 L 108 715 L 86 715 Z M 86 692 " clip-rule="nonzero"/></clipPath><clipPath id="6688365463"><path d="M 116.839844 712.925781 L 90.75 722.386719 L 82.3125 699.117188 L 108.402344 689.65625 Z M 116.839844 712.925781 " clip-rule="nonzero"/></clipPath><clipPath id="332f064d61"><path d="M 113.1875 710.535156 L 91.847656 718.273438 L 84.703125 698.574219 L 106.042969 690.835938 Z M 113.1875 710.535156 " clip-rule="nonzero"/></clipPath><clipPath id="557f5ea94f"><path d="M 98.5625 713.320312 L 87.386719 703.835938 C 86.320312 702.933594 85.816406 701.53125 86.066406 700.15625 C 86.3125 698.78125 87.273438 697.644531 88.585938 697.167969 L 102.160156 692.246094 C 103.472656 691.769531 104.9375 692.027344 106.007812 692.921875 C 107.078125 693.820312 107.59375 695.21875 107.355469 696.59375 L 104.855469 711.039062 C 104.621094 712.402344 103.671875 713.535156 102.371094 714.003906 C 101.070312 714.476562 99.617188 714.214844 98.5625 713.320312 Z M 98.5625 713.320312 " clip-rule="nonzero"/></clipPath><clipPath id="30872fd041"><path d="M 411 700 L 424 700 L 424 725 L 411 725 Z M 411 700 " clip-rule="nonzero"/></clipPath><clipPath id="25bae8951f"><path d="M 414.070312 699.9375 L 424.117188 723.933594 L 420.660156 725.382812 L 410.609375 701.386719 Z M 414.070312 699.9375 " clip-rule="nonzero"/></clipPath><clipPath id="ac4c7c7679"><path d="M 414.792969 701.667969 L 423.390625 722.195312 C 423.789062 723.148438 423.339844 724.246094 422.382812 724.648438 C 421.429688 725.046875 420.332031 724.597656 419.929688 723.640625 L 411.335938 703.117188 C 410.933594 702.160156 411.386719 701.0625 412.339844 700.664062 C 413.296875 700.261719 414.394531 700.714844 414.792969 701.667969 Z M 414.792969 701.667969 " clip-rule="nonzero"/></clipPath><clipPath id="c49554513b"><path d="M 405 706 L 430 706 L 430 719 L 405 719 Z M 405 706 " clip-rule="nonzero"/></clipPath><clipPath id="0ce9778b2a"><path d="M 404.640625 715.914062 L 428.660156 705.917969 L 430.101562 709.378906 L 406.082031 719.375 Z M 404.640625 715.914062 " clip-rule="nonzero"/></clipPath><clipPath id="5c31644b66"><path d="M 406.371094 715.191406 L 426.917969 706.640625 C 427.871094 706.246094 428.96875 706.695312 429.367188 707.652344 C 429.765625 708.609375 429.3125 709.707031 428.355469 710.105469 L 407.8125 718.65625 C 406.859375 719.050781 405.761719 718.601562 405.363281 717.644531 C 404.964844 716.6875 405.417969 715.589844 406.371094 715.191406 Z M 406.371094 715.191406 " clip-rule="nonzero"/></clipPath><clipPath id="9c869c5cca"><path d="M 328 686 L 354 686 L 354 712 L 328 712 Z M 328 686 " clip-rule="nonzero"/></clipPath><clipPath id="b80bf55e98"><path d="M 324.972656 692.703125 L 347.820312 683.195312 L 357.332031 706.042969 L 334.480469 715.554688 Z M 324.972656 692.703125 " clip-rule="nonzero"/></clipPath><clipPath id="ab73f853c5"><path d="M 324.972656 692.703125 L 347.917969 683.152344 L 357.46875 706.101562 L 334.523438 715.652344 Z M 324.972656 692.703125 " clip-rule="nonzero"/></clipPath><clipPath id="19b9813ab0"><path d="M 336.445312 687.929688 C 330.109375 690.566406 327.109375 697.839844 329.746094 704.179688 C 332.382812 710.515625 339.660156 713.511719 345.996094 710.875 C 352.332031 708.238281 355.332031 700.964844 352.695312 694.628906 C 350.058594 688.289062 342.78125 685.292969 336.445312 687.929688 Z M 336.445312 687.929688 " clip-rule="nonzero"/></clipPath><clipPath id="7a91dafad7"><path d="M 188 681 L 212 681 L 212 697 L 188 697 Z M 188 681 " clip-rule="nonzero"/></clipPath><clipPath id="b9146e94ae"><path d="M 189.914062 680.613281 L 212.34375 693.792969 L 210.445312 697.027344 L 188.015625 683.84375 Z M 189.914062 680.613281 " clip-rule="nonzero"/></clipPath><clipPath id="9c42ffec8f"><path d="M 191.53125 681.5625 L 210.714844 692.835938 C 211.609375 693.359375 211.90625 694.507812 211.382812 695.402344 C 210.859375 696.296875 209.707031 696.59375 208.816406 696.070312 L 189.632812 684.792969 C 188.738281 684.269531 188.441406 683.121094 188.964844 682.226562 C 189.488281 681.335938 190.636719 681.035156 191.53125 681.5625 Z M 191.53125 681.5625 " clip-rule="nonzero"/></clipPath><clipPath id="8391abf6c4"><path d="M 182 676 L 199 676 L 199 700 L 182 700 Z M 182 676 " clip-rule="nonzero"/></clipPath><clipPath id="45e3bcf6f7"><path d="M 199.546875 678.035156 L 185.417969 699.875 L 182.269531 697.839844 L 196.398438 675.996094 Z M 199.546875 678.035156 " clip-rule="nonzero"/></clipPath><clipPath id="16b870dc58"><path d="M 198.53125 679.609375 L 186.441406 698.292969 C 185.878906 699.160156 184.71875 699.410156 183.851562 698.847656 C 182.980469 698.285156 182.730469 697.125 183.292969 696.253906 L 195.382812 677.570312 C 195.945312 676.703125 197.105469 676.453125 197.972656 677.015625 C 198.84375 677.578125 199.09375 678.738281 198.53125 679.609375 Z M 198.53125 679.609375 " clip-rule="nonzero"/></clipPath><clipPath id="816ccce9e5"><path d="M 582 783 L 601 783 L 601 805 L 582 805 Z M 582 783 " clip-rule="nonzero"/></clipPath><clipPath id="3f7fe40618"><path d="M 582.164062 802.566406 L 598.429688 782.261719 L 601.359375 784.605469 L 585.089844 804.910156 Z M 582.164062 802.566406 " clip-rule="nonzero"/></clipPath><clipPath id="c4ba485385"><path d="M 583.335938 801.101562 L 597.25 783.734375 C 597.898438 782.929688 599.078125 782.796875 599.886719 783.445312 C 600.695312 784.09375 600.824219 785.273438 600.175781 786.082031 L 586.261719 803.445312 C 585.617188 804.253906 584.4375 804.386719 583.628906 803.738281 C 582.820312 803.089844 582.691406 801.910156 583.335938 801.101562 Z M 583.335938 801.101562 " clip-rule="nonzero"/></clipPath><clipPath id="2b45c73727"><path d="M 581 784 L 603 784 L 603 803 L 581 803 Z M 581 784 " clip-rule="nonzero"/></clipPath><clipPath id="c943caa1ec"><path d="M 600.703125 803.203125 L 580.433594 786.894531 L 582.785156 783.972656 L 603.054688 800.28125 Z M 600.703125 803.203125 " clip-rule="nonzero"/></clipPath><clipPath id="7848e31971"><path d="M 599.242188 802.027344 L 581.90625 788.078125 C 581.101562 787.429688 580.972656 786.246094 581.621094 785.441406 C 582.269531 784.632812 583.449219 784.507812 584.257812 785.15625 L 601.59375 799.105469 C 602.398438 799.757812 602.527344 800.9375 601.878906 801.742188 C 601.230469 802.550781 600.050781 802.675781 599.242188 802.027344 Z M 599.242188 802.027344 " clip-rule="nonzero"/></clipPath><clipPath id="6e8e9d2abb"><path d="M 526 763 L 548 763 L 548 787 L 526 787 Z M 526 763 " clip-rule="nonzero"/></clipPath><clipPath id="a04254e49d"><path d="M 536.234375 796.984375 L 514.613281 779.585938 L 530.132812 760.304688 L 551.75 777.703125 Z M 536.234375 796.984375 " clip-rule="nonzero"/></clipPath><clipPath id="da93157717"><path d="M 536.382812 792.621094 L 518.699219 778.390625 L 531.835938 762.066406 L 549.519531 776.300781 Z M 536.382812 792.621094 " clip-rule="nonzero"/></clipPath><clipPath id="36953253ff"><path d="M 526.414062 781.5625 L 528.730469 767.089844 C 528.949219 765.710938 529.886719 764.554688 531.191406 764.050781 C 532.492188 763.550781 533.964844 763.78125 535.050781 764.65625 L 546.300781 773.710938 C 547.390625 774.585938 547.929688 775.972656 547.71875 777.355469 C 547.507812 778.734375 546.578125 779.898438 545.277344 780.40625 L 531.632812 785.761719 C 530.34375 786.269531 528.882812 786.042969 527.804688 785.175781 C 526.726562 784.308594 526.199219 782.929688 526.414062 781.5625 Z M 526.414062 781.5625 " clip-rule="nonzero"/></clipPath><clipPath id="6951637f77"><path d="M 236 785 L 247 785 L 247 810 L 236 810 Z M 236 785 " clip-rule="nonzero"/></clipPath><clipPath id="4349f80ab9"><path d="M 246.683594 786.039062 L 239.4375 811.023438 L 235.835938 809.980469 L 243.082031 784.996094 Z M 246.683594 786.039062 " clip-rule="nonzero"/></clipPath><clipPath id="7789e07a22"><path d="M 246.160156 787.839844 L 239.964844 809.210938 C 239.675781 810.207031 238.636719 810.777344 237.640625 810.488281 C 236.648438 810.203125 236.074219 809.160156 236.363281 808.167969 L 242.558594 786.796875 C 242.847656 785.800781 243.886719 785.226562 244.882812 785.515625 C 245.878906 785.804688 246.449219 786.84375 246.160156 787.839844 Z M 246.160156 787.839844 " clip-rule="nonzero"/></clipPath><clipPath id="08e9c7d07a"><path d="M 42 494 L 53 494 L 53 520 L 42 520 Z M 42 494 " clip-rule="nonzero"/></clipPath><clipPath id="ff0fa924f6"><path d="M 52.558594 495.289062 L 45.316406 520.277344 L 41.714844 519.230469 L 48.957031 494.246094 Z M 52.558594 495.289062 " clip-rule="nonzero"/></clipPath><clipPath id="bd9ed3fc34"><path d="M 52.039062 497.089844 L 45.839844 518.460938 C 45.550781 519.457031 44.511719 520.027344 43.519531 519.742188 C 42.523438 519.453125 41.949219 518.414062 42.238281 517.417969 L 48.4375 496.046875 C 48.722656 495.050781 49.765625 494.480469 50.757812 494.765625 C 51.753906 495.054688 52.324219 496.09375 52.039062 497.089844 Z M 52.039062 497.089844 " clip-rule="nonzero"/></clipPath><clipPath id="5844e3607d"><path d="M 73 780 L 96 780 L 96 803 L 73 803 Z M 73 780 " clip-rule="nonzero"/></clipPath><clipPath id="62807e41df"><path d="M 83.699219 813.335938 L 62.082031 795.9375 L 77.597656 776.65625 L 99.21875 794.054688 Z M 83.699219 813.335938 " clip-rule="nonzero"/></clipPath><clipPath id="65d6fbe9d9"><path d="M 83.851562 808.976562 L 66.164062 794.742188 L 79.304688 778.417969 L 96.988281 792.652344 Z M 83.851562 808.976562 " clip-rule="nonzero"/></clipPath><clipPath id="7050613692"><path d="M 73.882812 797.917969 L 76.195312 783.441406 C 76.417969 782.0625 77.355469 780.90625 78.65625 780.40625 C 79.960938 779.902344 81.433594 780.132812 82.519531 781.007812 L 93.769531 790.0625 C 94.859375 790.9375 95.398438 792.324219 95.1875 793.707031 C 94.972656 795.085938 94.042969 796.25 92.746094 796.757812 L 79.101562 802.113281 C 77.8125 802.621094 76.351562 802.394531 75.273438 801.527344 C 74.195312 800.660156 73.664062 799.28125 73.882812 797.917969 Z M 73.882812 797.917969 " clip-rule="nonzero"/></clipPath><clipPath id="a256d30f5f"><path d="M 1407 565 L 1420 565 L 1420 590 L 1407 590 Z M 1407 565 " clip-rule="nonzero"/></clipPath><clipPath id="611b57e06c"><path d="M 1416.183594 590.097656 L 1406.914062 565.792969 L 1410.417969 564.453125 L 1419.6875 588.761719 Z M 1416.183594 590.097656 " clip-rule="nonzero"/></clipPath><clipPath id="199e298779"><path d="M 1415.515625 588.347656 L 1407.585938 567.554688 C 1407.21875 566.589844 1407.703125 565.503906 1408.667969 565.136719 C 1409.636719 564.765625 1410.71875 565.25 1411.089844 566.21875 L 1419.019531 587.011719 C 1419.386719 587.976562 1418.902344 589.0625 1417.9375 589.429688 C 1416.96875 589.800781 1415.882812 589.316406 1415.515625 588.347656 Z M 1415.515625 588.347656 " clip-rule="nonzero"/></clipPath><clipPath id="c9de807125"><path d="M 1401 571 L 1426 571 L 1426 584 L 1401 584 Z M 1401 571 " clip-rule="nonzero"/></clipPath><clipPath id="f73de05c6a"><path d="M 1426.121094 574.4375 L 1401.792969 583.652344 L 1400.464844 580.148438 L 1424.792969 570.929688 Z M 1426.121094 574.4375 " clip-rule="nonzero"/></clipPath><clipPath id="98b61e6083"><path d="M 1424.367188 575.101562 L 1403.558594 582.984375 C 1402.589844 583.351562 1401.507812 582.863281 1401.140625 581.894531 C 1400.773438 580.929688 1401.261719 579.84375 1402.230469 579.476562 L 1423.039062 571.59375 C 1424.007812 571.226562 1425.089844 571.714844 1425.457031 572.683594 C 1425.824219 573.652344 1425.335938 574.734375 1424.367188 575.101562 Z M 1424.367188 575.101562 " clip-rule="nonzero"/></clipPath><clipPath id="69d3c13d73"><path d="M 1412 384 L 1433 384 L 1433 404 L 1412 404 Z M 1412 384 " clip-rule="nonzero"/></clipPath><clipPath id="11d6143e74"><path d="M 1433.621094 386.890625 L 1414.671875 404.714844 L 1412.101562 401.984375 L 1431.050781 384.160156 Z M 1433.621094 386.890625 " clip-rule="nonzero"/></clipPath><clipPath id="e2cf40a9d2"><path d="M 1432.253906 388.175781 L 1416.046875 403.421875 C 1415.292969 404.132812 1414.105469 404.097656 1413.394531 403.339844 C 1412.6875 402.585938 1412.722656 401.402344 1413.476562 400.691406 L 1429.683594 385.445312 C 1430.4375 384.734375 1431.625 384.773438 1432.335938 385.527344 C 1433.042969 386.28125 1433.007812 387.46875 1432.253906 388.175781 Z M 1432.253906 388.175781 " clip-rule="nonzero"/></clipPath><clipPath id="9fc7555961"><path d="M 1417 375 L 1436 375 L 1436 397 L 1417 397 Z M 1417 375 " clip-rule="nonzero"/></clipPath><clipPath id="c0d225cffd"><path d="M 1433.386719 396.863281 L 1416.394531 377.164062 L 1419.234375 374.714844 L 1436.226562 394.410156 Z M 1433.386719 396.863281 " clip-rule="nonzero"/></clipPath><clipPath id="216ed1cc93"><path d="M 1432.164062 395.441406 L 1417.625 378.59375 C 1416.949219 377.808594 1417.039062 376.625 1417.820312 375.949219 C 1418.605469 375.273438 1419.789062 375.359375 1420.464844 376.144531 L 1435.003906 392.992188 C 1435.679688 393.777344 1435.59375 394.960938 1434.808594 395.636719 C 1434.023438 396.3125 1432.839844 396.226562 1432.164062 395.441406 Z M 1432.164062 395.441406 " clip-rule="nonzero"/></clipPath><clipPath id="7f2572e973"><path d="M 1357 606 L 1379 606 L 1379 629 L 1357 629 Z M 1357 606 " clip-rule="nonzero"/></clipPath><clipPath id="4876345253"><path d="M 1384.140625 624.199219 L 1363.238281 632.121094 L 1355.960938 612.914062 L 1376.863281 604.996094 Z M 1384.140625 624.199219 " clip-rule="nonzero"/></clipPath><clipPath id="9325930d12"><path d="M 1369.84375 627.539062 L 1358.53125 618.210938 C 1357.453125 617.320312 1356.929688 615.925781 1357.15625 614.550781 C 1357.382812 613.171875 1358.328125 612.019531 1359.632812 611.523438 L 1373.140625 606.40625 C 1374.449219 605.910156 1375.917969 606.148438 1377 607.03125 C 1378.085938 607.910156 1378.617188 609.300781 1378.398438 610.679688 L 1376.105469 625.164062 C 1375.890625 626.53125 1374.957031 627.679688 1373.664062 628.167969 C 1372.371094 628.660156 1370.910156 628.417969 1369.84375 627.539062 Z M 1369.84375 627.539062 " clip-rule="nonzero"/></clipPath><clipPath id="5a1e33fcc4"><path d="M 1357 606 L 1379 606 L 1379 629 L 1357 629 Z M 1357 606 " clip-rule="nonzero"/></clipPath><clipPath id="f31e402c01"><path d="M 1388.117188 626.878906 L 1362.167969 636.714844 L 1353.398438 613.570312 L 1379.347656 603.734375 Z M 1388.117188 626.878906 " clip-rule="nonzero"/></clipPath><clipPath id="4e08e82d3e"><path d="M 1384.429688 624.542969 L 1363.207031 632.585938 L 1355.78125 612.992188 L 1377.007812 604.949219 Z M 1384.429688 624.542969 " clip-rule="nonzero"/></clipPath><clipPath id="dacb90ca57"><path d="M 1369.847656 627.539062 L 1358.539062 618.210938 C 1357.460938 617.324219 1356.9375 615.929688 1357.164062 614.554688 C 1357.394531 613.175781 1358.335938 612.023438 1359.640625 611.527344 L 1373.144531 606.410156 C 1374.453125 605.917969 1375.921875 606.15625 1377.003906 607.035156 C 1378.085938 607.917969 1378.621094 609.308594 1378.402344 610.6875 L 1376.109375 625.164062 C 1375.894531 626.53125 1374.960938 627.675781 1373.667969 628.167969 C 1372.375 628.660156 1370.917969 628.417969 1369.847656 627.539062 Z M 1369.847656 627.539062 " clip-rule="nonzero"/></clipPath><clipPath id="2754912dfd"><path d="M 1340 147 L 1362 147 L 1362 170 L 1340 170 Z M 1340 147 " clip-rule="nonzero"/></clipPath><clipPath id="a330aad54c"><path d="M 1370.078125 168.796875 L 1343.414062 176.492188 L 1336.550781 152.714844 L 1363.214844 145.019531 Z M 1370.078125 168.796875 " clip-rule="nonzero"/></clipPath><clipPath id="974eee49ef"><path d="M 1366.59375 166.167969 L 1344.785156 172.464844 L 1338.972656 152.332031 L 1360.78125 146.039062 Z M 1366.59375 166.167969 " clip-rule="nonzero"/></clipPath><clipPath id="f16329a319"><path d="M 1351.816406 167.96875 L 1341.296875 157.757812 C 1340.296875 156.785156 1339.886719 155.355469 1340.226562 154 C 1340.566406 152.644531 1341.597656 151.574219 1342.941406 151.1875 L 1356.816406 147.183594 C 1358.15625 146.796875 1359.601562 147.152344 1360.609375 148.117188 C 1361.617188 149.082031 1362.035156 150.511719 1361.707031 151.867188 L 1358.25 166.113281 C 1357.921875 167.457031 1356.898438 168.523438 1355.570312 168.910156 C 1354.242188 169.292969 1352.808594 168.933594 1351.816406 167.96875 Z M 1351.816406 167.96875 " clip-rule="nonzero"/></clipPath><clipPath id="b7a66a638d"><path d="M 1324 396 L 1331 396 L 1331 423 L 1324 423 Z M 1324 396 " clip-rule="nonzero"/></clipPath><clipPath id="36c6f31e81"><path d="M 1328.207031 396.664062 L 1330.65625 422.5625 L 1326.921875 422.914062 L 1324.476562 397.015625 Z M 1328.207031 396.664062 " clip-rule="nonzero"/></clipPath><clipPath id="cb257bc1cd"><path d="M 1328.382812 398.53125 L 1330.476562 420.683594 C 1330.574219 421.714844 1329.816406 422.628906 1328.785156 422.726562 C 1327.753906 422.824219 1326.839844 422.066406 1326.742188 421.035156 L 1324.652344 398.882812 C 1324.554688 397.851562 1325.308594 396.9375 1326.339844 396.839844 C 1327.371094 396.742188 1328.289062 397.5 1328.382812 398.53125 Z M 1328.382812 398.53125 " clip-rule="nonzero"/></clipPath><clipPath id="e2bb6ae781"><path d="M 1314 406 L 1341 406 L 1341 413 L 1314 413 Z M 1314 406 " clip-rule="nonzero"/></clipPath><clipPath id="dd9367631e"><path d="M 1314.449219 409.105469 L 1340.355469 406.714844 L 1340.699219 410.449219 L 1314.792969 412.839844 Z M 1314.449219 409.105469 " clip-rule="nonzero"/></clipPath><clipPath id="205a799235"><path d="M 1316.316406 408.933594 L 1338.476562 406.886719 C 1339.507812 406.792969 1340.417969 407.550781 1340.515625 408.582031 C 1340.609375 409.613281 1339.851562 410.527344 1338.820312 410.621094 L 1316.660156 412.667969 C 1315.628906 412.761719 1314.71875 412.003906 1314.621094 410.972656 C 1314.527344 409.941406 1315.285156 409.027344 1316.316406 408.933594 Z M 1316.316406 408.933594 " clip-rule="nonzero"/></clipPath><clipPath id="d598c6e2ea"><path d="M 1382 297 L 1406 297 L 1406 319 L 1382 319 Z M 1382 297 " clip-rule="nonzero"/></clipPath><clipPath id="ac542d8d9f"><path d="M 1378.269531 294.488281 L 1405.902344 291.9375 L 1408.175781 316.585938 L 1380.542969 319.132812 Z M 1378.269531 294.488281 " clip-rule="nonzero"/></clipPath><clipPath id="93ad394a8a"><path d="M 1381.195312 297.726562 L 1403.800781 295.640625 L 1405.722656 316.503906 L 1383.121094 318.589844 Z M 1381.195312 297.726562 " clip-rule="nonzero"/></clipPath><clipPath id="05b803acc4"><path d="M 1396.050781 298.730469 L 1404.460938 310.738281 C 1405.261719 311.878906 1405.394531 313.363281 1404.808594 314.628906 C 1404.21875 315.898438 1403.003906 316.753906 1401.613281 316.882812 L 1387.234375 318.210938 C 1385.84375 318.339844 1384.488281 317.71875 1383.679688 316.578125 C 1382.871094 315.441406 1382.730469 313.960938 1383.308594 312.6875 L 1389.382812 299.347656 C 1389.957031 298.085938 1391.160156 297.230469 1392.539062 297.105469 C 1393.914062 296.976562 1395.253906 297.597656 1396.050781 298.730469 Z M 1396.050781 298.730469 " clip-rule="nonzero"/></clipPath><clipPath id="5f470c86ff"><path d="M 1084 205 L 1091 205 L 1091 232 L 1084 232 Z M 1084 205 " clip-rule="nonzero"/></clipPath><clipPath id="c9eab7e534"><path d="M 1087.425781 231.816406 L 1083.78125 206.058594 L 1087.492188 205.53125 L 1091.140625 231.292969 Z M 1087.425781 231.816406 " clip-rule="nonzero"/></clipPath><clipPath id="6218c1ce0b"><path d="M 1087.164062 229.960938 L 1084.046875 207.929688 C 1083.898438 206.902344 1084.613281 205.953125 1085.636719 205.808594 C 1086.664062 205.664062 1087.613281 206.375 1087.757812 207.402344 L 1090.878906 229.433594 C 1091.023438 230.460938 1090.308594 231.410156 1089.285156 231.554688 C 1088.257812 231.699219 1087.308594 230.984375 1087.164062 229.960938 Z M 1087.164062 229.960938 " clip-rule="nonzero"/></clipPath><clipPath id="90feac077a"><path d="M 1074 215 L 1101 215 L 1101 223 L 1074 223 Z M 1074 215 " clip-rule="nonzero"/></clipPath><clipPath id="98c2d23cd2"><path d="M 1100.59375 218.75 L 1074.824219 222.339844 L 1074.308594 218.625 L 1100.074219 215.035156 Z M 1100.59375 218.75 " clip-rule="nonzero"/></clipPath><clipPath id="15ec46dc96"><path d="M 1098.734375 219.007812 L 1076.695312 222.078125 C 1075.671875 222.222656 1074.722656 221.507812 1074.582031 220.480469 C 1074.4375 219.457031 1075.152344 218.507812 1076.179688 218.367188 L 1098.21875 215.292969 C 1099.242188 215.152344 1100.191406 215.867188 1100.332031 216.890625 C 1100.476562 217.917969 1099.761719 218.863281 1098.734375 219.007812 Z M 1098.734375 219.007812 " clip-rule="nonzero"/></clipPath><clipPath id="d0906ce89b"><path d="M 1145 238 L 1171 238 L 1171 264 L 1145 264 Z M 1145 238 " clip-rule="nonzero"/></clipPath><clipPath id="1cbb00d2dd"><path d="M 1171.800781 261.367188 L 1147.285156 264.785156 L 1143.871094 240.269531 L 1168.382812 236.855469 Z M 1171.800781 261.367188 " clip-rule="nonzero"/></clipPath><clipPath id="514f922b0e"><path d="M 1171.800781 261.367188 L 1147.183594 264.796875 L 1143.75 240.179688 L 1168.367188 236.75 Z M 1171.800781 261.367188 " clip-rule="nonzero"/></clipPath><clipPath id="a0edb6ca0c"><path d="M 1159.492188 263.082031 C 1166.289062 262.136719 1171.03125 255.855469 1170.082031 249.058594 C 1169.136719 242.261719 1162.859375 237.519531 1156.058594 238.464844 C 1149.261719 239.414062 1144.519531 245.691406 1145.464844 252.488281 C 1146.414062 259.289062 1152.691406 264.03125 1159.492188 263.082031 Z M 1159.492188 263.082031 " clip-rule="nonzero"/></clipPath><clipPath id="603b660135"><path d="M 1281 286 L 1302 286 L 1302 307 L 1281 307 Z M 1281 286 " clip-rule="nonzero"/></clipPath><clipPath id="e8b4a555ed"><path d="M 1299.390625 307.257812 L 1281.027344 288.828125 L 1283.683594 286.179688 L 1302.046875 304.609375 Z M 1299.390625 307.257812 " clip-rule="nonzero"/></clipPath><clipPath id="1e2ef726fb"><path d="M 1298.066406 305.929688 L 1282.359375 290.164062 C 1281.628906 289.433594 1281.632812 288.246094 1282.363281 287.515625 C 1283.097656 286.78125 1284.285156 286.785156 1285.015625 287.519531 L 1300.722656 303.28125 C 1301.453125 304.015625 1301.453125 305.203125 1300.71875 305.933594 C 1299.984375 306.664062 1298.796875 306.664062 1298.066406 305.929688 Z M 1298.066406 305.929688 " clip-rule="nonzero"/></clipPath><clipPath id="9810f06b99"><path d="M 1290 290 L 1311 290 L 1311 310 L 1290 310 Z M 1290 290 " clip-rule="nonzero"/></clipPath><clipPath id="175777a9da"><path d="M 1289.417969 307.3125 L 1308.617188 289.757812 L 1311.148438 292.527344 L 1291.949219 310.078125 Z M 1289.417969 307.3125 " clip-rule="nonzero"/></clipPath><clipPath id="8f4bef8675"><path d="M 1290.800781 306.046875 L 1307.222656 291.03125 C 1307.988281 290.332031 1309.171875 290.386719 1309.871094 291.152344 C 1310.570312 291.914062 1310.519531 293.101562 1309.753906 293.800781 L 1293.332031 308.816406 C 1292.566406 309.511719 1291.382812 309.460938 1290.683594 308.695312 C 1289.984375 307.933594 1290.035156 306.746094 1290.800781 306.046875 Z M 1290.800781 306.046875 " clip-rule="nonzero"/></clipPath><clipPath id="6d5724b9ad"><path d="M 1116 90 L 1138 90 L 1138 113 L 1116 113 Z M 1116 90 " clip-rule="nonzero"/></clipPath><clipPath id="931d9b1e69"><path d="M 1147.320312 110.835938 L 1121.367188 120.671875 L 1112.597656 97.527344 L 1138.550781 87.691406 Z M 1147.320312 110.835938 " clip-rule="nonzero"/></clipPath><clipPath id="4bf7c67c57"><path d="M 1143.632812 108.5 L 1122.40625 116.542969 L 1114.980469 96.949219 L 1136.207031 88.90625 Z M 1143.632812 108.5 " clip-rule="nonzero"/></clipPath><clipPath id="2fdcefd206"><path d="M 1129.050781 111.496094 L 1117.738281 102.167969 C 1116.660156 101.28125 1116.140625 99.886719 1116.367188 98.511719 C 1116.59375 97.132812 1117.535156 95.980469 1118.84375 95.484375 L 1132.347656 90.367188 C 1133.652344 89.875 1135.121094 90.113281 1136.207031 90.992188 C 1137.289062 91.875 1137.820312 93.265625 1137.601562 94.644531 L 1135.3125 109.121094 C 1135.09375 110.488281 1134.164062 111.632812 1132.867188 112.125 C 1131.574219 112.613281 1130.117188 112.375 1129.050781 111.496094 Z M 1129.050781 111.496094 " clip-rule="nonzero"/></clipPath><clipPath id="fbd4d06a18"><path d="M 1211 0 L 1235 0 L 1235 16 L 1211 16 Z M 1211 0 " clip-rule="nonzero"/></clipPath><clipPath id="43b33d16b9"><path d="M 1210.59375 12.378906 L 1233.5625 0.164062 L 1235.324219 3.472656 L 1212.355469 15.691406 Z M 1210.59375 12.378906 " clip-rule="nonzero"/></clipPath><clipPath id="fb6472b088"><path d="M 1212.25 11.5 L 1231.894531 1.050781 C 1232.808594 0.5625 1233.945312 0.910156 1234.429688 1.824219 C 1234.917969 2.738281 1234.570312 3.875 1233.65625 4.359375 L 1214.007812 14.808594 C 1213.09375 15.296875 1211.960938 14.949219 1211.472656 14.035156 C 1210.988281 13.121094 1211.335938 11.984375 1212.25 11.5 Z M 1212.25 11.5 " clip-rule="nonzero"/></clipPath><clipPath id="893f53bc3e"><path d="M 1215 0 L 1231 0 L 1231 20 L 1215 20 Z M 1215 0 " clip-rule="nonzero"/></clipPath><clipPath id="d698344520"><path d="M 1227.367188 20.296875 L 1215.203125 -2.699219 L 1218.515625 -4.453125 L 1230.683594 18.542969 Z M 1227.367188 20.296875 " clip-rule="nonzero"/></clipPath><clipPath id="2e92e18cb0"><path d="M 1226.492188 18.640625 L 1216.085938 -1.03125 C 1215.601562 -1.945312 1215.949219 -3.078125 1216.863281 -3.5625 C 1217.78125 -4.046875 1218.914062 -3.699219 1219.398438 -2.785156 L 1229.804688 16.886719 C 1230.289062 17.800781 1229.941406 18.933594 1229.023438 19.417969 C 1228.109375 19.902344 1226.976562 19.554688 1226.492188 18.640625 Z M 1226.492188 18.640625 " clip-rule="nonzero"/></clipPath><clipPath id="99026ca5dc"><path d="M 1230 70 L 1256 70 L 1256 96 L 1230 96 Z M 1230 70 " clip-rule="nonzero"/></clipPath><clipPath id="d299160630"><path d="M 1243.507812 100.1875 L 1225.304688 83.417969 L 1242.078125 65.214844 L 1260.277344 81.988281 Z M 1243.507812 100.1875 " clip-rule="nonzero"/></clipPath><clipPath id="8492570f96"><path d="M 1243.507812 100.1875 L 1225.226562 83.34375 L 1242.070312 65.066406 L 1260.351562 81.910156 Z M 1243.507812 100.1875 " clip-rule="nonzero"/></clipPath><clipPath id="72cd4dc358"><path d="M 1234.367188 91.765625 C 1239.414062 96.417969 1247.277344 96.097656 1251.929688 91.050781 C 1256.578125 86 1256.257812 78.140625 1251.210938 73.488281 C 1246.164062 68.835938 1238.300781 69.160156 1233.648438 74.207031 C 1229 79.253906 1229.320312 87.117188 1234.367188 91.765625 Z M 1234.367188 91.765625 " clip-rule="nonzero"/></clipPath><clipPath id="2da9a7290b"><path d="M 928 87 L 951 87 L 951 105 L 928 105 Z M 928 87 " clip-rule="nonzero"/></clipPath><clipPath id="27c964f06c"><path d="M 950.785156 89.980469 L 929.910156 105.503906 L 927.671875 102.496094 L 948.550781 86.972656 Z M 950.785156 89.980469 " clip-rule="nonzero"/></clipPath><clipPath id="94495460c3"><path d="M 949.28125 91.101562 L 931.425781 104.378906 C 930.59375 104.996094 929.421875 104.824219 928.800781 103.992188 C 928.183594 103.160156 928.355469 101.988281 929.1875 101.371094 L 947.042969 88.089844 C 947.875 87.472656 949.050781 87.644531 949.667969 88.476562 C 950.285156 89.308594 950.113281 90.484375 949.28125 91.101562 Z M 949.28125 91.101562 " clip-rule="nonzero"/></clipPath><clipPath id="910d4d30b4"><path d="M 930 85 L 948 85 L 948 108 L 930 108 Z M 930 85 " clip-rule="nonzero"/></clipPath><clipPath id="187325afdc"><path d="M 933.011719 84.671875 L 948.492188 105.582031 L 945.476562 107.8125 L 930 86.902344 Z M 933.011719 84.671875 " clip-rule="nonzero"/></clipPath><clipPath id="d4ea38749e"><path d="M 934.128906 86.175781 L 947.367188 104.0625 C 947.984375 104.894531 947.808594 106.070312 946.976562 106.683594 C 946.144531 107.300781 944.96875 107.125 944.355469 106.292969 L 931.113281 88.410156 C 930.5 87.578125 930.675781 86.402344 931.507812 85.785156 C 932.339844 85.171875 933.511719 85.34375 934.128906 86.175781 Z M 934.128906 86.175781 " clip-rule="nonzero"/></clipPath><clipPath id="aeb331ed68"><path d="M 977 118 L 1000 118 L 1000 141 L 977 141 Z M 977 118 " clip-rule="nonzero"/></clipPath><clipPath id="b7c542055d"><path d="M 993.8125 107 L 1010.324219 129.304688 L 990.429688 144.027344 L 973.917969 121.726562 Z M 993.8125 107 " clip-rule="nonzero"/></clipPath><clipPath id="e95525fd5b"><path d="M 992.5625 111.183594 L 1006.070312 129.425781 L 989.226562 141.894531 L 975.722656 123.648438 Z M 992.5625 111.183594 " clip-rule="nonzero"/></clipPath><clipPath id="f4674af692"><path d="M 999.40625 124.402344 L 993.503906 137.820312 C 992.941406 139.101562 991.742188 139.980469 990.355469 140.136719 C 988.96875 140.292969 987.601562 139.695312 986.769531 138.574219 L 978.179688 126.96875 C 977.347656 125.84375 977.179688 124.367188 977.730469 123.085938 C 978.285156 121.804688 979.480469 120.914062 980.867188 120.75 L 995.421875 119.023438 C 996.796875 118.859375 998.152344 119.445312 998.976562 120.558594 C 999.800781 121.667969 999.964844 123.136719 999.40625 124.402344 Z M 999.40625 124.402344 " clip-rule="nonzero"/></clipPath><clipPath id="a4363d8405"><path d="M 1271 169 L 1288 169 L 1288 193 L 1271 193 Z M 1271 169 " clip-rule="nonzero"/></clipPath><clipPath id="c73c4fbf28"><path d="M 1271.15625 190.894531 L 1284.492188 168.554688 L 1287.710938 170.476562 L 1274.375 192.816406 Z M 1271.15625 190.894531 " clip-rule="nonzero"/></clipPath><clipPath id="269031b4e8"><path d="M 1272.117188 189.285156 L 1283.523438 170.175781 C 1284.054688 169.285156 1285.203125 168.996094 1286.09375 169.527344 C 1286.984375 170.058594 1287.273438 171.207031 1286.742188 172.097656 L 1275.339844 191.207031 C 1274.808594 192.09375 1273.65625 192.386719 1272.765625 191.855469 C 1271.878906 191.324219 1271.585938 190.171875 1272.117188 189.285156 Z M 1272.117188 189.285156 " clip-rule="nonzero"/></clipPath><clipPath id="3b94c5da0e"><path d="M 1065 4 L 1077 4 L 1077 30 L 1065 30 Z M 1065 4 " clip-rule="nonzero"/></clipPath><clipPath id="0cd7b6a1a6"><path d="M 1077.394531 5.046875 L 1069.011719 29.679688 L 1065.464844 28.46875 L 1073.84375 3.839844 Z M 1077.394531 5.046875 " clip-rule="nonzero"/></clipPath><clipPath id="3bcde8abc1"><path d="M 1076.789062 6.824219 L 1069.621094 27.890625 C 1069.289062 28.871094 1068.222656 29.394531 1067.242188 29.0625 C 1066.261719 28.726562 1065.738281 27.664062 1066.070312 26.683594 L 1073.238281 5.617188 C 1073.574219 4.636719 1074.636719 4.109375 1075.617188 4.445312 C 1076.597656 4.777344 1077.121094 5.84375 1076.789062 6.824219 Z M 1076.789062 6.824219 " clip-rule="nonzero"/></clipPath><clipPath id="f74f1f5193"><path d="M 1058 1 L 1083 1 L 1083 14 L 1058 14 Z M 1058 1 " clip-rule="nonzero"/></clipPath><clipPath id="03da855090"><path d="M 1081.863281 13.964844 L 1057.617188 4.535156 L 1058.976562 1.039062 L 1083.222656 10.46875 Z M 1081.863281 13.964844 " clip-rule="nonzero"/></clipPath><clipPath id="ab44eb325a"><path d="M 1080.117188 13.285156 L 1059.375 5.21875 C 1058.410156 4.84375 1057.933594 3.757812 1058.308594 2.792969 C 1058.683594 1.828125 1059.769531 1.347656 1060.734375 1.722656 L 1081.476562 9.789062 C 1082.441406 10.164062 1082.917969 11.25 1082.542969 12.214844 C 1082.167969 13.179688 1081.082031 13.660156 1080.117188 13.285156 Z M 1080.117188 13.285156 " clip-rule="nonzero"/></clipPath><clipPath id="5d026c3d6b"><path d="M 1386 499 L 1402 499 L 1402 523 L 1386 523 Z M 1386 499 " clip-rule="nonzero"/></clipPath><clipPath id="b3b07b0057"><path d="M 1385.359375 521.3125 L 1398.691406 498.976562 L 1401.914062 500.898438 L 1388.578125 523.234375 Z M 1385.359375 521.3125 " clip-rule="nonzero"/></clipPath><clipPath id="a7cfe546f3"><path d="M 1386.320312 519.703125 L 1397.722656 500.597656 C 1398.253906 499.707031 1399.40625 499.417969 1400.296875 499.949219 C 1401.183594 500.476562 1401.476562 501.628906 1400.945312 502.519531 L 1389.539062 521.625 C 1389.007812 522.515625 1387.859375 522.804688 1386.96875 522.273438 C 1386.078125 521.742188 1385.789062 520.59375 1386.320312 519.703125 Z M 1386.320312 519.703125 " clip-rule="nonzero"/></clipPath><clipPath id="41df9520ac"><path d="M 1419 217 L 1440 217 L 1440 239 L 1419 239 Z M 1419 217 " clip-rule="nonzero"/></clipPath><clipPath id="5fcf5af300"><path d="M 1435.746094 205.734375 L 1452.253906 228.039062 L 1432.363281 242.765625 L 1415.851562 220.460938 Z M 1435.746094 205.734375 " clip-rule="nonzero"/></clipPath><clipPath id="785e2bb778"><path d="M 1434.496094 209.917969 L 1448 228.160156 L 1431.160156 240.628906 L 1417.65625 222.382812 Z M 1434.496094 209.917969 " clip-rule="nonzero"/></clipPath><clipPath id="d264332aa1"><path d="M 1441.339844 223.140625 L 1435.4375 236.558594 C 1434.875 237.835938 1433.675781 238.714844 1432.285156 238.871094 C 1430.898438 239.027344 1429.535156 238.433594 1428.703125 237.308594 L 1420.113281 225.703125 C 1419.28125 224.582031 1419.109375 223.101562 1419.664062 221.820312 C 1420.21875 220.539062 1421.410156 219.648438 1422.796875 219.484375 L 1437.355469 217.757812 C 1438.730469 217.59375 1440.085938 218.179688 1440.910156 219.292969 C 1441.730469 220.402344 1441.894531 221.871094 1441.339844 223.140625 Z M 1441.339844 223.140625 " clip-rule="nonzero"/></clipPath><clipPath id="a7de64cf15"><path d="M 1319 63 L 1345 63 L 1345 89 L 1319 89 Z M 1319 63 " clip-rule="nonzero"/></clipPath><clipPath id="efd46097b0"><path d="M 1345.671875 87.003906 L 1321.160156 90.421875 L 1317.742188 65.90625 L 1342.257812 62.492188 Z M 1345.671875 87.003906 " clip-rule="nonzero"/></clipPath><clipPath id="a0f9fe258f"><path d="M 1345.671875 87.003906 L 1321.054688 90.433594 L 1317.625 65.816406 L 1342.242188 62.386719 Z M 1345.671875 87.003906 " clip-rule="nonzero"/></clipPath><clipPath id="12bbcbb421"><path d="M 1333.363281 88.71875 C 1340.164062 87.773438 1344.90625 81.492188 1343.957031 74.695312 C 1343.011719 67.898438 1336.730469 63.15625 1329.933594 64.101562 C 1323.136719 65.050781 1318.394531 71.328125 1319.339844 78.125 C 1320.289062 84.925781 1326.566406 89.667969 1333.363281 88.71875 Z M 1333.363281 88.71875 " clip-rule="nonzero"/></clipPath><clipPath id="0f380c088a"><path d="M 1416 149 L 1440 149 L 1440 158 L 1416 158 Z M 1416 149 " clip-rule="nonzero"/></clipPath><clipPath id="4299098ace"><path d="M 1442.109375 157.824219 L 1416.601562 152.699219 L 1417.339844 149.023438 L 1442.847656 154.148438 Z M 1442.109375 157.824219 " clip-rule="nonzero"/></clipPath><clipPath id="0e5376046d"><path d="M 1440.269531 157.453125 L 1418.453125 153.070312 C 1417.4375 152.867188 1416.78125 151.878906 1416.984375 150.863281 C 1417.1875 149.847656 1418.175781 149.191406 1419.191406 149.394531 L 1441.007812 153.777344 C 1442.023438 153.980469 1442.683594 154.96875 1442.476562 155.984375 C 1442.273438 157 1441.285156 157.660156 1440.269531 157.453125 Z M 1440.269531 157.453125 " clip-rule="nonzero"/></clipPath><clipPath id="8f75e62ba5"><path d="M 983 51 L 1006 51 L 1006 74 L 983 74 Z M 983 51 " clip-rule="nonzero"/></clipPath><clipPath id="e7d1ef9624"><path d="M 991.707031 85.203125 L 972.414062 65.253906 L 990.207031 48.046875 L 1009.496094 67.996094 Z M 991.707031 85.203125 " clip-rule="nonzero"/></clipPath><clipPath id="29a360efcc"><path d="M 992.394531 80.890625 L 976.617188 64.574219 L 991.679688 50.007812 L 1007.457031 66.324219 Z M 992.394531 80.890625 " clip-rule="nonzero"/></clipPath><clipPath id="bc015789ba"><path d="M 983.878906 68.679688 L 987.972656 54.605469 C 988.363281 53.265625 989.4375 52.230469 990.792969 51.898438 C 992.148438 51.5625 993.578125 51.972656 994.550781 52.976562 L 1004.585938 63.355469 C 1005.558594 64.359375 1005.921875 65.804688 1005.539062 67.148438 C 1005.160156 68.492188 1004.09375 69.53125 1002.738281 69.875 L 988.535156 73.492188 C 987.195312 73.835938 985.773438 73.433594 984.808594 72.4375 C 983.847656 71.441406 983.492188 70.007812 983.878906 68.679688 Z M 983.878906 68.679688 " clip-rule="nonzero"/></clipPath><clipPath id="37daaed21a"><path d="M 824 56 L 847 56 L 847 77 L 824 77 Z M 824 56 " clip-rule="nonzero"/></clipPath><clipPath id="2cf82027ce"><path d="M 841.746094 44 L 856.941406 67.21875 L 836.234375 80.773438 L 821.035156 57.554688 Z M 841.746094 44 " clip-rule="nonzero"/></clipPath><clipPath id="988cbd2c1e"><path d="M 840.257812 48.105469 L 852.691406 67.097656 L 835.160156 78.574219 L 822.726562 59.582031 Z M 840.257812 48.105469 " clip-rule="nonzero"/></clipPath><clipPath id="1d32420c2a"><path d="M 846.328125 61.699219 L 839.660156 74.753906 C 839.027344 75.996094 837.777344 76.808594 836.382812 76.882812 C 834.992188 76.957031 833.660156 76.285156 832.898438 75.117188 L 824.988281 63.035156 C 824.222656 61.867188 824.136719 60.378906 824.765625 59.132812 C 825.390625 57.886719 826.632812 57.066406 828.027344 56.980469 L 842.660156 56.097656 C 844.039062 56.011719 845.359375 56.675781 846.117188 57.832031 C 846.875 58.992188 846.957031 60.464844 846.328125 61.699219 Z M 846.328125 61.699219 " clip-rule="nonzero"/></clipPath><clipPath id="987db164d6"><path d="M 925 8 L 952 8 L 952 14 L 925 14 Z M 925 8 " clip-rule="nonzero"/></clipPath><clipPath id="9e035bebfa"><path d="M 925.839844 8.164062 L 951.824219 9.476562 L 951.632812 13.222656 L 925.652344 11.910156 Z M 925.839844 8.164062 " clip-rule="nonzero"/></clipPath><clipPath id="8f1dced10f"><path d="M 927.714844 8.257812 L 949.9375 9.382812 C 950.972656 9.433594 951.769531 10.316406 951.714844 11.351562 C 951.664062 12.382812 950.78125 13.179688 949.75 13.128906 L 927.523438 12.003906 C 926.488281 11.953125 925.695312 11.070312 925.746094 10.039062 C 925.796875 9.003906 926.679688 8.207031 927.714844 8.257812 Z M 927.714844 8.257812 " clip-rule="nonzero"/></clipPath><clipPath id="e72e7ae987"><path d="M 40 227 L 62 227 L 62 250 L 40 250 Z M 40 227 " clip-rule="nonzero"/></clipPath><clipPath id="ca438e2cc6"><path d="M 50.359375 260.800781 L 28.742188 243.402344 L 44.257812 224.121094 L 65.878906 241.519531 Z M 50.359375 260.800781 " clip-rule="nonzero"/></clipPath><clipPath id="b4aa004a55"><path d="M 50.507812 256.4375 L 32.824219 242.203125 L 45.960938 225.882812 L 63.644531 240.113281 Z M 50.507812 256.4375 " clip-rule="nonzero"/></clipPath><clipPath id="ddb1c62ed3"><path d="M 40.542969 245.378906 L 42.855469 230.902344 C 43.078125 229.523438 44.015625 228.367188 45.316406 227.867188 C 46.621094 227.363281 48.089844 227.59375 49.179688 228.46875 L 60.429688 237.523438 C 61.515625 238.398438 62.054688 239.789062 61.84375 241.167969 C 61.632812 242.546875 60.703125 243.710938 59.40625 244.21875 L 45.757812 249.574219 C 44.472656 250.082031 43.011719 249.859375 41.933594 248.992188 C 40.855469 248.121094 40.324219 246.746094 40.542969 245.378906 Z M 40.542969 245.378906 " clip-rule="nonzero"/></clipPath><clipPath id="12cee5f988"><path d="M 699 16 L 706 16 L 706 43 L 699 43 Z M 699 16 " clip-rule="nonzero"/></clipPath><clipPath id="a0efb9d958"><path d="M 701.597656 42.78125 L 698.964844 16.898438 L 702.695312 16.519531 L 705.328125 42.398438 Z M 701.597656 42.78125 " clip-rule="nonzero"/></clipPath><clipPath id="ad02d2d215"><path d="M 701.410156 40.914062 L 699.15625 18.777344 C 699.050781 17.746094 699.800781 16.824219 700.832031 16.722656 C 701.863281 16.617188 702.78125 17.367188 702.886719 18.398438 L 705.140625 40.535156 C 705.246094 41.566406 704.496094 42.484375 703.464844 42.589844 C 702.433594 42.695312 701.511719 41.945312 701.410156 40.914062 Z M 701.410156 40.914062 " clip-rule="nonzero"/></clipPath><clipPath id="d4f5497e4e"><path d="M 693 35 L 720 35 L 720 41 L 693 41 Z M 693 35 " clip-rule="nonzero"/></clipPath><clipPath id="0859bd85a9"><path d="M 693.824219 36.535156 L 719.792969 35.015625 L 720.011719 38.757812 L 694.042969 40.277344 Z M 693.824219 36.535156 " clip-rule="nonzero"/></clipPath><clipPath id="6c432571a8"><path d="M 695.695312 36.425781 L 717.910156 35.125 C 718.941406 35.066406 719.828125 35.855469 719.890625 36.886719 C 719.949219 37.921875 719.160156 38.808594 718.128906 38.867188 L 695.914062 40.167969 C 694.878906 40.230469 693.992188 39.441406 693.933594 38.40625 C 693.871094 37.371094 694.660156 36.484375 695.695312 36.425781 Z M 695.695312 36.425781 " clip-rule="nonzero"/></clipPath></defs><rect x="-144" width="1728" fill="#ffffff" y="-80.999999" height="971.999992" fill-opacity="1"/><rect x="-144" width="1728" fill="#ffffff" y="-80.999999" height="971.999992" fill-opacity="1"/><g clip-path="url(#2de260bb81)"><g clip-path="url(#4deae3d15e)"><g clip-path="url(#dab893975c)"><path fill="#f8e1a7" d="M 5.324219 436.546875 L 20.4375 457.703125 L 17.386719 459.882812 L 2.273438 438.726562 Z M 5.324219 436.546875 " fill-opacity="1" fill-rule="nonzero"/></g></g></g><g clip-path="url(#21d44dcb6c)"><g clip-path="url(#391354052c)"><g clip-path="url(#7dbe8f74d1)"><path fill="#f8e1a7" d="M -0.324219 454.214844 L 20.867188 439.148438 L 23.039062 442.203125 L 1.847656 457.273438 Z M -0.324219 454.214844 " fill-opacity="1" fill-rule="nonzero"/></g></g></g><g clip-path="url(#7acb659f28)"><g clip-path="url(#6e63d6751b)"><g clip-path="url(#0c1e32ef47)"><path fill="#aae8bf" d="M 39.898438 637.550781 L 53.710938 615.519531 L 56.886719 617.511719 L 43.074219 639.542969 Z M 39.898438 637.550781 " fill-opacity="1" fill-rule="nonzero"/></g></g></g><g clip-path="url(#88e752396f)"><g clip-path="url(#d6ee08c60a)"><g clip-path="url(#2c9ee55e2a)"><path fill="#aae8bf" d="M 37.597656 627.847656 L 59.011719 642.589844 L 56.886719 645.679688 L 35.472656 630.933594 Z M 37.597656 627.847656 " fill-opacity="1" fill-rule="nonzero"/></g></g></g><g clip-path="url(#1619c4ca9a)"><g clip-path="url(#8d0c75c9e7)"><g clip-path="url(#bd87f07373)"><path fill="#ffffff" d="M 23.167969 393.851562 L 45.976562 377.632812 L 60.144531 397.5625 L 37.335938 413.78125 Z M 23.167969 393.851562 " fill-opacity="1" fill-rule="nonzero"/></g></g></g><g clip-path="url(#362f20849d)"><g clip-path="url(#ddf732c815)"><g clip-path="url(#bd80664767)"><g clip-path="url(#77024404c1)"><path stroke-linecap="butt" transform="matrix(0.611227, -0.434627, 0.434627, 0.611227, 23.16717, 393.852363)" fill="none" stroke-linejoin="miter" d="M 23.088502 7.814245 L 32.784731 24.780917 C 33.711501 26.398542 33.699383 28.383864 32.767979 29.990312 C 31.833557 31.601005 30.111328 32.593992 28.251363 32.594322 L 8.997193 32.592358 C 7.137227 32.592688 5.412591 31.602806 4.479785 29.99367 C 3.546978 28.384534 3.540325 26.398647 4.466259 24.781918 L 14.161628 7.812679 C 15.078506 6.208684 16.778946 5.219376 18.624386 5.221498 C 20.469826 5.223621 22.171448 6.209919 23.088502 7.814245 Z M 23.088502 7.814245 " stroke="#aae8bf" stroke-width="6" stroke-opacity="1" stroke-miterlimit="4"/></g></g></g></g><g clip-path="url(#55aa8b0bae)"><g clip-path="url(#8d84ebca0c)"><g clip-path="url(#8a9897a4d4)"><path fill="#a4e2ee" d="M 139.402344 601.414062 L 130.484375 576.988281 L 134.007812 575.703125 L 142.925781 600.128906 Z M 139.402344 601.414062 " fill-opacity="1" fill-rule="nonzero"/></g></g></g><g clip-path="url(#2e95a45315)"><g clip-path="url(#8b01a8fc35)"><g clip-path="url(#76fdc2994f)"><path fill="#a4e2ee" d="M 149.5625 585.894531 L 125.121094 594.757812 L 123.839844 591.234375 L 148.285156 582.367188 Z M 149.5625 585.894531 " fill-opacity="1" fill-rule="nonzero"/></g></g></g><g clip-path="url(#14092e393b)"><g clip-path="url(#6688365463)"><g clip-path="url(#332f064d61)"><g clip-path="url(#557f5ea94f)"><path stroke-linecap="butt" transform="matrix(-0.705065, 0.255703, -0.255703, -0.705065, 116.838684, 712.924664)" fill="none" stroke-linejoin="miter" d="M 23.088109 7.812107 L 32.784944 24.780595 C 33.711439 26.396406 33.705579 28.383238 32.767166 29.993084 C 31.833649 31.604706 30.112431 32.592699 28.250643 32.593406 L 8.998663 32.592121 C 7.136875 32.592828 5.417966 31.603782 4.483023 29.995988 C 3.549855 28.383297 3.539251 26.396034 4.462975 24.780861 L 14.163181 7.810863 C 15.076682 6.208603 16.781435 5.22018 18.624983 5.223938 C 20.470306 5.2228 22.17275 6.211416 23.088109 7.812107 Z M 23.088109 7.812107 " stroke="#b2cdfc" stroke-width="6" stroke-opacity="1" stroke-miterlimit="4"/></g></g></g></g><g clip-path="url(#30872fd041)"><g clip-path="url(#25bae8951f)"><g clip-path="url(#ac4c7c7679)"><path fill="#b2cdfc" d="M 414.070312 699.9375 L 424.113281 723.921875 L 420.652344 725.371094 L 410.609375 701.386719 Z M 414.070312 699.9375 " fill-opacity="1" fill-rule="nonzero"/></g></g></g><g clip-path="url(#c49554513b)"><g clip-path="url(#0ce9778b2a)"><g clip-path="url(#5c31644b66)"><path fill="#b2cdfc" d="M 404.640625 715.914062 L 428.644531 705.921875 L 430.085938 709.382812 L 406.082031 719.375 Z M 404.640625 715.914062 " fill-opacity="1" fill-rule="nonzero"/></g></g></g><g clip-path="url(#9c869c5cca)"><g clip-path="url(#b80bf55e98)"><g clip-path="url(#ab73f853c5)"><g clip-path="url(#19b9813ab0)"><path stroke-linecap="butt" transform="matrix(0.692421, -0.28819, 0.28819, 0.692421, 324.971591, 692.704449)" fill="none" stroke-linejoin="miter" d="M 16.570101 0.000835383 C 7.419859 0.000415268 0.000489389 7.416785 -0.00193205 16.571835 C -0.00235216 25.722077 7.418827 33.143448 16.571069 33.13906 C 25.721311 33.13948 33.140681 25.72311 33.141101 16.572868 C 33.143522 7.417818 25.720342 0.0012555 16.570101 0.000835383 Z M 16.570101 0.000835383 " stroke="#f9b6b5" stroke-width="6" stroke-opacity="1" stroke-miterlimit="4"/></g></g></g></g><g clip-path="url(#7a91dafad7)"><g clip-path="url(#b9146e94ae)"><g clip-path="url(#9c42ffec8f)"><path fill="#f9b6b5" d="M 189.914062 680.613281 L 212.332031 693.785156 L 210.429688 697.019531 L 188.015625 683.84375 Z M 189.914062 680.613281 " fill-opacity="1" fill-rule="nonzero"/></g></g></g><g clip-path="url(#8391abf6c4)"><g clip-path="url(#45e3bcf6f7)"><g clip-path="url(#16b870dc58)"><path fill="#f9b6b5" d="M 199.546875 678.035156 L 185.425781 699.863281 L 182.277344 697.828125 L 196.398438 675.996094 Z M 199.546875 678.035156 " fill-opacity="1" fill-rule="nonzero"/></g></g></g><g clip-path="url(#816ccce9e5)"><g clip-path="url(#3f7fe40618)"><g clip-path="url(#c4ba485385)"><path fill="#a4e2ee" d="M 582.164062 802.566406 L 598.421875 782.273438 L 601.347656 784.617188 L 585.089844 804.910156 Z M 582.164062 802.566406 " fill-opacity="1" fill-rule="nonzero"/></g></g></g><g clip-path="url(#2b45c73727)"><g clip-path="url(#c943caa1ec)"><g clip-path="url(#7848e31971)"><path fill="#a4e2ee" d="M 600.703125 803.203125 L 580.445312 786.902344 L 582.796875 783.980469 L 603.054688 800.28125 Z M 600.703125 803.203125 " fill-opacity="1" fill-rule="nonzero"/></g></g></g><g clip-path="url(#6e8e9d2abb)"><g clip-path="url(#a04254e49d)"><g clip-path="url(#da93157717)"><g clip-path="url(#36953253ff)"><path stroke-linecap="butt" transform="matrix(-0.584287, -0.470222, 0.470222, -0.584287, 536.233155, 796.98538)" fill="none" stroke-linejoin="miter" d="M 23.092177 7.811956 L 32.784484 24.781567 C 33.709959 26.396745 33.702717 28.381483 32.768737 29.995561 C 31.83555 31.602317 30.113194 32.59399 28.253739 32.59289 L 8.99873 32.591947 C 7.135218 32.594113 5.416048 31.604314 4.479191 29.991609 C 3.545601 28.382962 3.538198 26.39664 4.464854 24.781769 L 14.160954 7.812713 C 15.075438 6.207639 16.782355 5.221704 18.627164 5.22122 C 20.471973 5.220735 22.17244 6.212216 23.092177 7.811956 Z M 23.092177 7.811956 " stroke="#a4e2ee" stroke-width="6" stroke-opacity="1" stroke-miterlimit="4"/></g></g></g></g><g clip-path="url(#6951637f77)"><g clip-path="url(#4349f80ab9)"><g clip-path="url(#7789e07a22)"><path fill="#a4e2ee" d="M 246.683594 786.039062 L 239.445312 811.011719 L 235.839844 809.96875 L 243.082031 784.996094 Z M 246.683594 786.039062 " fill-opacity="1" fill-rule="nonzero"/></g></g></g><g clip-path="url(#08e9c7d07a)"><g clip-path="url(#ff0fa924f6)"><g clip-path="url(#bd9ed3fc34)"><path fill="#b2cdfc" d="M 52.558594 495.289062 L 45.320312 520.261719 L 41.71875 519.21875 L 48.957031 494.246094 Z M 52.558594 495.289062 " fill-opacity="1" fill-rule="nonzero"/></g></g></g><g clip-path="url(#5844e3607d)"><g clip-path="url(#62807e41df)"><g clip-path="url(#65d6fbe9d9)"><g clip-path="url(#7050613692)"><path stroke-linecap="butt" transform="matrix(-0.584287, -0.470222, 0.470222, -0.584287, 83.700669, 813.337539)" fill="none" stroke-linejoin="miter" d="M 23.088126 7.809551 L 32.787756 24.779955 C 33.709174 26.398398 33.701932 28.383136 32.768744 29.989891 C 31.834765 31.60397 30.112409 32.595643 28.252954 32.594543 L 8.997945 32.5936 C 7.134433 32.595766 5.415262 31.605967 4.478406 29.993262 C 3.548873 28.381349 3.54147 26.395027 4.464069 24.783422 L 14.160169 7.814366 C 15.074653 6.209292 16.78157 5.223357 18.626379 5.222873 C 20.471188 5.222389 22.175713 6.210603 23.088126 7.809551 Z M 23.088126 7.809551 " stroke="#f9b6b5" stroke-width="6" stroke-opacity="1" stroke-miterlimit="4"/></g></g></g></g><g clip-path="url(#a256d30f5f)"><g clip-path="url(#611b57e06c)"><g clip-path="url(#199e298779)"><path fill="#f8e1a7" d="M 1416.183594 590.097656 L 1406.917969 565.804688 L 1410.421875 564.46875 L 1419.6875 588.761719 Z M 1416.183594 590.097656 " fill-opacity="1" fill-rule="nonzero"/></g></g></g><g clip-path="url(#c9de807125)"><g clip-path="url(#f73de05c6a)"><g clip-path="url(#98b61e6083)"><path fill="#f8e1a7" d="M 1426.121094 574.4375 L 1401.808594 583.648438 L 1400.480469 580.140625 L 1424.792969 570.929688 Z M 1426.121094 574.4375 " fill-opacity="1" fill-rule="nonzero"/></g></g></g><g clip-path="url(#69d3c13d73)"><g clip-path="url(#11d6143e74)"><g clip-path="url(#e2cf40a9d2)"><path fill="#aae8bf" d="M 1433.621094 386.890625 L 1414.679688 404.707031 L 1412.113281 401.976562 L 1431.050781 384.160156 Z M 1433.621094 386.890625 " fill-opacity="1" fill-rule="nonzero"/></g></g></g><g clip-path="url(#9fc7555961)"><g clip-path="url(#c0d225cffd)"><g clip-path="url(#216ed1cc93)"><path fill="#aae8bf" d="M 1433.386719 396.863281 L 1416.402344 377.175781 L 1419.242188 374.726562 L 1436.226562 394.410156 Z M 1433.386719 396.863281 " fill-opacity="1" fill-rule="nonzero"/></g></g></g><g clip-path="url(#7f2572e973)"><g clip-path="url(#4876345253)"><g clip-path="url(#9325930d12)"><path fill="#ffffff" d="M 1388.117188 626.878906 L 1361.949219 636.796875 L 1353.285156 613.929688 L 1379.453125 604.015625 Z M 1388.117188 626.878906 " fill-opacity="1" fill-rule="nonzero"/></g></g></g><g clip-path="url(#5a1e33fcc4)"><g clip-path="url(#f31e402c01)"><g clip-path="url(#4e08e82d3e)"><g clip-path="url(#dacb90ca57)"><path stroke-linecap="butt" transform="matrix(-0.701341, 0.265745, -0.265745, -0.701341, 1388.118224, 626.880396)" fill="none" stroke-linejoin="miter" d="M 23.091452 7.810422 L 32.784398 24.783581 C 33.709718 26.398512 33.703529 28.384545 32.771445 29.991899 C 31.832646 31.602277 30.114465 32.594299 28.25337 32.596463 L 8.998766 32.596995 C 7.134647 32.592443 5.415939 31.601457 4.482058 29.994421 C 3.550022 28.382515 3.539754 26.395816 4.463942 24.779901 L 14.162125 7.813382 C 15.075907 6.210233 16.780656 5.224261 18.625294 5.221432 C 20.469931 5.218603 22.172182 6.208923 23.091452 7.810422 Z M 23.091452 7.810422 " stroke="#aae8bf" stroke-width="6" stroke-opacity="1" stroke-miterlimit="4"/></g></g></g></g><g clip-path="url(#2754912dfd)"><g clip-path="url(#a330aad54c)"><g clip-path="url(#974eee49ef)"><g clip-path="url(#f16329a319)"><path stroke-linecap="butt" transform="matrix(-0.720585, 0.207985, -0.207985, -0.720585, 1370.077329, 168.797589)" fill="none" stroke-linejoin="miter" d="M 23.086497 7.813772 L 32.786925 24.783994 C 33.708324 26.399756 33.705121 28.382898 32.768582 29.993649 C 31.832043 31.6044 30.115222 32.594207 28.250835 32.592756 L 8.995965 32.59162 C 7.136583 32.591613 5.416516 31.601838 4.48222 29.993195 C 3.547925 28.384553 3.541119 26.398522 4.462646 24.783438 L 14.158749 7.811872 C 15.075943 6.2118 16.781311 5.224109 18.625681 5.219783 C 20.468607 5.220461 22.172218 6.210907 23.086497 7.813772 Z M 23.086497 7.813772 " stroke="#f8e1a7" stroke-width="6" stroke-opacity="1" stroke-miterlimit="4"/></g></g></g></g><g clip-path="url(#b7a66a638d)"><g clip-path="url(#36c6f31e81)"><g clip-path="url(#cb257bc1cd)"><path fill="#a4e2ee" d="M 1328.207031 396.664062 L 1330.652344 422.546875 L 1326.917969 422.902344 L 1324.476562 397.015625 Z M 1328.207031 396.664062 " fill-opacity="1" fill-rule="nonzero"/></g></g></g><g clip-path="url(#e2bb6ae781)"><g clip-path="url(#dd9367631e)"><g clip-path="url(#205a799235)"><path fill="#a4e2ee" d="M 1314.449219 409.105469 L 1340.339844 406.714844 L 1340.6875 410.449219 L 1314.792969 412.839844 Z M 1314.449219 409.105469 " fill-opacity="1" fill-rule="nonzero"/></g></g></g><g clip-path="url(#d598c6e2ea)"><g clip-path="url(#ac542d8d9f)"><g clip-path="url(#93ad394a8a)"><g clip-path="url(#05b803acc4)"><path stroke-linecap="butt" transform="matrix(0.746829, -0.0688939, 0.0688939, 0.746829, 1378.267785, 294.488266)" fill="none" stroke-linejoin="miter" d="M 23.090838 7.810383 L 32.786277 24.783169 C 33.709769 26.39565 33.704301 28.382716 32.771342 29.991316 C 31.832719 31.604625 30.115 32.591636 28.252884 32.592463 L 8.9994 32.594709 C 7.137285 32.595537 5.413704 31.604898 4.479839 29.991459 C 3.545495 28.383207 3.540113 26.400371 4.463656 24.780441 L 14.16221 7.813141 C 15.079131 6.208291 16.781292 5.219845 18.62737 5.222768 C 20.46874 5.220027 22.171575 6.208752 23.090838 7.810383 Z M 23.090838 7.810383 " stroke="#b2cdfc" stroke-width="6" stroke-opacity="1" stroke-miterlimit="4"/></g></g></g></g><g clip-path="url(#5f470c86ff)"><g clip-path="url(#c9eab7e534)"><g clip-path="url(#6218c1ce0b)"><path fill="#b2cdfc" d="M 1087.425781 231.816406 L 1083.78125 206.074219 L 1087.496094 205.546875 L 1091.140625 231.292969 Z M 1087.425781 231.816406 " fill-opacity="1" fill-rule="nonzero"/></g></g></g><g clip-path="url(#90feac077a)"><g clip-path="url(#98c2d23cd2)"><g clip-path="url(#15ec46dc96)"><path fill="#b2cdfc" d="M 1100.59375 218.75 L 1074.839844 222.339844 L 1074.324219 218.625 L 1100.074219 215.035156 Z M 1100.59375 218.75 " fill-opacity="1" fill-rule="nonzero"/></g></g></g><g clip-path="url(#d0906ce89b)"><g clip-path="url(#1cbb00d2dd)"><g clip-path="url(#514f922b0e)"><g clip-path="url(#a0edb6ca0c)"><path stroke-linecap="butt" transform="matrix(-0.742821, 0.103524, -0.103524, -0.742821, 1171.799371, 261.367303)" fill="none" stroke-linejoin="miter" d="M 16.568087 0.000629077 C 7.418356 -0.00193517 -0.0000552048 7.420133 0.00253903 16.570582 C -0.0000252184 25.720312 7.416884 33.138005 16.571773 33.141288 C 25.722222 33.138694 33.139915 25.721785 33.142479 16.572054 C 33.140604 7.416447 25.723695 -0.00124624 16.568087 0.000629077 Z M 16.568087 0.000629077 " stroke="#f9b6b5" stroke-width="6" stroke-opacity="1" stroke-miterlimit="4"/></g></g></g></g><g clip-path="url(#603b660135)"><g clip-path="url(#e8b4a555ed)"><g clip-path="url(#1e2ef726fb)"><path fill="#f9b6b5" d="M 1299.390625 307.257812 L 1281.039062 288.839844 L 1283.695312 286.191406 L 1302.046875 304.609375 Z M 1299.390625 307.257812 " fill-opacity="1" fill-rule="nonzero"/></g></g></g><g clip-path="url(#9810f06b99)"><g clip-path="url(#175777a9da)"><g clip-path="url(#8f4bef8675)"><path fill="#f9b6b5" d="M 1289.417969 307.3125 L 1308.605469 289.769531 L 1311.136719 292.535156 L 1291.949219 310.078125 Z M 1289.417969 307.3125 " fill-opacity="1" fill-rule="nonzero"/></g></g></g><g clip-path="url(#6d5724b9ad)"><g clip-path="url(#931d9b1e69)"><g clip-path="url(#4bf7c67c57)"><g clip-path="url(#2fdcefd206)"><path stroke-linecap="butt" transform="matrix(-0.701341, 0.265745, -0.265745, -0.701341, 1147.318653, 110.837359)" fill="none" stroke-linejoin="miter" d="M 23.088122 7.809063 L 32.785938 24.784067 C 33.711258 26.398998 33.700199 28.383185 32.768115 29.990539 C 31.834186 31.602763 30.116005 32.594785 28.25004 32.595103 L 8.995436 32.595636 C 7.136187 32.592929 5.417479 31.601943 4.478728 29.993062 C 3.546692 28.381155 3.541294 26.396302 4.465482 24.780387 L 14.158795 7.812023 C 15.077447 6.210719 16.777325 5.222902 18.626834 5.221918 C 20.469626 5.223959 22.173723 6.209408 23.088122 7.809063 Z M 23.088122 7.809063 " stroke="#aae8bf" stroke-width="6" stroke-opacity="1" stroke-miterlimit="4"/></g></g></g></g><g clip-path="url(#fbd4d06a18)"><g clip-path="url(#43b33d16b9)"><g clip-path="url(#fb6472b088)"><path fill="#b2cdfc" d="M 1210.59375 12.378906 L 1233.546875 0.167969 L 1235.308594 3.480469 L 1212.355469 15.691406 Z M 1210.59375 12.378906 " fill-opacity="1" fill-rule="nonzero"/></g></g></g><g clip-path="url(#893f53bc3e)"><g clip-path="url(#d698344520)"><g clip-path="url(#2e92e18cb0)"><path fill="#b2cdfc" d="M 1227.367188 20.296875 L 1215.207031 -2.6875 L 1218.523438 -4.441406 L 1230.683594 18.542969 Z M 1227.367188 20.296875 " fill-opacity="1" fill-rule="nonzero"/></g></g></g><g clip-path="url(#99026ca5dc)"><g clip-path="url(#d299160630)"><g clip-path="url(#8492570f96)"><g clip-path="url(#72cd4dc358)"><path stroke-linecap="butt" transform="matrix(-0.551537, -0.508239, 0.508239, -0.551537, 1243.506616, 100.18837)" fill="none" stroke-linejoin="miter" d="M 16.571557 0.000778798 C 7.419484 -0.00085493 -0.00112721 7.417976 -0.00276094 16.570049 C 0.00296489 25.722423 7.418266 33.139204 16.570339 33.140838 C 25.722413 33.142471 33.139494 25.719811 33.141128 16.567737 C 33.138932 7.419194 25.720101 -0.00141759 16.571557 0.000778798 Z M 16.571557 0.000778798 " stroke="#b2cdfc" stroke-width="6" stroke-opacity="1" stroke-miterlimit="4"/></g></g></g></g><g clip-path="url(#2da9a7290b)"><g clip-path="url(#27c964f06c)"><g clip-path="url(#94495460c3)"><path fill="#a4e2ee" d="M 950.785156 89.980469 L 929.921875 105.496094 L 927.683594 102.488281 L 948.550781 86.972656 Z M 950.785156 89.980469 " fill-opacity="1" fill-rule="nonzero"/></g></g></g><g clip-path="url(#910d4d30b4)"><g clip-path="url(#187325afdc)"><g clip-path="url(#d4ea38749e)"><path fill="#a4e2ee" d="M 933.011719 84.671875 L 948.484375 105.570312 L 945.46875 107.800781 L 930 86.902344 Z M 933.011719 84.671875 " fill-opacity="1" fill-rule="nonzero"/></g></g></g><g clip-path="url(#aeb331ed68)"><g clip-path="url(#b7c542055d)"><g clip-path="url(#e95525fd5b)"><g clip-path="url(#f4674af692)"><path stroke-linecap="butt" transform="matrix(0.446224, 0.602814, -0.602814, 0.446224, 993.812308, 106.999776)" fill="none" stroke-linejoin="miter" d="M 23.087387 7.810378 L 32.784751 24.780035 C 33.711603 26.399248 33.702174 28.381638 32.769557 29.991692 C 31.836939 31.601746 30.111877 32.592805 28.250397 32.595118 L 8.998969 32.594117 C 7.133302 32.593331 5.417669 31.602 4.481521 29.995346 C 3.548472 28.384505 3.542243 26.397005 4.466488 24.780754 L 14.162229 7.813292 C 15.077178 6.209599 16.780385 5.221802 18.627295 5.221664 C 20.47002 5.218427 22.174182 6.207747 23.087387 7.810378 Z M 23.087387 7.810378 " stroke="#a4e2ee" stroke-width="6" stroke-opacity="1" stroke-miterlimit="4"/></g></g></g></g><g clip-path="url(#a4363d8405)"><g clip-path="url(#c73c4fbf28)"><g clip-path="url(#269031b4e8)"><path fill="#a4e2ee" d="M 1271.15625 190.894531 L 1284.484375 168.566406 L 1287.703125 170.488281 L 1274.375 192.816406 Z M 1271.15625 190.894531 " fill-opacity="1" fill-rule="nonzero"/></g></g></g><g clip-path="url(#3b94c5da0e)"><g clip-path="url(#0cd7b6a1a6)"><g clip-path="url(#3bcde8abc1)"><path fill="#aae8bf" d="M 1077.394531 5.046875 L 1069.019531 29.664062 L 1065.46875 28.457031 L 1073.84375 3.839844 Z M 1077.394531 5.046875 " fill-opacity="1" fill-rule="nonzero"/></g></g></g><g clip-path="url(#f74f1f5193)"><g clip-path="url(#03da855090)"><g clip-path="url(#ab44eb325a)"><path fill="#aae8bf" d="M 1081.863281 13.964844 L 1057.628906 4.539062 L 1058.988281 1.042969 L 1083.222656 10.46875 Z M 1081.863281 13.964844 " fill-opacity="1" fill-rule="nonzero"/></g></g></g><g clip-path="url(#5d026c3d6b)"><g clip-path="url(#b3b07b0057)"><g clip-path="url(#a7cfe546f3)"><path fill="#b2cdfc" d="M 1385.359375 521.3125 L 1398.683594 498.988281 L 1401.90625 500.910156 L 1388.578125 523.234375 Z M 1385.359375 521.3125 " fill-opacity="1" fill-rule="nonzero"/></g></g></g><g clip-path="url(#41df9520ac)"><g clip-path="url(#5fcf5af300)"><g clip-path="url(#785e2bb778)"><g clip-path="url(#d264332aa1)"><path stroke-linecap="butt" transform="matrix(0.446224, 0.602814, -0.602814, 0.446224, 1435.744974, 205.734545)" fill="none" stroke-linejoin="miter" d="M 23.091888 7.81217 L 32.789252 24.781827 C 33.711917 26.397941 33.702489 28.380331 32.766772 29.994571 C 31.834155 31.604625 30.116378 32.594597 28.250711 32.593811 L 8.999283 32.59281 C 7.137802 32.595123 5.414884 31.604879 4.481835 29.994039 C 3.548786 28.383199 3.539458 26.399885 4.463703 24.783633 L 14.162544 7.811985 C 15.077493 6.208292 16.780699 5.220495 18.62761 5.220357 C 20.467235 5.221307 22.171397 6.210627 23.091888 7.81217 Z M 23.091888 7.81217 " stroke="#f9b6b5" stroke-width="6" stroke-opacity="1" stroke-miterlimit="4"/></g></g></g></g><g clip-path="url(#a7de64cf15)"><g clip-path="url(#efd46097b0)"><g clip-path="url(#a0f9fe258f)"><g clip-path="url(#12bbcbb421)"><path stroke-linecap="butt" transform="matrix(-0.742821, 0.103524, -0.103524, -0.742821, 1345.673267, 87.003853)" fill="none" stroke-linejoin="miter" d="M 16.571817 0.000922318 C 7.416929 -0.00236085 -0.00148311 7.419707 0.00111112 16.570156 C -0.00145313 25.719886 7.420615 33.138298 16.570345 33.140862 C 25.720794 33.138268 33.138487 25.721359 33.141051 16.571629 C 33.139176 7.416021 25.722267 -0.00167191 16.571817 0.000922318 Z M 16.571817 0.000922318 " stroke="#a4e2ee" stroke-width="6" stroke-opacity="1" stroke-miterlimit="4"/></g></g></g></g><g clip-path="url(#0f380c088a)"><g clip-path="url(#4299098ace)"><g clip-path="url(#0e5376046d)"><path fill="#a4e2ee" d="M 1442.109375 157.824219 L 1416.617188 152.703125 L 1417.355469 149.023438 L 1442.847656 154.148438 Z M 1442.109375 157.824219 " fill-opacity="1" fill-rule="nonzero"/></g></g></g><g clip-path="url(#8f75e62ba5)"><g clip-path="url(#e7d1ef9624)"><g clip-path="url(#29a360efcc)"><g clip-path="url(#bc015789ba)"><path stroke-linecap="butt" transform="matrix(-0.521356, -0.539154, 0.539154, -0.521356, 991.705612, 85.201209)" fill="none" stroke-linejoin="miter" d="M 23.090054 7.811195 L 32.785833 24.779813 C 33.708016 26.396068 33.704564 28.385144 32.766491 29.992101 C 31.832162 31.60268 30.113914 32.592875 28.250161 32.594687 L 9.000869 32.593603 C 7.137116 32.595414 5.415079 31.604022 4.481911 29.991635 C 3.545122 28.382992 3.537589 26.397784 4.464429 24.779964 L 14.161616 7.813702 C 15.073974 6.210859 16.777493 5.220911 18.626517 5.219347 C 20.47192 5.221527 22.175483 6.209546 23.090054 7.811195 Z M 23.090054 7.811195 " stroke="#f8e1a7" stroke-width="6" stroke-opacity="1" stroke-miterlimit="4"/></g></g></g></g><g clip-path="url(#37daaed21a)"><g clip-path="url(#2cf82027ce)"><g clip-path="url(#988cbd2c1e)"><g clip-path="url(#1d32420c2a)"><path stroke-linecap="butt" transform="matrix(0.410772, 0.627508, -0.627508, 0.410772, 841.744716, 44.000883)" fill="none" stroke-linejoin="miter" d="M 23.090812 7.811314 L 32.784856 24.78324 C 33.708484 26.396309 33.702056 28.384109 32.766479 29.994004 C 31.833754 31.599542 30.111499 32.59487 28.252294 32.591697 L 8.997462 32.592975 C 7.135405 32.59416 5.412367 31.603193 4.481529 29.99163 C 3.547839 28.384424 3.539846 26.399634 4.46235 24.781181 L 14.163301 7.812578 C 15.074395 6.211556 16.779377 5.223595 18.622656 5.222568 C 20.470293 5.224394 22.173047 6.208308 23.090812 7.811314 Z M 23.090812 7.811314 " stroke="#b2cdfc" stroke-width="6" stroke-opacity="1" stroke-miterlimit="4"/></g></g></g></g><g clip-path="url(#987db164d6)"><g clip-path="url(#9e035bebfa)"><g clip-path="url(#8f1dced10f)"><path fill="#a4e2ee" d="M 925.839844 8.164062 L 951.808594 9.476562 L 951.621094 13.222656 L 925.652344 11.910156 Z M 925.839844 8.164062 " fill-opacity="1" fill-rule="nonzero"/></g></g></g><g clip-path="url(#e72e7ae987)"><g clip-path="url(#ca438e2cc6)"><g clip-path="url(#b4aa004a55)"><g clip-path="url(#ddb1c62ed3)"><path stroke-linecap="butt" transform="matrix(-0.584287, -0.470222, 0.470222, -0.584287, 50.359633, 260.799235)" fill="none" stroke-linejoin="miter" d="M 23.087522 7.811336 L 32.787152 24.781739 C 33.70857 26.400183 33.701327 28.38492 32.76814 29.991676 C 31.83416 31.605754 30.115862 32.594162 28.25235 32.596328 L 8.997341 32.595384 C 7.137886 32.594285 5.41545 31.600428 4.481859 29.991781 C 3.548269 28.383133 3.540866 26.396811 4.463465 24.785206 L 14.163622 7.812885 C 15.074048 6.211076 16.7777 5.221084 18.622509 5.2206 C 20.470584 5.224173 22.171843 6.20833 23.087522 7.811336 Z M 23.087522 7.811336 " stroke="#a4e2ee" stroke-width="6" stroke-opacity="1" stroke-miterlimit="4"/></g></g></g></g><g clip-path="url(#12cee5f988)"><g clip-path="url(#a0efb9d958)"><g clip-path="url(#ad02d2d215)"><path fill="#f9b6b5" d="M 701.597656 42.78125 L 698.96875 16.910156 L 702.699219 16.53125 L 705.328125 42.398438 Z M 701.597656 42.78125 " fill-opacity="1" fill-rule="nonzero"/></g></g></g><g clip-path="url(#d4f5497e4e)"><g clip-path="url(#0859bd85a9)"><g clip-path="url(#6c432571a8)"><path fill="#f9b6b5" d="M 693.824219 36.535156 L 719.78125 35.015625 L 720 38.757812 L 694.042969 40.277344 Z M 693.824219 36.535156 " fill-opacity="1" fill-rule="nonzero"/></g></g></g></svg>