<svg width="32" height="39" viewBox="0 0 32 39" fill="none" xmlns="http://www.w3.org/2000/svg">
<mask id="mask0_303_805" style="mask-type:luminance" maskUnits="userSpaceOnUse" x="0" y="12" width="28" height="27">
<path d="M0 12H28V38.6667H0V12Z" fill="white"/>
</mask>
<g mask="url(#mask0_303_805)">
<mask id="mask1_303_805" style="mask-type:luminance" maskUnits="userSpaceOnUse" x="0" y="12" width="29" height="28">
<path d="M28.8285 15.854L3.56283 39.6196L0.135742 35.979L25.4014 12.2134L28.8285 15.854Z" fill="white"/>
</mask>
<g mask="url(#mask1_303_805)">
<mask id="mask2_303_805" style="mask-type:luminance" maskUnits="userSpaceOnUse" x="1" y="13" width="27" height="26">
<path d="M27.0054 17.5677L5.39603 37.8958C4.39082 38.8437 2.80749 38.7968 1.85957 37.7864C0.916865 36.7812 0.96374 35.2031 1.96895 34.2552L23.5783 13.927C24.5835 12.9791 26.1669 13.0312 27.1148 14.0364C28.0575 15.0416 28.0106 16.6249 27.0054 17.5677Z" fill="white"/>
</mask>
<g mask="url(#mask2_303_805)">
<path d="M28.8285 15.854L3.57324 39.6092L0.151367 35.9686L25.4014 12.2134L28.8285 15.854Z" fill="#AAE8BF"/>
</g>
</g>
</g>
<mask id="mask3_303_805" style="mask-type:luminance" maskUnits="userSpaceOnUse" x="6" y="0" width="26" height="30">
<path d="M6.66602 0H31.9993V29.3333H6.66602V0Z" fill="white"/>
</mask>
<g mask="url(#mask3_303_805)">
<mask id="mask4_303_805" style="mask-type:luminance" maskUnits="userSpaceOnUse" x="5" y="-1" width="28" height="31">
<path d="M28.5146 29.1509L5.8584 2.88525L9.64486 -0.380371L32.3011 25.88L28.5146 29.1509Z" fill="white"/>
</mask>
<g mask="url(#mask4_303_805)">
<mask id="mask5_303_805" style="mask-type:luminance" maskUnits="userSpaceOnUse" x="6" y="0" width="26" height="29">
<path d="M26.8842 27.2548L7.49883 4.79126C6.59778 3.74439 6.71758 2.16626 7.75924 1.26522C8.80612 0.364181 10.3842 0.478764 11.2853 1.52564L30.6707 23.9892C31.5717 25.0361 31.4572 26.6142 30.4103 27.5152C29.3634 28.4163 27.7853 28.3017 26.8842 27.2548Z" fill="white"/>
</mask>
<g mask="url(#mask5_303_805)">
<path d="M28.515 29.1504L5.86914 2.90039L9.6556 -0.365234L32.3014 25.8796L28.515 29.1504Z" fill="#AAE8BF"/>
</g>
</g>
</g>
</svg>
