<svg width="37" height="37" viewBox="0 0 37 37" fill="none" xmlns="http://www.w3.org/2000/svg">
<mask id="mask0_303_994" style="mask-type:luminance" maskUnits="userSpaceOnUse" x="0" y="2" width="36" height="31">
<path d="M0.852539 8.84717L30.9482 2.95683L35.558 26.51L5.46237 32.4003L0.852539 8.84717Z" fill="white"/>
</mask>
<g mask="url(#mask0_303_994)">
<mask id="mask1_303_994" style="mask-type:luminance" maskUnits="userSpaceOnUse" x="4" y="3" width="28" height="30">
<path d="M31.4302 6.9119L8.0907 32.5705L4.39159 29.208L27.7362 3.54839L31.4302 6.9119Z" fill="white"/>
</mask>
<g mask="url(#mask1_303_994)">
<mask id="mask2_303_994" style="mask-type:luminance" maskUnits="userSpaceOnUse" x="5" y="4" width="26" height="28">
<path d="M29.7489 8.76405L9.78526 30.7104C8.85461 31.731 7.27718 31.8063 6.25139 30.8766C5.23072 29.9459 5.1555 28.3685 6.08615 27.3478L26.0488 5.39642C26.9795 4.37575 28.562 4.29953 29.5827 5.23018C30.6034 6.16084 30.6796 7.74337 29.7489 8.76405Z" fill="white"/>
</mask>
<g mask="url(#mask2_303_994)">
<path d="M31.4295 6.91197L8.10335 32.5574L4.40424 29.1949L27.7355 3.54846L31.4295 6.91197Z" fill="#AAE8BF"/>
</g>
</g>
</g>
<mask id="mask3_303_994" style="mask-type:luminance" maskUnits="userSpaceOnUse" x="2" y="1" width="31" height="35">
<path d="M2.95703 5.71826L26.5102 1.10843L32.4005 31.2041L8.84737 35.8139L2.95703 5.71826Z" fill="white"/>
</mask>
<g mask="url(#mask3_303_994)">
<mask id="mask4_303_994" style="mask-type:luminance" maskUnits="userSpaceOnUse" x="3" y="4" width="30" height="28">
<path d="M6.8139 4.51776L32.4253 27.9143L29.0506 31.6052L3.44427 8.20765L6.8139 4.51776Z" fill="white"/>
</mask>
<g mask="url(#mask4_303_994)">
<mask id="mask5_303_994" style="mask-type:luminance" maskUnits="userSpaceOnUse" x="4" y="5" width="28" height="26">
<path d="M8.66053 6.19973L30.5637 26.2143C31.5844 27.1449 31.6555 28.7285 30.7239 29.744C29.7932 30.7647 28.2097 30.8358 27.1941 29.9042L5.28679 9.89573C4.27122 8.96408 4.20011 7.38054 5.13077 6.35986C6.06243 5.34429 7.63985 5.26908 8.66053 6.19973Z" fill="white"/>
</mask>
<g mask="url(#mask5_303_994)">
<path d="M6.8139 4.51776L32.4121 27.9009L29.0374 31.5918L3.44427 8.20765L6.8139 4.51776Z" fill="#AAE8BF"/>
</g>
</g>
</g>
</svg>
