<svg width="23" height="32" viewBox="0 0 23 32" fill="none" xmlns="http://www.w3.org/2000/svg">
<mask id="mask0_303_811" style="mask-type:luminance" maskUnits="userSpaceOnUse" x="0" y="0" width="23" height="32">
<path d="M0 0H22.6667V32H0V0Z" fill="white"/>
</mask>
<g mask="url(#mask0_303_811)">
<mask id="mask1_303_811" style="mask-type:luminance" maskUnits="userSpaceOnUse" x="0" y="-1" width="23" height="33">
<path d="M0.208008 29.1927L17.9893 -0.59375L22.2809 1.96875L4.49967 31.7552L0.208008 29.1927Z" fill="white"/>
</mask>
<g mask="url(#mask1_303_811)">
<mask id="mask2_303_811" style="mask-type:luminance" maskUnits="userSpaceOnUse" x="1" y="0" width="21" height="31">
<path d="M1.48921 27.047L16.6975 1.56787C17.4059 0.38037 18.9371 -0.00504717 20.1246 0.703286C21.3121 1.41162 21.6975 2.94287 20.9892 4.13037L5.78609 29.6095C5.07775 30.7918 3.54129 31.1825 2.35379 30.4741C1.1715 29.7658 0.780877 28.2293 1.48921 27.047Z" fill="white"/>
</mask>
<g mask="url(#mask2_303_811)">
<path d="M0.208008 29.1927L17.9788 -0.578125L22.2705 1.98438L4.49967 31.7552L0.208008 29.1927Z" fill="#A4E2EE"/>
</g>
</g>
</g>
</svg>
