<svg width="42" height="36" viewBox="0 0 42 36" fill="none" xmlns="http://www.w3.org/2000/svg">
<mask id="mask0_303_1221" style="mask-type:luminance" maskUnits="userSpaceOnUse" x="12" y="4" width="30" height="31">
<path d="M14.875 34.8335L12.7948 6.91087L39.3878 4.92975L41.468 32.8524L14.875 34.8335Z" fill="white"/>
</mask>
<g mask="url(#mask0_303_1221)">
<mask id="mask1_303_1221" style="mask-type:luminance" maskUnits="userSpaceOnUse" x="13" y="5" width="30" height="28">
<path d="M16.577 5.79873L42.154 29.2289L38.7781 32.917L13.2011 9.48681L16.577 5.79873Z" fill="white"/>
</mask>
<g mask="url(#mask1_303_1221)">
<mask id="mask2_303_1221" style="mask-type:luminance" maskUnits="userSpaceOnUse" x="14" y="6" width="28" height="26">
<path d="M18.4215 7.48918L40.2988 27.5286C41.3188 28.4606 41.3897 30.0431 40.4525 31.0634C39.5201 32.0782 37.9428 32.1487 36.9229 31.2167L15.0455 11.1773C14.0255 10.2453 13.9598 8.66243 14.8919 7.64245C15.8242 6.62767 17.4067 6.55679 18.4215 7.48918Z" fill="white"/>
</mask>
<g mask="url(#mask2_303_1221)">
<path d="M16.5772 5.79869L42.1431 29.2193L38.7667 32.9022L13.2013 9.48677L16.5772 5.79869Z" fill="#A4E2EE"/>
</g>
</g>
</g>
<mask id="mask3_303_1221" style="mask-type:luminance" maskUnits="userSpaceOnUse" x="0" y="1" width="32" height="29">
<path d="M2.41309 29.0776L0.53102 3.81431L29.7833 1.63508L31.6654 26.8984L2.41309 29.0776Z" fill="white"/>
</mask>
<g mask="url(#mask3_303_1221)">
<mask id="mask4_303_1221" style="mask-type:luminance" maskUnits="userSpaceOnUse" x="1" y="1" width="29" height="29">
<path d="M29.8602 5.12355L5.35035 29.6685L1.81245 26.1351L26.3171 1.59056L29.8602 5.12355Z" fill="white"/>
</mask>
<g mask="url(#mask4_303_1221)">
<mask id="mask5_303_1221" style="mask-type:luminance" maskUnits="userSpaceOnUse" x="2" y="2" width="27" height="27">
<path d="M28.0907 6.8904L7.12941 27.8911C6.15237 28.8674 4.5697 28.8652 3.59376 27.8934C2.61744 26.9163 2.61446 25.334 3.5915 24.3577L24.5528 3.35701C25.5298 2.38069 27.1121 2.37771 28.0884 3.35475C29.0648 4.33179 29.0677 5.91407 28.0907 6.8904Z" fill="white"/>
</mask>
<g mask="url(#mask5_303_1221)">
<path d="M29.8601 5.12387L5.365 29.6573L1.82709 26.1239L26.317 1.59087L29.8601 5.12387Z" fill="#A4E2EE"/>
</g>
</g>
</g>
</svg>
