<svg width="31" height="31" viewBox="0 0 31 31" fill="none" xmlns="http://www.w3.org/2000/svg">
<mask id="mask0_303_816" style="mask-type:luminance" maskUnits="userSpaceOnUse" x="0" y="2" width="31" height="25">
<path d="M0 2.6665H30.6667V26.6665H0V2.6665Z" fill="white"/>
</mask>
<g mask="url(#mask0_303_816)">
<mask id="mask1_303_816" style="mask-type:luminance" maskUnits="userSpaceOnUse" x="-1" y="2" width="32" height="26">
<path d="M30.3802 6.6403L2.54688 27.3382L-0.4375 23.3278L27.401 2.62988L30.3802 6.6403Z" fill="white"/>
</mask>
<g mask="url(#mask1_303_816)">
<mask id="mask2_303_816" style="mask-type:luminance" maskUnits="userSpaceOnUse" x="0" y="3" width="30" height="24">
<path d="M28.3751 8.13516L4.56778 25.8383C3.4584 26.6612 1.8959 26.432 1.06778 25.3227C0.244861 24.2133 0.474027 22.6508 1.5834 21.8279L25.3907 4.11954C26.5001 3.29662 28.0678 3.52579 28.8907 4.63516C29.7136 5.74454 29.4844 7.31224 28.3751 8.13516Z" fill="white"/>
</mask>
<g mask="url(#mask2_303_816)">
<path d="M30.3802 6.6403L2.5625 27.3278L-0.421875 23.3174L27.401 2.62988L30.3802 6.6403Z" fill="#A4E2EE"/>
</g>
</g>
</g>
<mask id="mask3_303_816" style="mask-type:luminance" maskUnits="userSpaceOnUse" x="2" y="0" width="25" height="31">
<path d="M2.66602 0H26.666V30.6667H2.66602V0Z" fill="white"/>
</mask>
<g mask="url(#mask3_303_816)">
<mask id="mask4_303_816" style="mask-type:luminance" maskUnits="userSpaceOnUse" x="2" y="-1" width="26" height="32">
<path d="M6.68164 -0.4375L27.3223 27.4427L23.3014 30.4167L2.66602 2.53646L6.68164 -0.4375Z" fill="white"/>
</mask>
<g mask="url(#mask4_303_816)">
<mask id="mask5_303_816" style="mask-type:luminance" maskUnits="userSpaceOnUse" x="3" y="0" width="24" height="30">
<path d="M8.17152 1.5679L25.8226 25.4169C26.6455 26.5262 26.4111 28.0939 25.3017 28.9117C24.1924 29.7346 22.6246 29.5002 21.8069 28.3908L4.15068 4.54707C3.33298 3.4377 3.56735 1.86999 4.67673 1.04707C5.7861 0.229362 7.3486 0.458528 8.17152 1.5679Z" fill="white"/>
</mask>
<g mask="url(#mask5_303_816)">
<path d="M6.68164 -0.4375L27.3118 27.4271L23.291 30.401L2.66602 2.53646L6.68164 -0.4375Z" fill="#A4E2EE"/>
</g>
</g>
</g>
</svg>
