<svg width="46" height="46" viewBox="0 0 46 46" fill="none" xmlns="http://www.w3.org/2000/svg">
<mask id="mask0_303_995" style="mask-type:luminance" maskUnits="userSpaceOnUse" x="13" y="4" width="20" height="38">
<path d="M24.0068 4.43213L32.9014 7.26029L21.9927 41.5678L13.0982 38.7396L24.0068 4.43213Z" fill="white"/>
</mask>
<g mask="url(#mask0_303_995)">
<mask id="mask1_303_995" style="mask-type:luminance" maskUnits="userSpaceOnUse" x="16" y="5" width="14" height="36">
<path d="M29.0839 6.97546L21.7324 40.8728L16.8453 39.8107L24.2017 5.91497L29.0839 6.97546Z" fill="white"/>
</mask>
<g mask="url(#mask1_303_995)">
<mask id="mask2_303_995" style="mask-type:luminance" maskUnits="userSpaceOnUse" x="17" y="6" width="12" height="35">
<path d="M28.5524 9.41911L22.2628 38.4128C21.9702 39.7627 20.638 40.6179 19.2882 40.3254C17.9384 40.0328 17.0831 38.7006 17.3757 37.3508L23.6703 8.35863C23.9628 7.00882 25.2901 6.15197 26.6399 6.44453C27.9897 6.73709 28.8499 8.07088 28.5524 9.41911Z" fill="white"/>
</mask>
<g mask="url(#mask2_303_995)">
<path d="M29.0839 6.97546L21.7337 40.8513L16.845 39.7942L24.2017 5.91497L29.0839 6.97546Z" fill="#F9B6B5"/>
</g>
</g>
</g>
<mask id="mask3_303_995" style="mask-type:luminance" maskUnits="userSpaceOnUse" x="4" y="13" width="38" height="20">
<path d="M7.26074 13.0986L41.5682 24.0073L38.74 32.9018L4.43258 21.9932L7.26074 13.0986Z" fill="white"/>
</mask>
<g mask="url(#mask3_303_995)">
<mask id="mask4_303_995" style="mask-type:luminance" maskUnits="userSpaceOnUse" x="5" y="17" width="36" height="13">
<path d="M6.5771 17.2261L40.4607 24.6552L39.3887 29.5392L5.50511 22.1101L6.5771 17.2261Z" fill="white"/>
</mask>
<g mask="url(#mask4_303_995)">
<mask id="mask5_303_995" style="mask-type:luminance" maskUnits="userSpaceOnUse" x="5" y="17" width="35" height="13">
<path d="M9.0195 17.7623L38.0042 24.1147C39.3524 24.4122 40.2028 25.7428 39.9102 27.0926C39.6127 28.4409 38.2805 29.2961 36.9322 28.9986L7.94751 22.6463C6.59928 22.3487 5.74897 21.0181 6.04153 19.6683C6.33905 18.3201 7.67127 17.4648 9.0195 17.7623Z" fill="white"/>
</mask>
<g mask="url(#mask5_303_995)">
<path d="M6.5771 17.2261L40.4408 24.6489L39.3738 29.5344L5.50511 22.1101L6.5771 17.2261Z" fill="#F9B6B5"/>
</g>
</g>
</g>
</svg>
