<svg width="34" height="34" viewBox="0 0 34 34" fill="none" xmlns="http://www.w3.org/2000/svg">
<mask id="mask0_303_803" style="mask-type:luminance" maskUnits="userSpaceOnUse" x="8" y="0" width="18" height="34">
<path d="M8 0H25.3333V33.3333H8V0Z" fill="white"/>
</mask>
<g mask="url(#mask0_303_803)">
<mask id="mask1_303_803" style="mask-type:luminance" maskUnits="userSpaceOnUse" x="7" y="-1" width="18" height="35">
<path d="M20.2451 33.4637L7.88574 1.05745L12.5576 -0.729004L24.917 31.6825L20.2451 33.4637Z" fill="white"/>
</mask>
<g mask="url(#mask1_303_803)">
<mask id="mask2_303_803" style="mask-type:luminance" maskUnits="userSpaceOnUse" x="8" y="0" width="17" height="33">
<path d="M19.3548 31.1305L8.78184 3.40649C8.29225 2.12003 8.93809 0.672115 10.2245 0.182533C11.5162 -0.312259 12.9589 0.333574 13.4537 1.62524L24.0266 29.3492C24.5162 30.6357 23.8704 32.0836 22.5839 32.5732C21.2923 33.068 19.8443 32.4221 19.3548 31.1305Z" fill="white"/>
</mask>
<g mask="url(#mask2_303_803)">
<path d="M20.2458 33.4639L7.8916 1.07324L12.5635 -0.708008L24.9176 31.6826L20.2458 33.4639Z" fill="#F8E1A7"/>
</g>
</g>
</g>
<mask id="mask3_303_803" style="mask-type:luminance" maskUnits="userSpaceOnUse" x="0" y="8" width="34" height="18">
<path d="M0 8H33.3333V25.3333H0V8Z" fill="white"/>
</mask>
<g mask="url(#mask3_303_803)">
<mask id="mask4_303_803" style="mask-type:luminance" maskUnits="userSpaceOnUse" x="-1" y="7" width="35" height="18">
<path d="M33.4945 12.5833L1.05697 24.8698L-0.713867 20.1979L31.7236 7.90625L33.4945 12.5833Z" fill="white"/>
</mask>
<g mask="url(#mask4_303_803)">
<mask id="mask5_303_803" style="mask-type:luminance" maskUnits="userSpaceOnUse" x="0" y="8" width="33" height="17">
<path d="M31.1561 13.4689L3.41131 23.9793C2.11964 24.4689 0.67693 23.8179 0.187347 22.5262C-0.302235 21.2398 0.348806 19.7918 1.64047 19.3023L29.3853 8.79184C30.6769 8.30226 32.1196 8.9533 32.6092 10.245C33.0988 11.5366 32.4478 12.9793 31.1561 13.4689Z" fill="white"/>
</mask>
<g mask="url(#mask5_303_803)">
<path d="M33.4941 12.5833L1.07747 24.8646L-0.693359 20.1875L31.7233 7.90625L33.4941 12.5833Z" fill="#F8E1A7"/>
</g>
</g>
</g>
</svg>
