<svg xmlns="http://www.w3.org/2000/svg" enable-background="new 0 0 4500 4500" viewBox="0 0 4500 4500"><circle cx="2250" cy="2250" r="1895.144" fill="#fff"/><path fill="#212121" d="M2250,4155.302c-129.266,0-258.453-13.023-383.974-38.709
			c-122.336-25.033-242.669-62.388-357.658-111.023c-112.899-47.752-221.79-106.855-323.647-175.669
			c-100.887-68.158-195.756-146.433-281.972-232.648c-86.216-86.217-164.491-181.086-232.648-281.973
			c-68.813-101.856-127.917-210.747-175.669-323.646c-48.636-114.989-85.99-235.323-111.023-357.659
			c-25.685-125.521-38.708-254.708-38.708-383.974s13.023-258.453,38.708-383.974c25.033-122.336,62.387-242.67,111.023-357.658
			c47.752-112.9,106.856-221.79,175.669-323.647c68.158-100.887,146.432-195.756,232.648-281.973
			c86.216-86.216,181.085-164.491,281.972-232.648c101.857-68.813,210.748-127.917,323.647-175.669
			c114.989-48.636,235.322-85.99,357.658-111.023c125.521-25.685,254.708-38.708,383.974-38.708s258.453,13.023,383.974,38.708
			c122.336,25.033,242.67,62.387,357.659,111.023c112.899,47.752,221.79,106.856,323.646,175.669
			c100.887,68.157,195.756,146.432,281.973,232.648c86.216,86.216,164.49,181.085,232.648,281.973
			c68.813,101.857,127.917,210.747,175.669,323.647c48.636,114.988,85.99,235.322,111.023,357.658
			c25.686,125.521,38.709,254.708,38.709,383.974s-13.023,258.453-38.709,383.974c-25.033,122.336-62.388,242.67-111.023,357.659
			c-47.752,112.899-106.855,221.79-175.669,323.646c-68.158,100.887-146.433,195.756-232.648,281.973
			c-86.217,86.216-181.086,164.49-281.973,232.648c-101.856,68.813-210.747,127.917-323.646,175.669
			c-114.989,48.636-235.323,85.99-357.659,111.023C2508.453,4142.278,2379.266,4155.302,2250,4155.302z M2250,365.015
			c-1039.384,0-1884.985,845.601-1884.985,1884.985S1210.616,4134.985,2250,4134.985S4134.985,3289.385,4134.985,2250
			S3289.385,365.015,2250,365.015z"/><g><path fill="#212121" d="M2250,4145.143c688.067,0,1290.458-366.706,1622.481-915.324
				c-63.771-79.204-135.517-166.036-159.609-193.217c-72.514-81.815-168.364-154.269-269.289-201.251
				c-176.51-108.052-527.623-126.588-779.218-123.656l-468.21,5.46c-78.188,0.909-171.203,6.655-243.871,24.82
				c-67.472,16.34-130.509,38.446-189.354,65.333c-140.929,30.516-286.958,119.853-390.037,228.16
				c-68.175,71.633-280.85,328.547-462.096,555.445C1253.683,3933.365,1727.105,4145.143,2250,4145.143z"/><path fill="#212121" d="M2250,4155.301c-129.159,0-258.242-13.003-383.663-38.646
				c-122.24-24.994-242.485-62.289-357.396-110.85c-112.821-47.678-221.646-106.691-323.453-175.4
				c-100.834-68.054-195.668-146.212-281.869-232.303c-3.662-3.657-3.989-9.483-0.758-13.527
				c170.967-214.031,390.774-480.562,462.674-556.108c52.227-54.876,115.509-105.013,183.007-144.989
				c69.524-41.177,142.515-70.854,211.164-85.862c60.472-27.553,124.457-49.594,190.187-65.513
				c61.902-15.474,144.742-23.926,246.145-25.104l468.21-5.46c156.61-1.83,297.629,5,419.15,20.287
				c161.846,20.359,284.644,55.539,364.991,104.559c100.857,47.043,197.465,119.289,272.085,203.48
				c24.398,27.527,96.139,114.369,159.919,193.585c2.679,3.327,2.99,7.975,0.778,11.63
				c-166.771,275.564-402.376,506.188-681.344,666.936c-141.451,81.507-292.877,144.444-450.07,187.062
				C2587.678,4133.02,2419.534,4155.301,2250,4155.301z M924.423,3590.136c355.188,351.416,825.583,544.849,1325.577,544.849
				c663.138,0,1264.486-337.906,1610.097-904.346c-62.456-77.469-131.169-160.608-154.826-187.299
				c-72.941-82.298-167.399-152.893-265.975-198.78c-0.349-0.162-0.688-0.344-1.017-0.545
				c-77.861-47.664-198.114-81.993-357.416-102.032c-120.605-15.172-260.693-21.94-416.379-20.13l-468.21,5.46
				c-98.418,1.144-181.937,9.621-241.527,24.518c-64.911,15.721-128.002,37.489-187.595,64.718
				c-0.664,0.304-1.358,0.534-2.072,0.688c-134.449,29.114-278.31,113.314-384.828,225.235
				C1309.522,3116.789,1094.273,3377.69,924.423,3590.136z"/><path fill="#fff" d="M2827.162,2256.948c-178.236,43.225-365.659,53.638-539.753,33.825
					c-214.353-24.394-383.345-278.115-395.095-480.892l-326.327-569.489c-13.472-232.507,177.487-432.69,424.913-447.027
					l661.282-38.488c247.426-14.337,464.087,250.709,477.559,483.216l33.902,585.075
					C3175.277,2023.945,3034.709,2206.615,2827.162,2256.948z"/><path fill="#212121" d="M2459.947,2310.62c-58.321,0-116.431-3.237-173.688-9.753
					c-101.869-11.593-201.462-74.616-280.432-177.459c-35.173-45.806-65.054-98.552-86.413-152.533
					c-21.084-53.287-33.892-107.862-37.096-158.004l-325.146-567.427c-0.782-1.365-1.236-2.893-1.327-4.462
					c-13.775-237.728,181.126-443.077,434.467-457.756l661.279-38.488c61.086-3.538,122.346,9.157,182.081,37.735
					c55.127,26.374,106.424,64.91,152.468,114.539c89.505,96.471,146.978,223.759,153.742,340.495l33.9,585.076
					c2.93,50.545-3.445,100.706-18.947,149.089c-15.09,47.097-38.374,91.179-69.207,131.021
					c-30.853,39.869-68.257,74.188-111.172,102.002c-44.144,28.612-92.896,49.514-144.9,62.126
					C2709.71,2295.885,2584.364,2310.62,2459.947,2310.62z M1575.997,1237.433l325.13,567.399c0.782,1.365,1.237,2.893,1.328,4.462
					c5.735,98.972,50.403,211.772,119.487,301.741c75.584,98.433,170.27,158.682,266.615,169.646
					c177.056,20.146,362.478,8.528,536.211-33.605l2.395,9.872l-2.395-9.872c201.858-48.954,340.111-226.986,328.733-423.319
					l-33.901-585.076c-6.499-112.172-61.958-234.733-148.353-327.853c-93.263-100.522-206.375-152.308-318.478-145.809
					l-661.279,38.488C1750.173,817.49,1564.297,1011.892,1575.997,1237.433z"/><path fill="#c7b9be" d="M2701.596,2825.659c8.809,150.5-508.981,206.149-519.269,30.394l-24.315-415.414l519.268-30.394
					L2701.596,2825.659z"/><path fill="#212121" d="M2399.418,2975.448c-53.379,0-102.029-7.361-139.612-21.351
					c-54.783-20.392-85.081-54.089-87.619-97.451l-24.315-415.414c-0.158-2.689,0.76-5.332,2.55-7.345s4.307-3.232,6.997-3.39
					l519.268-30.394c5.6-0.314,10.407,3.946,10.734,9.547l24.316,415.414l0,0c1.262,21.549-6.645,42.033-23.499,60.883
					c-14.792,16.544-36.27,31.532-63.839,44.55c-50.397,23.797-119.531,39.8-189.673,43.905
					C2422.781,2975.103,2410.985,2975.448,2399.418,2975.448z M2168.747,2450.186l23.721,405.273
					c4.544,77.636,124.339,105.494,241.072,98.663c67.645-3.959,134.049-19.267,182.186-41.995
					c25.097-11.851,44.397-25.214,57.368-39.721c13.118-14.672,19.296-30.2,18.362-46.153l-23.723-405.273L2168.747,2450.186z"/><path fill="#212121" d="M2127.828,2413.793l25.984,443.928c2.09,35.706,21.06,84.403,99.573,113.625
					c48.07,17.891,112.851,25.503,182.418,21.431c150.65-8.818,300.114-69.627,294.309-168.788l-25.984-443.929L2127.828,2413.793z"/><path fill="#212121" d="M2399.63,3004.005c-56.859,0-109.065-7.981-149.788-23.138
					c-83.645-31.132-103.904-83.827-106.17-122.552l-25.984-443.929c-0.328-5.601,3.946-10.407,9.547-10.734l576.3-33.732
					c5.604-0.319,10.407,3.946,10.734,9.547l25.984,443.929c2.946,50.34-29.544,94.563-93.958,127.89
					c-55.3,28.61-129.843,46.947-209.898,51.633C2423.979,3003.646,2411.694,3004.005,2399.63,3004.005z M2138.563,2423.34
					l25.39,433.788c1.914,32.688,19.597,77.388,92.976,104.698c46.78,17.411,110.095,24.801,178.281,20.811
					c76.155-4.457,149.69-22.462,201.751-49.396c39.572-20.474,86.097-55.944,83.012-108.657l-25.391-433.788L2138.563,2423.34z"/><path fill="#fff" d="M2399.629,3004.005c-56.859,0-109.064-7.981-149.787-23.138
				c-83.645-31.132-103.904-83.827-106.17-122.552l-4.559-77.883c-0.328-5.601,3.946-10.407,9.547-10.734
				c5.609-0.322,10.407,3.947,10.734,9.547l4.559,77.883c1.914,32.688,19.597,77.388,92.976,104.698
				c46.78,17.411,110.093,24.8,178.281,20.811c76.155-4.457,149.69-22.462,201.751-49.396
				c39.572-20.474,86.097-55.944,83.012-108.657l-4.802-82.025c-0.328-5.601,3.946-10.406,9.547-10.734
				c5.622-0.316,10.407,3.947,10.734,9.547l4.802,82.025c2.946,50.34-29.544,94.563-93.958,127.89
				c-55.3,28.61-129.843,46.947-209.898,51.633C2423.979,3003.646,2411.694,3004.005,2399.629,3004.005z"/><path fill="#c7b9be" d="M2593.479,2530.129c-167.374,42.596-343.498,52.354-507.199,31.939
					c-201.556-25.136-356.118-191.21-367.868-393.987l-33.99-586.6c-13.473-232.507,164.09-431.913,396.597-445.385l347.924-20.16
					c232.507-13.472,431.913,164.09,445.385,396.597l33.902,585.075C2919.863,2298.385,2788.378,2480.528,2593.479,2530.129z"/><path fill="#212121" d="M2253.615,2582.522c-56.595,0-113.02-3.443-168.593-10.374
					c-206.248-25.721-364.695-195.408-376.752-403.479l-33.99-586.599c-3.372-58.198,4.756-115.321,24.16-169.783
					c18.74-52.599,47.153-100.505,84.451-142.391c37.297-41.885,81.602-75.642,131.684-100.332
					c51.856-25.564,107.658-40.237,165.855-43.609l347.925-20.16c58.201-3.373,115.321,4.757,169.783,24.161
					c52.598,18.74,100.505,47.153,142.391,84.45c41.885,37.297,75.642,81.602,100.331,131.684
					c25.564,51.856,40.236,107.658,43.608,165.856l33.902,585.076c2.925,50.474-2.887,100.537-17.271,148.797
					c-14.012,47.009-35.738,90.985-64.576,130.708c-28.884,39.787-63.96,74.004-104.252,101.7
					c-41.479,28.514-87.333,49.288-136.288,61.747C2485,2568.219,2368.955,2582.522,2253.615,2582.522z M2453.598,1125.38
					c-7.988,0-15.992,0.23-24.067,0.698l-347.925,20.16c-226.544,13.127-400.17,208.113-387.043,434.657l33.99,586.6
					c11.49,198.283,162.465,359.986,358.984,384.494c166.344,20.745,340.43,9.782,503.438-31.703l2.505,9.845l-2.505-9.845
					c189.333-48.185,318.493-225.698,307.113-422.088l-33.9-585.075C2851.526,1294.653,2669.712,1125.38,2453.598,1125.38z"/><path fill="#c7b9be" d="M2883.183,2009.987l137.049-8.996c113.083-6.553,199.468-103.565,192.916-216.648
						c-6.552-113.083-103.561-199.411-216.644-192.858l-137.049,8.996"/><path fill="#212121" d="M2883.174,2020.146c-5.308,0-9.774-4.122-10.127-9.493c-0.367-5.598,3.873-10.435,9.472-10.802
						l137.049-8.996c107.402-6.224,189.658-98.599,183.439-205.924c-3.012-51.979-26.091-99.671-64.985-134.292
						c-38.893-34.618-88.943-52.027-140.93-49.012l-136.972,8.991c-5.587,0.375-10.435-3.873-10.802-9.471
						c-0.367-5.598,3.873-10.435,9.472-10.802l137.049-8.996c57.477-3.333,112.745,15.889,155.69,54.114
						c42.949,38.23,68.435,90.895,71.761,148.293c6.865,118.508-83.962,220.509-202.47,227.376l-136.972,8.991
						C2883.623,2020.138,2883.396,2020.146,2883.174,2020.146z"/><path fill="#212121" d="M2996.204,1913.287c-5.341,0-9.818-4.17-10.132-9.571c-0.324-5.601,3.953-10.404,9.554-10.729
					l18.287-1.06c25.522-1.479,48.969-12.84,66.021-31.99c17.053-19.15,25.629-43.752,24.149-69.274
					c-1.478-25.506-12.837-48.938-31.985-65.979c-19.149-17.043-43.759-25.612-69.274-24.135l-18.287,1.06
					c-5.617,0.324-10.405-3.954-10.729-9.554c-0.324-5.601,3.953-10.404,9.554-10.729l18.287-1.06
					c30.944-1.793,60.754,8.592,83.957,29.241c23.204,20.651,36.97,49.055,38.762,79.98c1.793,30.939-8.599,60.757-29.26,83.96
					s-49.079,36.969-80.019,38.762l-18.287,1.06C2996.602,1913.281,2996.402,1913.287,2996.204,1913.287z"/><g><path fill="#212121" d="M2003.187 1784.391c1.721 43.213-31.915 79.64-75.128 81.361-43.214 1.721-79.64-31.915-81.362-75.128-1.721-43.213 31.915-79.64 75.129-81.361C1965.039 1707.541 2001.466 1741.178 2003.187 1784.391zM2483.355 1756.286c1.721 43.213-31.915 79.64-75.128 81.361-43.213 1.721-79.64-31.915-81.361-75.128-1.721-43.213 31.915-79.64 75.128-81.361C2445.207 1679.436 2481.634 1713.073 2483.355 1756.286zM2106.227 2046.418c-2.549 0-5.011-.959-6.891-2.695-1.979-1.828-3.151-4.367-3.258-7.059-5.497-138.021 35.303-262.432 37.043-267.66 1.771-5.323 7.521-8.202 12.845-6.432 5.324 1.771 8.203 7.522 6.432 12.845-.447 1.348-39.319 120.081-36.338 250.285l89.173-3.552c5.588-.249 10.331 4.14 10.554 9.746.224 5.606-4.14 10.331-9.746 10.554l-99.41 3.959C2106.496 2046.416 2106.361 2046.418 2106.227 2046.418zM2159.484 2249.621c-40.059 0-67.488-5.199-69.188-5.529-5.507-1.071-9.104-6.403-8.033-11.91 1.071-5.505 6.401-9.098 11.904-8.034l0 0c.594.115 60.268 11.353 131.187.071 70.165-11.164 126.322-53.443 126.881-53.869 4.46-3.398 10.833-2.54 14.234 1.919 3.4 4.459 2.548 10.827-1.908 14.231-2.44 1.864-60.636 45.789-136.015 57.782C2203.417 2248.28 2179.822 2249.621 2159.484 2249.621zM2467.956 1987.609c-1.381 0-2.783-.283-4.126-.881-5.125-2.282-7.43-8.287-5.148-13.412l36.072-81.015c2.283-5.125 8.288-7.43 13.412-5.148 5.125 2.282 7.43 8.287 5.148 13.412l-36.072 81.015C2475.558 1985.362 2471.846 1987.609 2467.956 1987.609zM2517.042 1985.654c-1.381 0-2.783-.283-4.126-.881-5.125-2.282-7.43-8.287-5.148-13.412l36.072-81.014c2.283-5.125 8.288-7.43 13.412-5.148 5.125 2.282 7.43 8.287 5.148 13.412l-36.072 81.014C2524.644 1983.407 2520.932 1985.654 2517.042 1985.654zM2566.127 1983.699c-1.381 0-2.783-.283-4.126-.881-5.125-2.282-7.43-8.287-5.148-13.412l36.072-81.015c2.282-5.125 8.287-7.43 13.412-5.148s7.43 8.287 5.148 13.412l-36.072 81.015C2573.729 1981.452 2570.017 1983.699 2566.127 1983.699zM1924.34 2021.264c-3.6 0-7.088-1.918-8.931-5.303l-42.4-77.889c-2.682-4.928-.862-11.097 4.065-13.779 4.926-2.682 11.097-.862 13.779 4.065l42.4 77.889c2.682 4.928.862 11.097-4.065 13.779C1927.646 2020.866 1925.981 2021.264 1924.34 2021.264zM1875.255 2023.219c-3.6 0-7.088-1.918-8.931-5.303l-42.4-77.888c-2.682-4.928-.862-11.096 4.065-13.779 4.926-2.682 11.096-.863 13.779 4.065l42.4 77.888c2.682 4.928.862 11.096-4.065 13.779C1878.561 2022.821 1876.896 2023.219 1875.255 2023.219zM1826.17 2025.175c-3.6 0-7.088-1.918-8.931-5.303l-42.401-77.889c-2.682-4.928-.862-11.096 4.065-13.779 4.928-2.683 11.096-.862 13.779 4.065l42.401 77.889c2.682 4.928.862 11.096-4.065 13.779C1829.476 2024.776 1827.812 2025.175 1826.17 2025.175z"/><path fill="#fff" d="M2035.919,1655.605l-236.585,13.848c-28.638,1.676-53.212-20.181-54.889-48.819
						c-1.676-28.638,20.181-53.213,48.818-54.889l236.585-13.848c28.638-1.676,53.213,20.18,54.889,48.819
						C2086.414,1629.354,2064.557,1653.929,2035.919,1655.605z"/><path fill="#212121" d="M1796.218,1679.702c-15.219,0-29.723-5.502-41.189-15.701
						c-12.395-11.024-19.754-26.215-20.723-42.774c-0.969-16.56,4.568-32.505,15.591-44.9
						c11.024-12.395,26.215-19.754,42.774-20.723l236.584-13.848c16.564-0.975,32.505,4.568,44.9,15.592
						c12.395,11.024,19.754,26.215,20.724,42.774c2,34.184-24.183,63.622-58.366,65.623l-236.585,13.848
						C1798.688,1679.666,1797.45,1679.702,1796.218,1679.702z M2032.939,1561.965c-0.83,0-1.662,0.024-2.497,0.073l-236.584,13.848
						c-23,1.347-40.618,21.154-39.271,44.154c0.652,11.142,5.604,21.363,13.944,28.781s19.071,11.147,30.21,10.491l236.585-13.848
						l0.594,10.141l-0.594-10.141c23-1.347,40.618-21.154,39.272-44.155c-0.652-11.142-5.604-21.363-13.944-28.78
						C2052.938,1565.668,2043.179,1561.965,2032.939,1561.965z"/><g><path fill="#fff" d="M2516.087,1627.5l-236.585,13.848c-28.638,1.676-53.213-20.181-54.889-48.819
						c-1.677-28.638,20.181-53.213,48.819-54.889l236.585-13.848c28.638-1.676,53.213,20.181,54.889,48.819
						C2566.583,1601.249,2544.725,1625.824,2516.087,1627.5z"/><path fill="#212121" d="M2276.386,1651.597c-15.219,0-29.722-5.502-41.189-15.701
						c-12.395-11.024-19.754-26.215-20.724-42.774c-2.001-34.184,24.182-63.622,58.366-65.623l236.585-13.848
						c16.553-0.974,32.505,4.568,44.899,15.592c12.396,11.024,19.755,26.215,20.724,42.774
						c2.001,34.184-24.183,63.623-58.365,65.623l0,0l-236.585,13.848C2278.856,1651.561,2277.618,1651.597,2276.386,1651.597z
						 M2513.107,1533.86c-0.83,0-1.661,0.024-2.496,0.073l-236.585,13.848c-23.001,1.347-40.618,21.154-39.272,44.154
						c0.652,11.142,5.604,21.363,13.944,28.781c8.339,7.417,19.068,11.141,30.21,10.491l236.585-13.848
						c23-1.347,40.617-21.154,39.271-44.155c-0.652-11.142-5.604-21.363-13.944-28.78
						C2533.107,1537.562,2523.347,1533.86,2513.107,1533.86z M2516.088,1627.5h0.01H2516.088z"/></g></g><path fill="#212121" d="M1856.12,1428.534c-5.339,0-9.815-4.166-10.131-9.564c-0.328-5.601,3.946-10.407,9.547-10.734
				l592.77-34.696c5.595-0.335,10.407,3.946,10.734,9.547c0.328,5.601-3.946,10.407-9.547,10.734l-592.77,34.696
				C1856.521,1428.528,1856.32,1428.534,1856.12,1428.534z"/><g><path fill="#fff" d="M2328.997,2056.731l-276.008,16.155c-22.746,1.332-40.106,20.85-38.775,43.596l0,0
					c1.331,22.746,20.85,40.106,43.596,38.775l276.008-16.155c22.746-1.332,40.106-20.85,38.775-43.596v0
					C2371.262,2072.76,2351.743,2055.4,2328.997,2056.731z"/><path fill="#212121" d="M2055.368,2165.488c-26.988,0-49.697-21.127-51.294-48.411
					c-0.802-13.71,3.782-26.912,12.909-37.173c9.127-10.262,21.704-16.355,35.414-17.157l276.007-16.155
					c28.318-1.664,52.674,20.021,54.331,48.322c1.656,28.301-20.021,52.674-48.322,54.331l-276.008,16.155
					C2057.387,2165.458,2056.375,2165.488,2055.368,2165.488z M2329.591,2066.872l-276.008,16.155
					c-17.118,1.002-30.229,15.744-29.228,32.862c1.002,17.117,15.724,30.218,32.862,29.228l276.007-16.155
					c17.118-1.002,30.23-15.744,29.229-32.862C2361.45,2078.982,2346.711,2065.86,2329.591,2066.872L2329.591,2066.872z
					 M2328.997,2056.731h0.01H2328.997z"/></g><path fill="#fff" d="M2927.842,1595.435l22.445-1.314l-32.704-558.757l-1178.198,63.958l-173.398,141.072
				l18.31,312.817c3.161,54.009,49.506,95.229,103.514,92.066l-3.008-51.388c-12.525-213.99,150.793-397.616,364.783-410.141
				l406.787-23.81c169.728-9.935,315.373,119.603,325.307,289.332l1.613,27.553l19.372,330.953
				c2.216,37.869,34.712,66.771,72.581,64.554l0,0c37.869-2.216,66.772-34.712,64.555-72.581L2927.842,1595.435z"/><path fill="#212121" d="M2871.129,1882.608c-19.322,0-37.736-6.985-52.294-19.934
				c-15.736-13.996-25.081-33.282-26.311-54.306l-20.985-358.505c-4.646-79.38-39.926-152.199-99.341-205.043
				c-59.416-52.845-135.867-79.386-215.232-74.742l-406.787,23.81c-208.055,12.178-367.413,191.352-355.235,399.407l3.007,51.387
				c0.328,5.601-3.946,10.407-9.547,10.734c-28.829,1.688-56.591-7.952-78.169-27.144c-21.579-19.192-34.392-45.639-36.079-74.469
				l-18.31-312.817c-0.012-0.197-0.018-0.395-0.018-0.593v-27.858c0-5.61,4.548-10.158,10.158-10.158s10.158,4.548,10.158,10.158
				v27.562l18.292,312.52c1.37,23.413,11.776,44.89,29.3,60.476c14.967,13.312,33.601,20.965,53.306,22.061l-2.38-40.67
				c-3.142-53.672,4.325-106.359,22.191-156.598c17.255-48.52,43.433-92.718,77.808-131.367
				c34.375-38.648,75.217-69.805,121.392-92.602c47.812-23.605,99.268-37.167,152.939-40.309l406.787-23.811
				c84.799-4.966,166.452,23.392,229.922,79.843c63.47,56.451,101.157,134.239,106.12,219.036l20.985,358.506
				c0.913,15.607,7.85,29.923,19.531,40.313s26.712,15.606,42.315,14.694c15.606-0.914,29.924-7.85,40.312-19.531
				c10.39-11.682,15.608-26.709,14.695-42.316l-11.959-204.313c-0.328-5.601,3.946-10.407,9.547-10.734l22.445-1.314
				c5.606-0.329,10.406,3.946,10.734,9.547s-3.946,10.407-9.547,10.734l-12.305,0.721l11.365,194.172
				c1.23,21.024-5.799,41.269-19.796,57.005c-13.995,15.736-33.282,25.081-54.306,26.311
				C2874.265,1882.562,2872.692,1882.608,2871.129,1882.608z"/><g><path fill="#c7b9be" d="M2133.251,2947.178c-38.115-78.525-128.999-115.972-211.323-86.959l-470.444,165.782
				c-102.098,35.98-145.481,156.227-90.394,249.417c125.283,211.937,285.419,453.81,437.704,676.304
				c144.624,35.325,295.701,54.193,451.206,54.193c139.42,0,275.271-15.194,406.122-43.767
				C2495.111,3659.726,2263.276,3215.056,2133.251,2947.178z"/><path fill="#212121" d="M2427.549,3429.919c-10.309,6.863-591.263,372.662-741.056,424.708
					c58.919,87.312,119.437,171.784,178.419,251.327c124.348,25.667,253.137,39.188,385.089,39.188
					c166.928,0,328.778-21.671,482.988-62.197C2655.575,3910.636,2543.009,3652.325,2427.549,3429.919z"/><path fill="#212121" d="M2250,4155.301c-130.239,0-260.493-13.255-387.143-39.397c-2.445-0.505-4.619-1.893-6.106-3.897
					c-66.087-89.127-124.534-171.458-178.679-251.696c-1.764-2.614-2.214-5.899-1.218-8.892c0.997-2.992,3.325-5.352,6.304-6.387
					c60.831-21.136,206.395-100.122,420.955-228.421c164.386-98.296,313.253-192.117,317.806-195.147
					c2.402-1.6,5.371-2.1,8.165-1.381c2.794,0.721,5.15,2.596,6.479,5.156c98.684,190.091,193.405,402.229,269.516,572.687
					c12.773,28.606,24.838,55.627,36.174,80.858c1.225,2.724,1.188,5.849-0.101,8.543c-1.287,2.694-3.695,4.686-6.583,5.444
					C2577.683,4134.263,2414.313,4155.301,2250,4155.301z M1870.759,4096.786c124.11,25.349,251.676,38.198,379.241,38.198
					c158.543,0,316.204-19.798,468.796-58.852c-9.896-22.064-20.321-45.412-31.267-69.925
					c-74.688-167.273-167.335-374.76-263.909-561.783c-74.691,47.063-564.393,353.278-721.477,415.209
					C1753.452,3935.311,1808.726,4013.049,1870.759,4096.786z"/><path fill="#fff" d="M2708.116 4037.546c-3.885 0-7.594-2.241-9.28-6.018l-11.259-25.21c-69.411-155.455-155.795-348.924-246.177-527.142-2.538-5.004-.538-11.117 4.465-13.654 5.001-2.538 11.115-.54 13.654 4.465 90.609 178.666 177.106 372.389 246.609 528.048l11.256 25.206c2.289 5.123-.009 11.13-5.131 13.418C2710.908 4037.261 2709.501 4037.546 2708.116 4037.546zM1819.761 4054.656c-3.141 0-6.237-1.451-8.225-4.186-31.14-42.834-61.285-85.247-89.597-126.061-3.198-4.609-2.053-10.939 2.557-14.137 4.61-3.196 10.939-2.052 14.137 2.557 28.227 40.691 58.283 82.98 89.336 125.693 3.299 4.538 2.295 10.891-2.243 14.19C1823.922 4054.024 1821.832 4054.656 1819.761 4054.656z"/><g><path fill="#c7b9be" d="M2169.266,2379.006c0,0-111.207-44.417-382.335-29.58l56.567,288.269
						C1843.498,2637.694,2148.348,2564.681,2169.266,2379.006z"/><path fill="#212121" d="M1843.498,2647.853c-1.931,0-3.838-0.551-5.491-1.611c-2.328-1.495-3.945-3.876-4.478-6.591
						l-56.566-288.269c-0.566-2.885,0.146-5.873,1.951-8.193s4.527-3.745,7.462-3.905c140.914-7.711,238.146,0.813,294.902,9.322
						c62.145,9.317,90.576,20.495,91.756,20.967c4.249,1.697,6.838,6.024,6.326,10.57c-5.026,44.612-26.047,86.546-62.479,124.637
						c-28.648,29.951-66.873,57.604-113.614,82.189c-79.044,41.576-154.241,59.847-157.403,60.604
						C1845.082,2647.761,1844.288,2647.853,1843.498,2647.853z M1799.154,2358.962l52.224,266.141
						c23.24-6.453,82.595-24.591,142.784-56.301c67.534-35.579,149.689-95.855,163.901-182.896
						c-11.92-3.765-38.374-11.062-81.037-17.394C2022.934,2360.484,1931.315,2352.458,1799.154,2358.962z"/><polygon fill="#fff" points="1955.891 3037.957 1912.511 3078.836 1345.458 3105.005 1180.332 2037.468 1223.712 1996.588 1834.145 1929.54"/><path fill="#212121" d="M1345.453,3115.163c-4.983,0-9.264-3.634-10.033-8.605L1170.293,2039.02
							c-0.511-3.306,0.637-6.651,3.072-8.946l43.38-40.879c1.607-1.514,3.663-2.463,5.858-2.705l610.433-67.049
							c2.674-0.292,5.362,0.487,7.465,2.173c2.102,1.686,3.447,4.137,3.742,6.815l121.746,1108.417
							c0.348,3.169-0.811,6.316-3.13,8.502l-43.38,40.879c-1.768,1.666-4.073,2.643-6.499,2.755l-567.052,26.169
							C1345.769,3115.159,1345.61,3115.163,1345.453,3115.163z M1191.188,2041.195l162.916,1053.241l554.18-25.574l36.958-34.827
							l-120.084-1093.289l-596.954,65.568L1191.188,2041.195z"/><rect width="614.104" height="1115.083" x="1239.37" y="2000.61" fill="#212121" transform="rotate(-6.28 1545.652 2557.98)"/><path fill="#212121" d="M1302.078,3156.043c-2.3,0-4.544-0.781-6.355-2.234c-2.102-1.686-3.447-4.137-3.741-6.814
							l-121.747-1108.418c-0.294-2.678,0.488-5.363,2.173-7.465c1.686-2.101,4.137-3.447,6.815-3.742l610.433-67.048
							c5.574-0.604,10.594,3.412,11.206,8.989l121.747,1108.417c0.612,5.577-3.412,10.595-8.988,11.207l-610.433,67.049
							C1302.817,3156.022,1302.446,3156.043,1302.078,3156.043z M1191.539,2046.456l119.528,1088.223l590.238-64.831
							l-119.528-1088.222L1191.539,2046.456z"/><circle cx="1524.736" cy="2360.724" r="89.781" fill="#fff" transform="rotate(-45.001 1524.716 2360.753)"/><path fill="#212121" d="M1524.543,2460.677c-22.631,0-44.427-7.627-62.336-21.991
							c-20.824-16.702-33.898-40.515-36.812-67.05c-6.016-54.777,33.654-104.236,88.431-110.254
							c54.78-6.011,104.236,33.653,110.254,88.431l0,0c6.016,54.777-33.654,104.236-88.431,110.254
							C1531.934,2460.474,1528.226,2460.677,1524.543,2460.677z M1524.795,2281.097c-2.893,0-5.811,0.157-8.752,0.48
							c-43.642,4.794-75.247,44.198-70.454,87.84c2.322,21.142,12.738,40.113,29.329,53.42
							c16.591,13.308,37.37,19.356,58.511,17.034c43.64-4.793,75.243-44.202,70.454-87.84l0,0
							C1599.413,2311.33,1564.835,2281.097,1524.795,2281.097z"/><circle cx="1282.068" cy="2120.704" r="39.504" fill="#fff" transform="rotate(-72.494 1282.14 2120.706)"/><circle cx="1282.068" cy="2120.704" r="19.888" fill="#212121" transform="rotate(-86.537 1282.083 2120.663)"/><circle cx="1372.502" cy="2110.771" r="19.887" fill="#fff" transform="rotate(-58.702 1372.433 2110.7)"/><path fill="#c7b9be" d="M2169.266,2379.006c-40.696-13.596-165.538,168.778-482.034,189.543
					c-261.889,17.182-416.937-50.694-467.279-76.54c-13.047-6.699-28.332-7.622-42.009-2.326
					c-28.274,10.948-74.483,34.196-97.277,75.155c-34.191,61.439-13.001,283.011,1.464,310.709
					c14.465,27.697,118.189,101.013,118.189,101.013c-29.441,41.755-5.765,228.931,18.627,263.475
					c23.036,32.624,54.288,51.417,54.288,51.417l7.304,133.462c2.234,40.816,18.35,79.746,46.058,109.8
					c41.345,44.844,108.837,104.17,185.879,117.564c127.471,22.161,529.548-13.44,651.401-93.921
					c219.681-162.237,284.315-466.312,225.669-783.549S2169.266,2379.006,2169.266,2379.006z"/><path fill="#212121" d="M2288.169 3440.085c-1.998 0-4.016-.588-5.781-1.812-4.609-3.198-5.754-9.527-2.557-14.137 111.727-161.047 147.144-390.994 99.728-647.482-29.744-160.901-86.619-258.01-129.093-311.14-42.721-53.439-79.803-74.278-85.035-77.057l-23.996-7.299c-5.367-1.633-8.395-7.308-6.763-12.675s7.306-8.396 12.675-6.763l24.875 7.566c.509.155 1.006.35 1.484.583 1.734.842 43.014 21.329 91.621 81.702 28.26 35.1 53.266 76.613 74.323 123.386 26.213 58.225 46.361 124.842 59.887 198.002 23.422 126.697 27.037 247.631 10.746 359.441-17.053 117.037-55.326 219.088-113.759 303.314C2294.551 3438.56 2291.386 3440.085 2288.169 3440.085zM1615.195 3668.871c-42.925 0-79.154-2.188-104.458-6.587-79.076-13.747-147.843-73.218-191.607-120.687-29.052-31.511-46.359-72.753-48.733-116.13l-7.021-128.306c-9.938-6.729-33.82-24.495-52.725-51.269-14.934-21.148-26.489-82.512-31.317-133.944-2.798-29.806-7.124-98.259 7.775-132.344-25.37-18.267-100.651-73.835-113.98-99.357-8.466-16.211-17.306-80.769-20.124-146.972-2.062-48.439-2.362-135.376 18.787-173.379 24.691-44.367 74.809-68.972 102.486-79.688 16.279-6.303 34.619-5.297 50.316 2.762 53.303 27.368 205.033 89.505 462.084 75.436 94.512-5.173 183.843-24.018 265.512-56.012 5.222-2.046 11.117.529 13.163 5.753 2.047 5.224-.529 11.117-5.752 13.163-83.686 32.784-175.137 52.09-271.812 57.381-113.854 6.231-220.119-1.654-315.843-23.438-79.772-18.153-132.375-41.756-156.63-54.209-10.542-5.413-22.827-6.102-33.701-1.891-25.12 9.728-70.484 31.837-92.069 70.622-13.675 24.573-19.595 83.852-16.242 162.637 3.112 73.105 12.52 128.256 17.833 138.431 9.71 18.592 75.721 69.622 115.048 97.42 4.578 3.235 5.669 9.567 2.438 14.148-11.282 16-14.839 66.102-9.062 127.639 5.241 55.832 17.144 109.194 27.686 124.124 21.442 30.365 50.94 48.398 51.235 48.577 2.875 1.737 4.714 4.79 4.898 8.145l7.304 133.462c2.116 38.674 17.523 75.42 43.383 103.468 41.634 45.158 106.685 101.67 180.15 114.442 51.645 8.979 151.376 8.356 260.275-1.626 5.603-.498 10.531 3.603 11.043 9.189.512 5.587-3.602 10.53-9.188 11.042C1718.296 3666.195 1662.655 3668.87 1615.195 3668.871z"/><path fill="#212121" d="M1519.761 3582.397c-3.272 0-6.484-1.577-8.444-4.498-22.19-33.063-36.347-68.33-42.077-104.818-6.363-40.519-.176-68.269 5.808-95.105 5.382-24.142 10.466-46.944 6.038-78.589-4.77-34.079-16.364-48.558-29.789-65.322-13.208-16.493-28.178-35.188-37.879-73.625-13.155-52.126-2.814-84.877 7.186-116.549 9.333-29.557 18.147-57.475 8.001-102.069-8.182-35.96-23.195-58.658-37.714-80.609-17.885-27.039-34.779-52.579-34.261-96.543.431-36.567 12.85-73.078 36.912-108.517 3.152-4.641 9.468-5.85 14.11-2.698 4.642 3.151 5.85 9.469 2.698 14.11-21.783 32.082-33.021 64.834-33.404 97.344-.444 37.723 14.077 59.676 30.891 85.096 14.8 22.377 31.576 47.738 40.579 87.31 11.369 49.967 1.3 81.855-8.438 112.694-9.568 30.303-18.605 58.925-6.861 105.46 8.621 34.156 21.542 50.293 34.039 65.897 14.015 17.502 28.507 35.6 34.05 75.205 4.939 35.289-.789 60.98-6.329 85.826-5.827 26.137-11.332 50.824-5.567 87.532 5.268 33.544 18.348 66.061 38.876 96.648 3.126 4.658 1.884 10.97-2.774 14.096C1523.675 3581.839 1521.708 3582.397 1519.761 3582.397zM1326.637 2999.552c-.047 0-.093 0-.14-.001-24.083-.325-48.397-1.98-72.268-4.921-11.255-1.388-22.631-3.088-33.812-5.054-5.525-.972-9.217-6.239-8.245-11.765.971-5.525 6.235-9.22 11.764-8.245 10.839 1.906 21.867 3.555 32.777 4.899 23.14 2.851 46.711 4.455 70.058 4.771 5.609.075 10.096 4.685 10.02 10.294C1336.716 2995.094 1332.183 2999.552 1326.637 2999.552zM1375.561 3313.815c-.041 0-.081 0-.122-.001-20.876-.246-41.808-2.235-62.212-5.913-6.745-1.216-13.541-2.635-20.199-4.22-5.458-1.298-8.83-6.775-7.531-12.233 1.299-5.458 6.776-8.829 12.234-7.53 6.295 1.498 12.721 2.84 19.099 3.989 19.298 3.479 39.097 5.359 58.849 5.593 5.61.065 10.104 4.667 10.038 10.277C1385.65 3309.346 1381.115 3313.815 1375.561 3313.815z"/></g></g></g></svg>